<svg width="66" height="67" viewBox="0 0 66 67" fill="none" xmlns="http://www.w3.org/2000/svg">
<path d="M5.41733 34.757C6.02372 35.7596 6.65111 36.7958 7.20997 37.8449C8.86552 40.7798 9.9442 44.0043 10.389 47.3449C10.7247 51.1449 11.3641 54.9117 12.3007 58.6101C13.0211 61.2878 14.3645 66.2714 18.6452 66.2714C22.0028 66.2714 24.6 59.8579 26.3616 47.2104C26.955 43.0212 28.7661 42.6099 29.6767 42.4984C29.7127 42.4984 29.7422 42.5129 29.7773 42.5184C29.8383 42.6875 29.8973 42.8591 29.9619 43.0242C30.4992 44.295 31.1451 45.5173 31.8921 46.677C32.2648 47.2934 32.6396 47.9108 32.9848 48.5547C33.9769 50.3143 34.6238 52.2471 34.891 54.2488C35.0831 56.177 35.3793 58.0933 35.7776 59.989C35.7841 60.0145 35.7776 60.0405 35.7876 60.0655C35.7971 60.091 35.8051 60.1105 35.8136 60.1355C35.8986 60.5053 35.9767 60.8755 36.0792 61.2427C36.5165 62.8748 37.4321 66.2704 40.39 66.2704C41.3416 66.2704 43.8697 66.2704 45.5542 54.1793C45.8644 51.9929 46.6875 51.7157 47.1783 51.6447L47.3139 51.6687C47.6416 51.7362 48.5161 51.9143 48.8438 54.1823C50.5249 66.2714 53.052 66.2714 54.0026 66.2714C56.9535 66.2714 57.8365 63.0024 58.3123 61.2538C58.8942 58.9538 59.2929 56.6118 59.5046 54.2488C59.7743 52.245 60.4232 50.3108 61.4173 48.5502C61.7615 47.8998 62.1388 47.2769 62.51 46.655C63.2525 45.5008 63.8934 44.284 64.4252 43.0187C66.2589 38.3638 66.7487 31.9867 62.6251 28.0452C61.3663 26.862 59.8343 26.0089 58.1657 25.5622C60.4032 17.3354 58.9988 9.83319 54.3063 5.33384C47.9933 -0.726998 36.7392 -0.851577 29.7062 4.87655C22.6728 -0.851577 11.4196 -0.726998 5.10163 5.33684C-1.33394 11.5042 -0.548947 21.5696 2.33738 28.9318C3.19542 30.9581 4.22558 32.9073 5.41733 34.757ZM62.3954 42.2262C61.9076 43.3759 61.3227 44.4816 60.6468 45.5313C60.2491 46.1872 59.8508 46.8431 59.4906 47.5286C58.3664 49.5318 57.6344 51.7312 57.3342 54.0087C57.1331 56.2571 56.7563 58.486 56.207 60.6754C55.7557 62.3249 55.1798 64.0855 54.0256 64.0855C53.5883 63.951 52.1084 61.7851 51.0077 53.8731C50.646 51.359 49.5508 49.8936 47.7466 49.5253C47.6045 49.4943 47.4605 49.4703 47.3159 49.4543C47.2758 49.4558 47.2353 49.4593 47.1958 49.4653C47.1538 49.4588 47.1112 49.4548 47.0687 49.4533C45.0109 49.6824 43.7726 51.1689 43.3899 53.8731C42.2872 61.7906 40.8007 63.9555 40.39 64.0855C39.2062 64.0855 38.6334 62.3259 38.1866 60.6689C37.6392 58.479 37.2635 56.2501 37.0629 54.0022C36.7662 51.7242 36.0352 49.5243 34.9095 47.5221C34.5493 46.8441 34.1545 46.1917 33.7598 45.5413C33.0808 44.4881 32.4925 43.3794 32.0012 42.2262C30.4342 38.2282 29.9464 32.8182 33.281 29.6247C36.6156 26.4312 42.8906 26.4857 46.4603 29.7403C46.7815 30.053 50.9041 33.9845 54.5995 33.9845C55.2029 33.9845 55.6922 33.4952 55.6922 32.8913C55.6922 32.2879 55.2029 31.7986 54.5995 31.7986C52.7238 31.7986 50.3488 30.1776 48.9094 28.9898C51.1938 27.5134 53.9526 26.957 56.6303 27.4333C58.3128 27.699 59.8773 28.4635 61.1211 29.6277C64.4622 32.8268 63.8974 38.4088 62.3954 42.2262ZM6.61509 6.91384C12.2667 1.48991 22.9179 1.57696 28.9652 7.09345C29.3915 7.50872 35.9547 13.8097 41.7288 13.8097C42.3322 13.8097 42.8215 13.3204 42.8215 12.7165C42.8215 12.1131 42.3322 11.6238 41.7288 11.6238C37.8914 11.6238 33.288 7.99503 31.3783 6.33147C37.5382 1.59147 47.4254 1.75657 52.8003 6.91534C56.934 10.8794 58.1067 17.6536 56.0179 25.1609C52.8889 24.8272 49.7474 25.6717 47.2078 27.5304C42.7089 24.0897 35.722 24.2518 31.7665 28.0462C28.3859 31.2858 28.1147 36.1724 29.1434 40.397C26.4161 40.8954 24.7476 43.0682 24.2042 46.9052C22.3035 60.4953 19.7374 64.0855 18.6452 64.0855C16.2407 64.0855 15.1995 60.9661 14.408 58.0327C13.509 54.4429 12.8916 50.7891 12.5609 47.1033C12.0881 43.487 10.9263 39.9953 9.13869 36.8163C8.55282 35.7146 7.90941 34.6524 7.28101 33.6248C6.1543 31.8807 5.17918 30.0435 4.36717 28.1328C1.74501 21.4305 0.953505 12.3363 6.61509 6.91384Z" fill="url(#paint0_linear_158_5917)"/>
<path d="M6.4828 23.556C6.82351 23.556 7.14472 23.3974 7.35185 23.1263C7.55848 22.8556 7.62702 22.5034 7.53747 22.1747C5.09692 13.2275 10.7995 10.2776 11.0587 10.1475C11.584 9.87538 11.7977 9.23447 11.54 8.70163C11.2823 8.16879 10.6474 7.93765 10.1081 8.1803C10.0345 8.21632 2.49327 11.9772 5.42763 22.7505C5.55771 23.2263 5.98949 23.556 6.4828 23.556Z" fill="url(#paint1_linear_158_5917)"/>
<path d="M15.4984 7.2509C15.4984 7.85478 15.0091 8.34409 14.4052 8.34409C13.8018 8.34409 13.3125 7.85478 13.3125 7.2509C13.3125 6.64751 13.8018 6.1582 14.4052 6.1582C15.0091 6.1582 15.4984 6.64751 15.4984 7.2509Z" fill="url(#paint2_linear_158_5917)"/>
<path d="M36.1749 30.8167C34.4983 31.7673 31.8272 35.0068 33.7234 40.4633C33.8509 40.833 34.1661 41.1062 34.5504 41.1802C34.9346 41.2538 35.3289 41.1167 35.5845 40.8205C35.8397 40.5243 35.9177 40.1141 35.7882 39.7448C34.0396 34.7177 37.1105 32.8034 37.2616 32.7139C37.7854 32.4142 37.967 31.7463 37.6669 31.2219C37.3667 30.6981 36.6987 30.5165 36.1749 30.8167Z" fill="url(#paint3_linear_158_5917)"/>
<path d="M40.6351 30.2045C40.6351 30.8079 40.1458 31.2972 39.5424 31.2972C38.9385 31.2972 38.4492 30.8079 38.4492 30.2045C38.4492 29.6006 38.9385 29.1113 39.5424 29.1113C40.1458 29.1113 40.6351 29.6006 40.6351 30.2045Z" fill="url(#paint4_linear_158_5917)"/>
<defs>
<linearGradient id="paint0_linear_158_5917" x1="32.9851" y1="0.681641" x2="32.9851" y2="66.2714" gradientUnits="userSpaceOnUse">
<stop stop-color="#2E9CB7"/>
<stop offset="1" stop-color="#5DC19D"/>
</linearGradient>
<linearGradient id="paint1_linear_158_5917" x1="8.19958" y1="8.08398" x2="8.19958" y2="23.556" gradientUnits="userSpaceOnUse">
<stop stop-color="#2E9CB7"/>
<stop offset="1" stop-color="#5DC19D"/>
</linearGradient>
<linearGradient id="paint2_linear_158_5917" x1="14.4054" y1="6.1582" x2="14.4054" y2="8.34409" gradientUnits="userSpaceOnUse">
<stop stop-color="#2E9CB7"/>
<stop offset="1" stop-color="#5DC19D"/>
</linearGradient>
<linearGradient id="paint3_linear_158_5917" x1="35.441" y1="30.6719" x2="35.441" y2="41.1998" gradientUnits="userSpaceOnUse">
<stop stop-color="#2E9CB7"/>
<stop offset="1" stop-color="#5DC19D"/>
</linearGradient>
<linearGradient id="paint4_linear_158_5917" x1="39.5422" y1="29.1113" x2="39.5422" y2="31.2972" gradientUnits="userSpaceOnUse">
<stop stop-color="#2E9CB7"/>
<stop offset="1" stop-color="#5DC19D"/>
</linearGradient>
</defs>
</svg>
