<svg width="52" height="80" viewBox="0 0 52 80" fill="none" xmlns="http://www.w3.org/2000/svg">
<path d="M26.3482 62.3636C23.4166 60.0963 21.2892 57.5327 19.7488 55.0735H22.3319C22.8916 55.0735 23.3455 54.5589 23.3455 53.9241C23.3455 53.2893 22.8917 52.7746 22.3319 52.7746H18.4524C17.7899 51.464 17.2869 50.2249 16.9088 49.1278C15.5218 45.1037 15.4416 42.0429 15.4409 42.0127C15.4286 41.379 14.9664 40.8768 14.407 40.8889C13.8475 40.9019 13.4029 41.4268 13.4144 42.0616C13.4167 42.1879 13.4812 44.9653 14.6473 48.8091C13.9151 51.1969 13.4428 55.4774 13.4218 55.6693C13.3531 56.299 13.7477 56.8729 14.3034 56.9509C14.3457 56.9568 14.3875 56.9598 14.4289 56.9598C14.9333 56.9598 15.3701 56.5332 15.4336 55.951C15.5118 55.233 15.6981 53.7756 15.9478 52.3357C16.2419 53.0073 16.5754 53.7046 16.9522 54.4182C16.9809 54.486 17.015 54.5503 17.0544 54.61C17.939 56.2575 19.0566 57.9869 20.4689 59.6884C20.3815 60.8026 20.2358 63.2971 20.5337 64.7963C20.6399 65.3306 21.0581 65.6933 21.5216 65.6933C21.5953 65.6933 21.6704 65.6841 21.7454 65.665C22.2914 65.5253 22.6344 64.9102 22.5113 64.2909C22.3888 63.6749 22.3691 62.7169 22.3913 61.7895C23.2443 62.6382 24.1786 63.4679 25.2064 64.2627C25.381 64.3979 25.5798 64.4626 25.7763 64.4626C26.1001 64.4626 26.4184 64.2869 26.6146 63.9607C26.9299 63.4363 26.8106 62.7211 26.3482 62.3636Z" fill="url(#paint0_linear_158_5904)"/>
<path d="M49.8368 49.8076C49.7047 48.9373 49.5801 48.1155 49.4617 47.2949C49.297 46.1526 49.1763 45.2323 49.0821 44.3982C48.8408 42.2605 48.7712 40.6452 48.8631 39.3149C49.377 31.8782 47.15 27.2006 44.6485 24.3325C47.066 23.7185 48.7873 21.1594 48.5879 18.2797C48.3691 15.1233 45.9243 12.7565 43.1428 13.004C42.7193 13.0419 40.9553 13.2229 38.6398 13.7818C37.9113 12.8485 37.1158 12.0059 36.2622 11.2678L37.4674 6.7291C37.7426 5.69308 37.6453 4.59753 37.194 3.64437C36.7425 2.69105 35.9908 1.99429 35.0775 1.6825C34.1639 1.3701 33.1979 1.48057 32.3574 1.99245C31.5169 2.50432 30.9026 3.35698 30.6275 4.39299L29.6963 7.9003C29.6631 7.89263 29.6301 7.88495 29.5968 7.87744V4.76953C29.5968 2.53593 27.9945 0.71875 26.0251 0.71875C24.0557 0.71875 22.4535 2.53593 22.4535 4.76953V8.00203C22.431 8.00863 22.4086 8.01538 22.3864 8.02213L21.4227 4.39269C20.8549 2.25421 18.8584 1.03836 16.9729 1.68204C16.0594 1.99413 15.3076 2.6909 14.8562 3.64391C14.4048 4.59722 14.3077 5.69277 14.5828 6.72864L16.0259 12.1636C15.2722 12.9914 14.5654 13.9246 13.9085 14.9582C9.96411 14.8753 6.5007 14.9878 5.82127 15.0123C3.03066 15.1128 0.832069 17.7693 0.920548 20.9343C0.963435 22.4679 1.52949 23.8905 2.5148 24.9401C3.46034 25.9476 4.68362 26.496 5.97523 26.496C6.0307 26.496 6.0863 26.4949 6.14204 26.4929C6.59986 26.4765 7.11572 26.4626 7.66256 26.4512C4.91754 30.481 3.34006 36.1347 3.45858 41.8316C3.45993 41.9003 3.46264 41.9694 3.46548 42.0387C3.46832 42.1092 3.47157 42.1802 3.47143 42.2509C3.46967 43.7606 3.6166 45.351 3.90815 46.9776C4.01962 47.5997 4.5551 48.0018 5.10329 47.8749C5.65176 47.7485 6.00608 47.1415 5.89446 46.5195C5.62997 45.0441 5.49671 43.6089 5.4982 42.2535C5.4982 42.1466 5.49441 42.0401 5.49009 41.9339C5.48792 41.8818 5.48576 41.8299 5.48481 41.7776C5.37752 36.6185 6.77953 31.5245 9.22259 27.9156C9.05036 28.8806 8.97433 29.5011 8.9608 29.6148C8.59173 32.7569 10.5433 35.6535 13.3109 36.0717C13.5344 36.1056 13.7615 36.1227 13.9863 36.1227C16.5104 36.1227 18.6652 33.982 18.9978 31.1507C18.9981 31.1486 19.0009 31.1259 19.0066 31.0852C19.0069 31.0831 19.0073 31.0804 19.0075 31.0781C19.0092 31.0662 19.011 31.0528 19.0131 31.0379C19.0135 31.035 19.0139 31.032 19.0143 31.0289C19.0165 31.0135 19.0189 30.9965 19.0216 30.9784C19.0221 30.9747 19.0227 30.971 19.0232 30.9671C19.0258 30.9496 19.0286 30.9304 19.0315 30.9106C19.0324 30.9043 19.0334 30.8982 19.0343 30.8917C19.0376 30.8698 19.0412 30.8463 19.045 30.8217C19.0455 30.8179 19.0461 30.8145 19.0466 30.8107C19.051 30.7823 19.0557 30.7521 19.0607 30.7206C19.061 30.7189 19.0612 30.7176 19.0615 30.7159C19.0721 30.649 19.0841 30.5752 19.0975 30.4949C19.0989 30.4868 19.1003 30.4779 19.1018 30.4696C19.1071 30.4385 19.1124 30.4065 19.1181 30.3737C19.1205 30.3594 19.1231 30.3446 19.1256 30.33C19.1305 30.3019 19.1355 30.2734 19.1407 30.244C19.1438 30.2266 19.147 30.2085 19.1501 30.1905C19.1553 30.1617 19.1605 30.1325 19.166 30.1027C19.1693 30.0842 19.1727 30.0653 19.1762 30.0464C19.1816 30.0168 19.1872 29.9864 19.193 29.956C19.1969 29.9347 19.201 29.9134 19.2051 29.8916C19.2107 29.8614 19.2167 29.8304 19.2226 29.7994C19.227 29.7771 19.2312 29.7549 19.2355 29.7322C19.2419 29.6995 19.2483 29.6659 19.255 29.6324C19.2594 29.6099 19.2638 29.5876 19.2682 29.5649C19.2755 29.5278 19.2833 29.4899 19.291 29.4518C19.295 29.4314 19.2991 29.4116 19.3033 29.3911C19.3146 29.3354 19.3264 29.2786 19.3384 29.2209C19.3426 29.2007 19.3471 29.1798 19.3516 29.1592C19.3608 29.1157 19.3701 29.0721 19.3797 29.0274C19.3858 28.9994 19.3922 28.9707 19.3984 28.9423C19.4061 28.9068 19.4138 28.8715 19.4218 28.8356C19.4287 28.8048 19.4357 28.7733 19.4428 28.742C19.4506 28.7072 19.4585 28.6724 19.4666 28.6369C19.474 28.6042 19.4817 28.5711 19.4893 28.5381C19.4973 28.5034 19.5054 28.4686 19.5136 28.4336C19.5216 28.3994 19.5299 28.365 19.538 28.3305C19.5464 28.2954 19.5548 28.2602 19.5634 28.2246C19.572 28.1894 19.5805 28.1541 19.5893 28.1183C19.5982 28.0821 19.6071 28.0457 19.6163 28.0092C19.6253 27.9735 19.6341 27.9379 19.6433 27.9018C19.6525 27.8651 19.6621 27.8282 19.6715 27.7912C19.681 27.7542 19.6903 27.7174 19.7001 27.6801C19.7097 27.6428 19.7197 27.6054 19.7296 27.5678C19.7394 27.5302 19.7492 27.493 19.7593 27.4551C19.771 27.4119 19.7829 27.3681 19.7948 27.3246C19.813 27.2571 19.8319 27.1894 19.8509 27.1211C19.8616 27.0831 19.872 27.0453 19.8829 27.007C19.8946 26.9657 19.9067 26.9241 19.9187 26.8824C19.9271 26.8532 19.9355 26.8239 19.944 26.7947C19.9793 26.7986 20.0156 26.8023 20.0505 26.8063C20.0993 26.8118 20.1476 26.8173 20.1955 26.823C20.2897 26.834 20.3817 26.8454 20.4724 26.8567C20.5149 26.8621 20.5579 26.8673 20.5998 26.8728C20.7206 26.8887 20.8385 26.9049 20.9527 26.9215C20.9619 26.9229 20.9717 26.9241 20.9809 26.9255C21.0991 26.9428 21.2129 26.9606 21.3237 26.9789C21.361 26.985 21.3966 26.9913 21.433 26.9974C21.5089 27.0103 21.5834 27.0234 21.6557 27.0367C21.694 27.0438 21.7314 27.0508 21.7687 27.058C21.8393 27.0716 21.9077 27.0854 21.9747 27.0993C22.0061 27.1059 22.0381 27.1124 22.0689 27.119C22.1636 27.1395 22.2553 27.1602 22.3421 27.1816C23.1391 27.3774 24.1656 27.7582 25.0418 28.9742L25.0439 28.9771C25.0673 29.0115 25.0907 29.0455 25.1148 29.0793C25.1671 29.1552 25.2181 29.2338 25.2683 29.3145C25.297 29.3607 25.3243 29.4092 25.3522 29.4571C25.3732 29.493 25.3948 29.5275 25.4154 29.5643C25.7034 30.078 25.9521 30.6766 26.158 31.3507C26.3578 32.0058 26.5188 32.8445 26.6362 33.8434C26.9598 36.597 28.9583 38.7076 31.3923 38.8621C31.4881 38.8682 31.5838 38.8711 31.6793 38.8711C31.6794 38.8711 31.6797 38.8711 31.6798 38.8711C31.7697 38.8711 31.8594 38.8684 31.9485 38.863C31.9872 38.8607 32.0254 38.8561 32.0638 38.8529C32.1156 38.8484 32.1674 38.8446 32.219 38.8385C32.2609 38.8334 32.3023 38.8263 32.344 38.82C32.3919 38.813 32.4396 38.8062 32.4872 38.7976C32.5292 38.79 32.5707 38.7806 32.6124 38.7717C32.6595 38.7617 32.7063 38.7521 32.7529 38.7407C32.7941 38.7306 32.8348 38.7191 32.8756 38.7079C32.9223 38.695 32.9689 38.6823 33.0153 38.668C33.0553 38.6557 33.0948 38.6421 33.1346 38.6286C33.1813 38.6128 33.2277 38.5966 33.2739 38.5795C33.3126 38.5649 33.3509 38.5495 33.3893 38.5339C33.4357 38.515 33.4819 38.4957 33.5279 38.4754C33.5654 38.4589 33.6023 38.4417 33.6394 38.424C33.6855 38.4021 33.7312 38.3795 33.7768 38.3562C33.8128 38.3376 33.8486 38.3188 33.8844 38.2991C33.9301 38.2741 33.9751 38.2482 34.0202 38.2218C34.0548 38.2014 34.0893 38.1808 34.1236 38.1595C34.1686 38.1314 34.213 38.1021 34.2574 38.0727C34.2906 38.0504 34.3238 38.0283 34.3565 38.0051C34.4009 37.9738 34.4445 37.9412 34.4882 37.9085C34.5197 37.8847 34.5513 37.8612 34.5825 37.8367C34.6264 37.8018 34.6693 37.7655 34.7123 37.7293C34.742 37.7041 34.7719 37.6797 34.8011 37.6539C34.8452 37.6149 34.8881 37.5741 34.9312 37.5333C34.958 37.508 34.9852 37.4834 35.0115 37.4577C35.058 37.4118 35.1031 37.3639 35.1484 37.3159C35.17 37.2929 35.1923 37.2709 35.2134 37.2476C35.2792 37.1755 35.3436 37.1012 35.4062 37.0247C36.4324 35.7701 36.9085 34.0808 36.7125 32.3893C36.6324 31.6983 36.5281 31.0195 36.4028 30.3548C37.3739 31.6123 38.4497 33.2531 39.3595 35.2478C39.2027 36.6877 37.4383 38.9874 36.154 40.2375C35.7292 40.6504 35.6797 41.3757 36.0435 41.8577C36.2438 42.1233 36.5281 42.2598 36.8139 42.2598C37.0472 42.2598 37.2814 42.1692 37.4724 41.9837C37.5122 41.9451 38.4551 41.0257 39.3982 39.7609C39.8167 39.1998 40.1695 38.6582 40.4571 38.1369C41.2126 40.6004 41.6398 43.4519 41.408 46.6549C41.3621 47.2876 41.7772 47.8427 42.3351 47.8946C42.3634 47.8973 42.3912 47.8986 42.4191 47.8986C42.9413 47.8986 43.3847 47.4438 43.4282 46.8431C43.5078 45.7438 43.5173 44.6489 43.46 43.5622C43.8497 43.917 44.1555 44.2309 44.2788 44.4267C44.4766 44.7408 44.7882 44.908 45.1043 44.908C45.3082 44.908 45.5141 44.8385 45.6926 44.694C46.1481 44.325 46.2535 43.607 45.9282 43.0906C45.3818 42.2227 43.8501 40.99 43.1002 40.4143C42.7437 38.3989 42.1485 36.4304 41.3222 34.5396C41.3023 34.484 41.2793 34.4306 41.2525 34.3798C40.7525 33.2561 40.171 32.1599 39.5088 31.0986C38.2622 29.1011 36.982 27.6201 36.0766 26.6869C37.4556 25.9976 39.0405 25.4678 40.4972 25.0939C40.5605 25.0778 40.625 25.061 40.6869 25.0457C40.6957 25.0436 40.7044 25.0414 40.7132 25.0391C41.2099 24.9171 41.6551 24.8217 42.0211 24.7496C45.608 27.9386 47.2744 32.901 46.8435 39.1354C46.7404 40.6269 46.8132 42.3921 47.0727 44.6905C47.1698 45.5516 47.2937 46.4972 47.4626 47.6664C47.5823 48.4962 47.7076 49.3226 47.8403 50.1975C48.51 54.613 49.2025 59.1789 49.0303 63.3462C49.0041 63.9803 49.4362 64.5184 49.9953 64.5482C50.0116 64.5491 50.0275 64.5494 50.0436 64.5494C50.5814 64.5494 51.0299 64.0696 51.0552 63.4537C51.2365 59.0361 50.525 54.3445 49.8368 49.8076ZM10.6396 22.1687C10.6396 22.1689 10.6395 22.169 10.6395 22.169C10.6017 22.2875 10.5648 22.4069 10.5279 22.5262C10.5123 22.5766 10.4967 22.6267 10.4815 22.6768C10.444 22.7994 10.407 22.9226 10.3705 23.0464C10.3625 23.0735 10.3548 23.1003 10.347 23.1273C10.2703 23.3896 10.1952 23.6546 10.1224 23.9221C10.121 23.9271 10.1196 23.9323 10.1182 23.9374C10.1014 23.9989 10.084 24.0599 10.0673 24.1218C10.0466 24.122 10.0261 24.1222 10.0055 24.1222C9.98724 24.1223 9.96844 24.1223 9.95017 24.1225C9.94963 24.1225 9.94923 24.1226 9.94868 24.1226C8.56075 24.1306 7.16226 24.1565 6.07711 24.1952C5.26618 24.224 4.49327 23.8943 3.90233 23.2646C3.31152 22.6352 2.97208 21.7817 2.94624 20.8616C2.8932 18.9635 4.21173 17.3704 5.88513 17.3101C6.38042 17.2923 8.37405 17.2271 10.9515 17.2271C11.486 17.2271 12.0457 17.2298 12.6223 17.2366C12.3677 17.744 12.1227 18.2694 11.8879 18.813C11.8858 18.8181 11.8835 18.8228 11.8813 18.8279C11.803 19.0097 11.7256 19.1932 11.6494 19.3789C11.5792 19.5503 11.5109 19.7215 11.444 19.8928C11.4201 19.9541 11.3966 20.0161 11.373 20.0778C11.3304 20.1884 11.2882 20.2991 11.2471 20.4095C11.2184 20.4863 11.1901 20.5636 11.162 20.6409C11.1271 20.7364 11.0927 20.8318 11.0589 20.9269C11.0282 21.0129 10.9976 21.0993 10.9674 21.1859C10.9378 21.271 10.909 21.3558 10.8803 21.4403C10.7984 21.6808 10.7179 21.9232 10.6396 22.1687ZM42.1794 22.3926C42.1614 22.3947 42.1434 22.396 42.1254 22.3992C40.796 22.6384 37.7405 23.298 35.0792 24.6725C35.0664 24.6791 35.0538 24.6859 35.0411 24.6925C34.9471 24.7414 34.8537 24.791 34.7608 24.8418C34.7332 24.8568 34.7057 24.872 34.6782 24.8872C34.5999 24.9306 34.5219 24.9747 34.4445 25.0195C34.412 25.0382 34.3797 25.0567 34.3473 25.0758C34.2718 25.1203 34.197 25.1654 34.1227 25.211C34.0928 25.2294 34.0628 25.2473 34.0332 25.2659C33.9313 25.3296 33.8304 25.394 33.7309 25.4601C33.7289 25.4615 33.727 25.4632 33.725 25.4646C33.7086 25.4756 33.6927 25.4879 33.6768 25.5002C33.6656 25.5088 33.6541 25.5172 33.6431 25.5263C33.6299 25.5373 33.6172 25.5493 33.6043 25.5611C33.5913 25.5731 33.5782 25.585 33.5659 25.5976C33.5557 25.6081 33.5459 25.6189 33.536 25.63C33.5217 25.6458 33.5077 25.6618 33.4943 25.6783C33.4865 25.6881 33.4788 25.6983 33.4712 25.7084C33.4569 25.7276 33.4431 25.7472 33.4298 25.7675C33.4263 25.7728 33.4222 25.7778 33.4187 25.7833C33.4157 25.7879 33.4136 25.7928 33.4106 25.7976C33.398 25.8181 33.3862 25.8393 33.3749 25.8606C33.3688 25.872 33.3627 25.8833 33.357 25.8948C33.3474 25.9145 33.3387 25.9346 33.3302 25.9547C33.3244 25.9682 33.3183 25.9817 33.313 25.9953C33.3061 26.0133 33.3003 26.0319 33.2944 26.0501C33.2891 26.0661 33.2833 26.0817 33.2787 26.0978C33.2739 26.1144 33.2704 26.1314 33.2664 26.1483C33.2587 26.1801 33.2522 26.212 33.2469 26.2439C33.2436 26.2638 33.24 26.2836 33.2377 26.3036C33.2361 26.3177 33.2355 26.3317 33.2343 26.3458C33.2328 26.3644 33.2306 26.3829 33.2298 26.4016C33.2297 26.4052 33.23 26.4088 33.2298 26.4124C33.2294 26.4251 33.2298 26.4378 33.2298 26.4507C33.2298 26.4742 33.2298 26.4978 33.2312 26.5212C33.2319 26.5334 33.2331 26.5457 33.2342 26.558C33.2361 26.5815 33.2382 26.6051 33.2415 26.6284C33.2432 26.6416 33.2457 26.6547 33.2478 26.6679C33.2504 26.6829 33.2522 26.6978 33.2551 26.7128C33.2565 26.7196 33.2587 26.7262 33.2601 26.7328C33.2635 26.7484 33.2677 26.7636 33.2716 26.7791C33.2765 26.7975 33.2814 26.8158 33.2871 26.834C33.2926 26.8521 33.299 26.8699 33.3053 26.8877C33.3088 26.8974 33.3116 26.9072 33.3152 26.9169C33.5399 27.4952 33.7407 28.0902 33.9121 28.6856C34.2731 29.9404 34.5386 31.2879 34.7012 32.6903C34.7159 32.8166 34.7242 32.9429 34.7265 33.0687C34.7421 33.9493 34.4564 34.805 33.9189 35.462C33.2968 36.2223 32.4169 36.624 31.4998 36.5671C30.0401 36.4743 28.839 35.2014 28.6438 33.5401C28.5085 32.3891 28.3161 31.3998 28.0719 30.5994C27.723 29.4558 27.2628 28.4651 26.7036 27.6546C26.6987 27.6477 26.6939 27.6407 26.6889 27.6338C26.6743 27.6136 26.6604 27.5929 26.6465 27.5725L26.6358 27.5567C26.6308 27.5494 26.6257 27.542 26.6205 27.5348C25.3306 25.7354 23.8049 25.1892 22.7694 24.9349C22.675 24.9117 22.5754 24.889 22.4732 24.8668C22.4483 24.8614 22.4232 24.8559 22.398 24.8505C22.2947 24.8286 22.1889 24.8069 22.0782 24.7859C22.0725 24.7849 22.0663 24.7838 22.0605 24.7827C21.954 24.7626 21.8432 24.7431 21.73 24.7239C21.701 24.719 21.6719 24.7141 21.6427 24.7092C21.523 24.6894 21.4005 24.6699 21.2736 24.6512C21.2636 24.6497 21.2531 24.6483 21.2431 24.6468C21.1226 24.6291 20.9984 24.6119 20.8717 24.595C20.8411 24.5911 20.8107 24.5869 20.78 24.5829C20.7509 24.5791 20.723 24.5753 20.6938 24.5716L20.7154 24.5165C20.7747 24.366 20.8343 24.2171 20.8951 24.0723C23.032 18.9715 25.2844 18.9715 26.0246 18.9715C26.1114 18.9715 26.1949 18.976 26.2799 18.9784C27.0696 19.3395 27.8139 19.7789 28.4947 20.2863C28.8379 20.542 29.2832 20.5378 29.6227 20.2753C29.8718 20.0824 30.1312 19.8945 30.3978 19.7102C30.4532 19.672 30.509 19.6341 30.565 19.5963C30.6477 19.5405 30.7312 19.4854 30.8155 19.4303C30.8693 19.3952 30.9227 19.36 30.9771 19.3253C31.0777 19.2611 31.1798 19.1978 31.2825 19.1348C31.3233 19.1098 31.3632 19.0843 31.4044 19.0596C31.538 18.979 31.6737 18.8996 31.8108 18.821C31.8721 18.7859 31.9344 18.7515 31.9964 18.7167C32.0818 18.6688 32.1675 18.6212 32.2541 18.5743C32.3222 18.5373 32.3909 18.5006 32.4598 18.4641C32.5453 18.4188 32.6317 18.3742 32.7183 18.3297C32.7857 18.295 32.8529 18.2603 32.9211 18.2263C33.0322 18.1706 33.1447 18.1159 33.2577 18.0616C33.2973 18.0426 33.336 18.023 33.3759 18.0041C33.7956 17.8051 34.0351 17.3233 33.9944 16.8353C33.985 16.7227 33.9607 16.6098 33.9202 16.4998C33.7043 15.9139 33.1106 15.6376 32.5941 15.8828C32.3594 15.994 32.1294 16.109 31.9016 16.2256C31.8657 16.2438 31.8301 16.2622 31.7944 16.2807C31.5689 16.3974 31.3463 16.5165 31.1278 16.6385C31.1121 16.6472 31.0967 16.6563 31.081 16.6652C30.8763 16.7801 30.6753 16.8975 30.4771 17.0167C30.444 17.0367 30.4107 17.0563 30.3778 17.0762C30.1746 17.2001 29.9748 17.326 29.7787 17.4543C29.766 17.4626 29.7525 17.4706 29.7398 17.4789C28.7562 16.9928 27.67 16.7319 26.447 16.6831C26.2931 16.6764 26.1564 16.673 26.0246 16.673C25.3057 16.673 24.6242 16.804 23.9781 17.0683C22.0398 17.8605 20.4201 19.8496 19.0641 23.0861C18.9871 23.2701 18.9115 23.4587 18.8369 23.6502L18.8275 23.6744C18.7769 23.8044 18.7272 23.9353 18.6774 24.0691C18.672 24.0838 18.6663 24.0984 18.6609 24.1133C18.6577 24.1222 18.6544 24.1306 18.651 24.1395C18.6115 24.2466 18.5746 24.3531 18.5371 24.4597C18.5116 24.5318 18.4857 24.6035 18.4608 24.6764L18.4496 24.7091C18.3967 24.8628 18.3454 25.0162 18.2959 25.1684C18.2958 25.1689 18.2956 25.1694 18.2955 25.1698C18.295 25.1715 18.2943 25.1732 18.2937 25.175C18.2937 25.1752 18.2936 25.1754 18.2936 25.1755C17.8382 26.5809 17.5237 27.9066 17.3179 28.9217C17.3122 28.9495 17.3071 28.976 17.3017 29.0032C17.2938 29.0425 17.2858 29.0821 17.2783 29.1203C17.2743 29.1404 17.2707 29.1592 17.2669 29.179C17.2458 29.2871 17.2258 29.3919 17.2074 29.4911C17.2032 29.5135 17.1994 29.5347 17.1953 29.5566C17.175 29.667 17.1564 29.7713 17.1393 29.8694C17.129 29.9287 17.1193 29.9855 17.1101 30.0401C17.1027 30.0843 17.0956 30.1267 17.089 30.1675C17.0604 30.3416 17.0385 30.4854 17.0227 30.5948C17.0184 30.6243 17.0146 30.651 17.0111 30.6752C17.0002 30.7513 16.9935 30.803 16.9905 30.8262C16.9894 30.8343 16.9887 30.84 16.9886 30.8412C16.7888 32.5426 15.4979 33.8256 13.9855 33.8256C13.8502 33.8256 13.713 33.8153 13.5778 33.7948C11.918 33.5441 10.7478 31.8059 10.9693 29.9206C10.97 29.9151 10.9712 29.9048 10.9727 29.8922C10.973 29.8902 10.9731 29.889 10.9734 29.8868C10.9735 29.8862 10.9736 29.885 10.9736 29.8844C11.0079 29.6087 11.2338 27.8843 11.8038 25.5794C12.0361 24.6402 12.2935 23.731 12.5745 22.858C12.5749 22.8566 12.5755 22.8554 12.5759 22.854C12.642 22.6485 12.7097 22.4452 12.7784 22.2438C12.7846 22.2258 12.7904 22.2078 12.7967 22.1897C12.8646 21.9915 12.9338 21.7956 13.0042 21.6013C13.0156 21.5699 13.0275 21.5382 13.039 21.5069C13.0966 21.3495 13.155 21.1938 13.2143 21.0393C13.2328 20.9911 13.2511 20.9431 13.2699 20.8947C13.3412 20.7111 13.4133 20.5289 13.4869 20.3494C13.5567 20.1789 13.6279 20.0108 13.6996 19.8443C13.7331 19.7666 13.7675 19.6901 13.8015 19.6132C13.8392 19.528 13.8765 19.4423 13.9147 19.358C13.9599 19.2584 14.0057 19.1601 14.0516 19.0619C14.0788 19.0037 14.1057 18.9454 14.1331 18.8877C14.1854 18.7779 14.2383 18.6691 14.2916 18.5608C14.3131 18.5172 14.3345 18.4735 14.356 18.4302C14.4134 18.3151 14.4714 18.2013 14.53 18.0882C14.5478 18.0536 14.5658 18.0193 14.5838 17.9849C14.6453 17.8675 14.7072 17.7512 14.7697 17.6361C14.7851 17.6078 14.8007 17.5797 14.8161 17.5514C14.8813 17.4325 14.9472 17.3145 15.0136 17.1982C15.0256 17.1774 15.0377 17.1566 15.0498 17.1358C15.1204 17.013 15.1916 16.8913 15.2634 16.7717C16.0494 15.463 16.9145 14.3265 17.8527 13.3751C18.1463 13.0776 18.2613 12.6142 18.1479 12.1868L16.5231 6.0667C16.4042 5.61866 16.4461 5.14484 16.6413 4.73255C16.8364 4.32042 17.1616 4.01891 17.5566 3.88404C18.3721 3.6057 19.2356 4.13138 19.481 5.05616L20.7383 9.79174C20.818 10.092 21.0025 10.3423 21.2489 10.4847C21.4951 10.6271 21.7825 10.649 22.0432 10.5456C22.5709 10.3364 23.1156 10.1684 23.6622 10.0461C24.1373 9.93996 24.4797 9.46752 24.4797 8.91836V4.76953C24.4797 3.80348 25.1725 3.01772 26.0243 3.01772C26.8761 3.01772 27.5689 3.80348 27.5689 4.76953V8.84425C27.5689 9.41443 27.9374 9.89838 28.4348 9.98154C29.0098 10.0776 29.58 10.2106 30.1299 10.3771C30.6591 10.5371 31.204 10.1921 31.3618 9.59794L32.5679 5.0557C32.6868 4.60766 32.9525 4.23894 33.3159 4.01753C33.6794 3.79642 34.097 3.74871 34.4924 3.88358C34.8874 4.01845 35.2125 4.3198 35.4076 4.73209C35.6028 5.14438 35.6448 5.61805 35.5258 6.06624L34.1138 11.3861C33.987 11.8636 34.1463 12.3793 34.5079 12.663C35.1656 13.1787 35.7892 13.7633 36.3727 14.4101C36.3667 14.4119 36.3607 14.4139 36.3548 14.4159C36.2253 14.4569 36.0953 14.4985 35.9643 14.5417C35.4267 14.7191 35.1178 15.3568 35.2741 15.9664C35.3132 16.1189 35.3776 16.255 35.4608 16.3709C35.7101 16.7183 36.1272 16.882 36.5304 16.7493C36.6803 16.6997 36.8316 16.6514 36.9841 16.6037C37.0012 16.5983 37.0183 16.5929 37.0354 16.5877C37.3464 16.491 37.6622 16.398 37.9805 16.3098C37.9872 16.308 37.9939 16.3061 38.0005 16.3043C38.1565 16.261 38.3131 16.2191 38.47 16.1782C40.9435 15.5326 42.8685 15.3343 43.3013 15.2957C44.9719 15.1483 46.436 16.5668 46.5672 18.4596C46.6982 20.3506 45.4485 22.0119 43.7789 22.1632C43.4025 22.1983 42.8485 22.2728 42.1794 22.3926Z" fill="url(#paint1_linear_158_5904)"/>
<path d="M49.8189 66.1529C49.2737 66.0074 48.7282 66.3895 48.5996 67.0074C47.4247 72.649 43.9138 75.76 37.5512 76.7977C25.2175 78.8088 10.8197 63.9144 6.66296 49.7592C6.48613 49.1568 5.91251 48.8315 5.38109 49.0317C4.84994 49.2323 4.56286 49.8833 4.73968 50.4856C6.91554 57.8947 11.8091 65.6309 17.8299 71.18C23.5681 76.4686 29.6599 79.2794 35.2596 79.2794C36.1324 79.2794 36.994 79.2111 37.8395 79.0732C41.6024 78.4596 44.5934 77.0872 46.7293 74.9945C48.638 73.1245 49.931 70.6149 50.5724 67.5357C50.701 66.9179 50.3638 66.2988 49.8189 66.1529Z" fill="url(#paint2_linear_158_5904)"/>
<defs>
<linearGradient id="paint0_linear_158_5904" x1="20.1024" y1="40.8887" x2="20.1024" y2="65.6933" gradientUnits="userSpaceOnUse">
<stop stop-color="#2E9CB7"/>
<stop offset="1" stop-color="#5DC19D"/>
</linearGradient>
<linearGradient id="paint1_linear_158_5904" x1="26.0009" y1="0.71875" x2="26.0009" y2="64.5494" gradientUnits="userSpaceOnUse">
<stop stop-color="#2E9CB7"/>
<stop offset="1" stop-color="#5DC19D"/>
</linearGradient>
<linearGradient id="paint2_linear_158_5904" x1="27.6436" y1="48.9727" x2="27.6436" y2="79.2794" gradientUnits="userSpaceOnUse">
<stop stop-color="#2E9CB7"/>
<stop offset="1" stop-color="#5DC19D"/>
</linearGradient>
</defs>
</svg>
