<svg width="67" height="73" viewBox="0 0 67 73" fill="none" xmlns="http://www.w3.org/2000/svg">
<path d="M65.557 15.9809C65.4174 15.8405 65.2285 15.7617 65.0317 15.7617C64.8348 15.7617 64.646 15.8405 64.5064 15.9809L43.8672 34.1215C41.2418 36.423 39.6017 39.6652 39.2923 43.1654L36.7218 71.3146C36.713 71.4136 36.7235 71.5133 36.7528 71.6082C36.7821 71.703 36.8296 71.7911 36.8926 71.8674C36.9555 71.9437 37.0327 72.0067 37.1198 72.0528C37.2068 72.0989 37.302 72.1272 37.3998 72.1361C37.5974 72.1541 37.794 72.0919 37.9463 71.9633C38.0986 71.8347 38.1942 71.6502 38.212 71.4503L40.7825 43.3011C41.0638 40.1888 42.5242 37.3073 44.8582 35.2595L65.4825 17.0737C65.5608 17.0085 65.6251 16.9279 65.6715 16.8368C65.7179 16.7456 65.7455 16.6458 65.7524 16.5435C65.7594 16.4412 65.7457 16.3386 65.7121 16.2418C65.6785 16.1451 65.6257 16.0563 65.557 15.9809Z" fill="url(#paint0_linear_158_5895)" stroke="url(#paint1_linear_158_5895)" stroke-width="0.6"/>
<path d="M27.1126 21.8882C26.4611 22.5563 26.0262 23.4092 25.8657 24.3335C25.7052 25.2578 25.8269 26.2096 26.2144 27.0622C26.6019 27.9149 27.2369 28.6279 28.0349 29.1065C28.8329 29.5851 29.7561 29.8065 30.6816 29.7414C30.6265 30.5078 30.7618 31.276 31.0753 31.9759C31.3888 32.6759 31.8705 33.2854 32.4765 33.7489C33.0825 34.2123 33.7935 34.515 34.5448 34.6294C35.296 34.7437 36.0636 34.666 36.7776 34.4035C37.4916 34.1409 38.1293 33.7018 38.6326 33.1262C39.1358 32.5505 39.4887 31.8566 39.6589 31.1077C39.8292 30.3588 39.8114 29.5787 39.6073 28.8385C39.4032 28.0983 39.0192 27.4215 38.4902 26.8699L55.389 9.88241C55.4589 9.81234 55.5143 9.72899 55.5521 9.63715C55.5899 9.54531 55.6094 9.4468 55.6094 9.34731C55.6094 9.24782 55.5899 9.14931 55.5521 9.05747C55.5143 8.96563 55.4589 8.88227 55.389 8.81221C55.2494 8.67184 55.0606 8.59305 54.8637 8.59305C54.6669 8.59305 54.478 8.67184 54.3384 8.81221L36.8883 26.38C36.8111 26.4582 36.7519 26.5526 36.7147 26.6565C36.6776 26.7604 36.6635 26.8713 36.6735 26.9813C36.6834 27.0913 36.7172 27.1978 36.7723 27.2931C36.8275 27.3885 36.9027 27.4704 36.9926 27.5331C37.4029 27.8156 37.7383 28.1955 37.9696 28.6396C38.2008 29.0838 38.3207 29.5785 38.3189 30.0805C38.3173 30.5327 38.2181 30.979 38.0283 31.3884C37.8384 31.7977 37.5625 32.1602 37.2197 32.4505C36.877 32.7407 36.4757 32.9518 36.0439 33.0688C35.6121 33.1859 35.1603 33.2062 34.7199 33.1282C34.2796 33.0503 33.8614 32.876 33.4946 32.6176C33.1278 32.3591 32.8212 32.0228 32.5962 31.6321C32.3713 31.2413 32.2335 30.8056 32.1923 30.3553C32.1512 29.9051 32.2078 29.4512 32.3581 29.0254C32.4157 28.8873 32.4313 28.7349 32.4028 28.5878C32.3744 28.4408 32.3032 28.3056 32.1984 28.1996C32.0937 28.0936 31.96 28.0216 31.8146 27.9929C31.6692 27.9641 31.5186 27.9798 31.382 28.0381C30.8648 28.2284 30.3064 28.2745 29.7655 28.1717C29.2245 28.0688 28.7209 27.8207 28.3073 27.4534C27.8936 27.086 27.5853 26.613 27.4145 26.0837C27.2436 25.5545 27.2166 24.9885 27.3363 24.445C27.4559 23.9016 27.7178 23.4007 28.0946 22.9948C28.4713 22.5889 28.949 22.2929 29.4777 22.1378C30.0063 21.9828 30.5664 21.9743 31.0994 22.1134C31.6324 22.2524 32.1186 22.5339 32.5071 22.9283C32.8797 23.3051 32.9318 23.6367 33.4012 23.6819C33.5104 23.6921 33.6204 23.6778 33.7234 23.64C33.8264 23.6022 33.92 23.5419 33.9973 23.4634L51.0973 6.18193C51.1671 6.11187 51.2225 6.02852 51.2604 5.93668C51.2982 5.84484 51.3177 5.74633 51.3177 5.64684C51.3177 5.54734 51.2982 5.44884 51.2604 5.357C51.2225 5.26515 51.1671 5.1818 51.0973 5.11174C50.9577 4.97137 50.7688 4.89258 50.572 4.89258C50.3751 4.89258 50.1863 4.97137 50.0467 5.11174L33.5205 21.843C32.6602 20.9984 31.5062 20.5298 30.3074 20.5383C29.1086 20.5467 27.9611 21.0316 27.1126 21.8882Z" fill="url(#paint2_linear_158_5895)" stroke="url(#paint3_linear_158_5895)" stroke-width="0.6"/>
<path d="M34.0621 36.4575C27.6692 33.1113 28.9359 34.0383 24.3163 29.5012C23.8286 29.05 23.2064 28.7755 22.5477 28.721C21.8889 28.6665 21.2309 28.835 20.6772 29.2C20.1235 29.5651 19.7054 30.1059 19.4888 30.7376C19.2722 31.3692 19.2693 32.0557 19.4806 32.6892L19.6743 33.2243C20.4565 35.3809 21.8607 37.2503 23.7053 38.5904L24.4131 39.1104V68.277C24.4131 68.4769 24.4916 68.6686 24.6314 68.81C24.7711 68.9513 24.9606 69.0307 25.1582 69.0307C25.3558 69.0307 25.5453 68.9513 25.6851 68.81C25.8248 68.6686 25.9033 68.4769 25.9033 68.277V38.7034C25.9036 38.5845 25.8761 38.4672 25.823 38.3611C25.7699 38.255 25.6927 38.1631 25.5978 38.093L24.577 37.3393C22.9769 36.1727 21.7554 34.5516 21.0676 32.6817L20.8739 32.1541C20.7764 31.8401 20.7833 31.5025 20.8933 31.1928C21.0034 30.8831 21.2106 30.6183 21.4834 30.4389C21.7562 30.2595 22.0795 30.1753 22.404 30.1993C22.7285 30.2232 23.0364 30.3539 23.2806 30.5714C28.0417 35.2517 26.8868 34.3925 33.3766 37.784C33.5896 37.9019 33.7533 38.0938 33.8373 38.3243C33.9213 38.5548 33.9201 38.8082 33.8338 39.0378C33.7476 39.2674 33.5821 39.4577 33.368 39.5736C33.1538 39.6894 32.9055 39.723 32.6688 39.6681L30.9253 39.2159C30.8132 39.1866 30.6959 39.1841 30.5827 39.2086C30.4695 39.233 30.3635 39.2839 30.2731 39.357C30.1828 39.4302 30.1105 39.5236 30.062 39.6299C30.0135 39.7363 29.9902 39.8525 29.9939 39.9696V68.262C29.9939 68.4619 30.0724 68.6536 30.2121 68.7949C30.3519 68.9362 30.5414 69.0156 30.739 69.0156C30.9366 69.0156 31.1261 68.9362 31.2658 68.7949C31.4056 68.6536 31.4841 68.4619 31.4841 68.262V40.9192L32.3335 41.1377C32.9291 41.3012 33.5636 41.235 34.1136 40.9519C34.6637 40.6688 35.0902 40.1891 35.3102 39.6059C35.5303 39.0227 35.5282 38.3775 35.3045 37.7957C35.0807 37.2139 34.6512 36.737 34.0994 36.4575H34.0621Z" fill="url(#paint4_linear_158_5895)" stroke="url(#paint5_linear_158_5895)" stroke-width="0.6"/>
<path d="M17.9386 48.3873L16.888 31.5053C16.7334 29.0318 17.1803 26.5576 18.1895 24.2992C19.1987 22.0407 20.7396 20.0668 22.6774 18.5499L43.8978 1.87141C44.0539 1.74849 44.1553 1.56786 44.1798 1.36928C44.2042 1.1707 44.1497 0.97043 44.0281 0.812522C43.9066 0.654614 43.728 0.552007 43.5317 0.527273C43.3354 0.502539 43.1374 0.557703 42.9813 0.680631L21.761 17.3441C19.6325 19.0132 17.9405 21.184 16.8326 23.667C15.7247 26.15 15.2347 28.8696 15.4053 31.5882L16.3814 47.3774C14.6739 46.4983 12.7669 46.0916 10.8538 46.1985C8.94078 46.3055 7.08972 46.9223 5.48841 47.9864C3.88709 49.0505 2.5925 50.5241 1.73593 52.2576C0.879367 53.9911 0.491303 55.923 0.611104 57.8572C0.730904 59.7914 1.35431 61.6592 2.41808 63.271C3.48185 64.8829 4.94815 66.1814 6.66824 67.0351C8.38833 67.8887 10.301 68.267 12.2123 68.1316C14.1236 67.9962 15.9655 67.352 17.5512 66.2641L17.8194 70.5826C17.8322 70.7825 17.9231 70.969 18.0719 71.1012C18.2207 71.2333 18.4153 71.3003 18.6129 71.2873C18.8105 71.2743 18.995 71.1824 19.1256 71.0319C19.2563 70.8814 19.3224 70.6845 19.3096 70.4846L19.0041 65.096C20.1414 63.9917 21.0265 62.6495 21.5977 61.1632C22.1688 59.677 22.4121 58.0824 22.3106 56.4911C22.2092 54.8999 21.7653 53.3502 21.0102 51.9504C20.255 50.5507 19.2067 49.3347 17.9386 48.3873ZM17.7076 64.2142C16.3986 65.4095 14.7829 66.2073 13.0459 66.5162C11.309 66.825 9.52119 66.6323 7.88758 65.9603C6.25396 65.2882 4.84073 64.164 3.81001 62.7165C2.77929 61.269 2.17283 59.557 2.06021 57.7768C1.94759 55.9966 2.33336 54.2204 3.17327 52.6519C4.01319 51.0833 5.27322 49.786 6.80882 48.9088C8.34442 48.0316 10.0934 47.61 11.8551 47.6924C13.6167 47.7748 15.3198 48.3578 16.7688 49.3746C17.928 50.1915 18.8902 51.2623 19.5837 52.5073C20.2772 53.7523 20.6842 55.1394 20.7744 56.5655C20.8646 57.9916 20.6357 59.4199 20.1048 60.7442C19.5738 62.0684 18.7544 63.2545 17.7076 64.2142Z" fill="url(#paint6_linear_158_5895)" stroke="url(#paint7_linear_158_5895)" stroke-width="0.6"/>
<path d="M16.0231 54.9444H13.6537V52.5251C13.6537 52.3253 13.5752 52.1336 13.4354 51.9922C13.2957 51.8509 13.1062 51.7715 12.9086 51.7715H10.0027C9.80507 51.7715 9.61555 51.8509 9.47582 51.9922C9.33609 52.1336 9.25759 52.3253 9.25759 52.5251V54.9444H6.85838C6.66077 54.9444 6.47125 55.0238 6.33151 55.1651C6.19178 55.3065 6.11328 55.4982 6.11328 55.6981V58.6373C6.11328 58.8372 6.19178 59.0289 6.33151 59.1702C6.47125 59.3116 6.66077 59.391 6.85838 59.391H9.25759V61.8178C9.25759 62.0177 9.33609 62.2094 9.47582 62.3507C9.61555 62.492 9.80507 62.5714 10.0027 62.5714H12.9086C13.1062 62.5714 13.2957 62.492 13.4354 62.3507C13.5752 62.2094 13.6537 62.0177 13.6537 61.8178V59.391H16.0231C16.2207 59.391 16.4102 59.3116 16.5499 59.1702C16.6897 59.0289 16.7682 58.8372 16.7682 58.6373V55.6981C16.7682 55.4982 16.6897 55.3065 16.5499 55.1651C16.4102 55.0238 16.2207 54.9444 16.0231 54.9444ZM15.278 57.8837H12.9086C12.7109 57.8837 12.5214 57.9631 12.3817 58.1044C12.242 58.2457 12.1635 58.4374 12.1635 58.6373V61.0641H10.7478V58.6373C10.7478 58.4374 10.6693 58.2457 10.5295 58.1044C10.3898 57.9631 10.2003 57.8837 10.0027 57.8837H7.60347V56.4517H10.0027C10.2003 56.4517 10.3898 56.3723 10.5295 56.231C10.6693 56.0896 10.7478 55.8979 10.7478 55.6981V53.2788H12.1635V55.6981C12.1635 55.8979 12.242 56.0896 12.3817 56.231C12.5214 56.3723 12.7109 56.4517 12.9086 56.4517H15.278V57.8837Z" fill="url(#paint8_linear_158_5895)" stroke="url(#paint9_linear_158_5895)" stroke-width="0.6"/>
<defs>
<linearGradient id="paint0_linear_158_5895" x1="51.2365" y1="15.7617" x2="51.2365" y2="72.1391" gradientUnits="userSpaceOnUse">
<stop stop-color="#2E9CB7"/>
<stop offset="1" stop-color="#5DC19D"/>
</linearGradient>
<linearGradient id="paint1_linear_158_5895" x1="51.2365" y1="15.7617" x2="51.2365" y2="72.1391" gradientUnits="userSpaceOnUse">
<stop stop-color="#2E9CB7"/>
<stop offset="1" stop-color="#5DC19D"/>
</linearGradient>
<linearGradient id="paint2_linear_158_5895" x1="40.7031" y1="4.89258" x2="40.7031" y2="34.6806" gradientUnits="userSpaceOnUse">
<stop stop-color="#2E9CB7"/>
<stop offset="1" stop-color="#5DC19D"/>
</linearGradient>
<linearGradient id="paint3_linear_158_5895" x1="40.7031" y1="4.89258" x2="40.7031" y2="34.6806" gradientUnits="userSpaceOnUse">
<stop stop-color="#2E9CB7"/>
<stop offset="1" stop-color="#5DC19D"/>
</linearGradient>
<linearGradient id="paint4_linear_158_5895" x1="27.399" y1="28.7109" x2="27.399" y2="69.0307" gradientUnits="userSpaceOnUse">
<stop stop-color="#2E9CB7"/>
<stop offset="1" stop-color="#5DC19D"/>
</linearGradient>
<linearGradient id="paint5_linear_158_5895" x1="27.399" y1="28.7109" x2="27.399" y2="69.0307" gradientUnits="userSpaceOnUse">
<stop stop-color="#2E9CB7"/>
<stop offset="1" stop-color="#5DC19D"/>
</linearGradient>
<linearGradient id="paint6_linear_158_5895" x1="22.3877" y1="0.521484" x2="22.3877" y2="71.2889" gradientUnits="userSpaceOnUse">
<stop stop-color="#2E9CB7"/>
<stop offset="1" stop-color="#5DC19D"/>
</linearGradient>
<linearGradient id="paint7_linear_158_5895" x1="22.3877" y1="0.521484" x2="22.3877" y2="71.2889" gradientUnits="userSpaceOnUse">
<stop stop-color="#2E9CB7"/>
<stop offset="1" stop-color="#5DC19D"/>
</linearGradient>
<linearGradient id="paint8_linear_158_5895" x1="11.4407" y1="51.7715" x2="11.4407" y2="62.5714" gradientUnits="userSpaceOnUse">
<stop stop-color="#2E9CB7"/>
<stop offset="1" stop-color="#5DC19D"/>
</linearGradient>
<linearGradient id="paint9_linear_158_5895" x1="11.4407" y1="51.7715" x2="11.4407" y2="62.5714" gradientUnits="userSpaceOnUse">
<stop stop-color="#2E9CB7"/>
<stop offset="1" stop-color="#5DC19D"/>
</linearGradient>
</defs>
</svg>
