<svg width="74" height="73" viewBox="0 0 74 73" fill="none" xmlns="http://www.w3.org/2000/svg">
<path d="M73.0498 27.2252C72.9185 26.8622 72.7414 26.5056 72.5088 26.136C72.5035 26.1279 72.4985 26.1199 72.4931 26.1117L72.321 25.8528C72.3166 25.8462 72.3119 25.8394 72.3073 25.8328C72.2487 25.7485 72.1885 25.6669 72.1259 25.5871C71.9959 25.4211 71.858 25.2655 71.7163 25.1248L71.3419 24.7529L71.6857 24.3523C71.9161 24.0835 72.1085 23.7623 72.3087 23.3102C72.312 23.3027 72.3152 23.2954 72.3185 23.2878C72.4056 23.0797 72.4878 22.8765 72.5353 22.6843C72.5925 22.459 72.6377 22.2301 72.672 21.9918C72.8126 21.065 72.6902 20.0462 72.3143 19.0353C72.2219 18.794 72.1025 18.5618 71.9881 18.3447C71.9841 18.3371 71.9801 18.3297 71.9759 18.3222L71.9422 18.2615C71.8293 18.0579 71.7226 17.8657 71.6063 17.7151L71.5949 17.7001C71.4453 17.4997 71.2845 17.3043 71.1212 17.1238C70.9414 16.9231 70.7893 16.7772 70.6356 16.6567C70.1826 16.2956 69.8593 16.0867 69.5298 15.9399C69.1399 15.7617 68.7456 15.6328 68.3582 15.5567L67.8462 15.4561L67.9038 14.9373C67.9474 14.5441 67.943 14.126 67.8918 13.7046C67.8512 13.3451 67.7546 12.976 67.5684 12.4709C67.5654 12.4628 67.5626 12.455 67.5594 12.4471C67.229 11.6077 66.6736 10.8221 65.9626 10.1837C65.58 9.8328 65.1465 9.56619 64.8114 9.3731C64.8035 9.36866 64.7955 9.36394 64.7875 9.35965C64.4403 9.17028 64.0494 9.01566 63.5584 8.87277C63.2148 8.77265 62.8242 8.71587 62.3291 8.69384C62.3226 8.69356 62.316 8.69341 62.3096 8.69327C62.2468 8.69155 62.1846 8.69055 62.1227 8.69055C62.0235 8.69055 61.8769 8.69313 61.728 8.70686C61.5265 8.72788 61.3266 8.75964 61.1338 8.8014L60.5848 8.9204L60.4602 8.37259C60.0998 6.78653 58.8674 5.34263 57.245 4.60459C56.4502 4.24272 55.6168 4.05907 54.768 4.05907C53.9014 4.05907 53.0582 4.25688 52.3295 4.63105L51.8267 4.88908L51.5666 4.38719C50.8034 2.91554 49.3317 1.8318 47.6335 1.48852C47.2226 1.40414 46.8046 1.36137 46.3913 1.36137C45.0811 1.36137 43.835 1.78746 42.8826 2.56111L42.4353 2.92441L42.0789 2.47157C41.8389 2.16663 41.5566 1.88672 41.245 1.64386C40.9355 1.39956 40.5938 1.18144 40.2295 0.996212C40.2164 0.989633 40.2032 0.983054 40.1896 0.976903C39.3683 0.598015 38.5336 0.403493 37.7087 0.399059C37.6757 0.398487 37.5666 0.396484 37.5275 0.396484C36.753 0.396484 35.9625 0.564259 35.1781 0.89509C35.1645 0.900811 35.1511 0.906818 35.1378 0.912968C34.7682 1.08589 34.4173 1.29415 34.0998 1.52814C33.7795 1.76171 33.4908 2.03004 33.2415 2.32583L32.8702 2.7665L32.4351 2.38833C31.4529 1.53415 30.1463 1.06387 28.756 1.06387C28.4149 1.06387 28.0692 1.0929 27.7289 1.15011C26.0216 1.4366 24.5149 2.46414 23.6986 3.89859L23.4197 4.38833L22.9281 4.113C22.1398 3.67146 21.2193 3.43803 20.2657 3.43803C19.5079 3.43803 18.76 3.58407 18.0429 3.8717C18.036 3.87442 18.0289 3.87742 18.0218 3.88028C17.5829 4.06651 17.1867 4.27891 16.8446 4.51191C16.836 4.51777 16.8275 4.52364 16.8191 4.52979C16.47 4.78138 16.1481 5.06201 15.8628 5.3638C15.8536 5.37338 15.8449 5.38297 15.8363 5.39283C15.2575 6.0482 14.8604 6.75163 14.6565 7.48352L14.5063 8.02246L13.9655 7.88C13.5498 7.77058 13.1552 7.71065 12.7922 7.7025C12.7868 7.70235 12.7816 7.70235 12.7763 7.70235L12.6904 7.70164C12.3145 7.70164 11.9277 7.73868 11.5408 7.81177C11.5318 7.81349 11.5231 7.8152 11.5142 7.81721C11.1245 7.90031 10.7206 8.03561 10.27 8.235C9.912 8.39705 9.52396 8.63549 9.08314 8.96388C9.07527 8.96975 9.0674 8.97576 9.05968 8.98191C8.73543 9.23679 8.41447 9.55432 8.0782 9.95323C8.06976 9.96324 8.06147 9.97354 8.05317 9.98384C7.80072 10.3048 7.56715 10.6781 7.35876 11.0938C7.35246 11.1062 7.34646 11.1189 7.34059 11.1315C6.97629 11.9285 6.80551 12.7592 6.84656 13.534L6.8756 14.079L6.33237 14.129C6.14285 14.1465 5.94833 14.1754 5.75424 14.2153C5.74065 14.218 5.72706 14.2211 5.71362 14.2244C5.54398 14.2655 5.35847 14.3231 5.15494 14.3982C4.69109 14.5727 4.31692 14.7664 4.01784 14.9852L4.00225 14.9972C3.561 15.3074 3.23089 15.6021 2.972 15.9142L2.95555 15.9336C2.80165 16.1111 2.65247 16.2996 2.51202 16.4935C2.49929 16.5112 2.48684 16.5292 2.47497 16.5477C2.35368 16.737 2.23239 16.949 2.10695 17.1912C1.65812 18.0485 1.42184 19.0647 1.44172 20.0586C1.45187 20.4598 1.52224 20.9037 1.65083 21.3781C1.65355 21.3883 1.65655 21.3984 1.65941 21.4084C1.76811 21.7699 1.94118 22.1442 2.17432 22.5212L2.4435 22.9566L2.03787 23.269C0.968571 24.0924 -0.144637 25.9245 0.236683 28.3774C0.239972 28.3976 0.243405 28.4178 0.247839 28.438C0.305337 28.711 0.375708 28.9849 0.460526 29.2638L0.486557 29.3462C0.531469 29.4899 0.552351 29.5549 0.586679 29.636C0.645894 29.7723 0.707826 29.906 0.768757 30.0296C0.886042 30.2632 1.01277 30.5098 1.15794 30.7289C1.16653 30.7419 1.17539 30.7546 1.1844 30.7672C1.33902 30.9816 1.50622 31.1914 1.67543 31.3827L1.72005 31.432C1.79414 31.5145 1.85107 31.5769 1.90828 31.6317C1.9193 31.6421 1.93031 31.6523 1.94175 31.6623C2.03529 31.7451 2.12984 31.8242 2.22424 31.8992C2.40603 32.0436 2.59297 32.1762 2.77991 32.2933C2.80208 32.3072 2.82482 32.3205 2.84771 32.3328C3.23418 32.5402 3.63381 32.6898 4.03515 32.7781L4.48513 32.8771L4.48069 33.3379C4.47654 33.7681 4.53218 34.2072 4.6416 34.6077C4.64561 34.6227 4.65004 34.6375 4.65476 34.6524C4.72198 34.8642 4.80437 35.0802 4.89906 35.293C4.94397 35.394 4.99174 35.4952 5.04295 35.5964C5.05281 35.6158 5.06311 35.635 5.07413 35.6537C5.12776 35.7465 5.18483 35.8371 5.24448 35.9292C5.37878 36.135 5.52753 36.3404 5.68701 36.5396C5.69688 36.5521 5.70718 36.5642 5.71748 36.5761C5.85407 36.733 6.01455 36.8959 6.24326 37.1085C6.3431 37.2002 6.44579 37.2907 6.54691 37.3754C6.63159 37.4446 6.70782 37.4969 6.76918 37.539L6.85371 37.5975C7.06669 37.7427 7.29067 37.8814 7.51952 38.0097C7.53654 38.0193 7.55371 38.0283 7.57116 38.037C8.44293 38.4694 9.34789 38.6981 10.1879 38.6981C10.2367 38.6981 10.2849 38.6975 10.3457 38.6954C10.5645 38.6903 10.7819 38.6748 10.9922 38.6486C11.0005 38.6478 11.0088 38.6465 11.0172 38.6453C11.2337 38.6137 11.4516 38.5581 11.6079 38.5158C12.0442 38.3932 12.4052 38.2459 12.7111 38.0649L13.1987 37.777L13.4876 38.264C14.3123 39.6549 15.9001 40.6674 17.6291 40.9064C17.91 40.9459 18.1945 40.9657 18.4742 40.9657C19.8788 40.9657 21.2163 40.4678 22.2407 39.5637L22.6755 39.1801L23.0497 39.623C24.0915 40.8556 25.6497 41.5943 27.3253 41.6501C27.4041 41.6526 27.4823 41.6507 27.5609 41.6503C27.1306 42.4789 26.895 43.4094 26.895 44.3782C26.895 47.2528 28.9561 49.6543 31.6781 50.1848C31.9576 55.4535 35.1153 60.2669 39.8858 62.5927L44.1141 64.6545L44.1476 64.6706C45.6012 65.3712 46.5044 66.7791 46.5044 68.3448C46.5044 70.5066 48.2633 72.2654 50.425 72.2654H51.8343C53.9961 72.2654 55.7549 70.5066 55.7549 68.3448C55.7549 65.2262 54.627 62.2444 52.6872 59.8927C53.0396 59.9173 53.3934 59.9312 53.7475 59.9312C53.956 59.9312 54.165 59.9269 54.3737 59.9182C62.4496 59.5832 68.7719 52.982 68.7667 44.8899C68.7664 44.2514 68.2487 43.7344 67.6105 43.7344C67.6103 43.7344 67.61 43.7344 67.6097 43.7344C66.9711 43.7347 66.4538 44.2529 66.4542 44.8915C66.4585 51.7385 61.11 57.3243 54.2779 57.6076C52.1634 57.6955 50.05 57.2571 48.1686 56.3397L43.9403 54.2779C42.4764 53.564 41.4265 52.2142 41.0554 50.6621C41.0652 50.6614 41.0751 50.6616 41.0848 50.6608C41.9918 50.5883 42.8035 50.3591 43.4935 49.982C44.2218 49.5879 44.832 49.079 45.3077 48.4694L45.6603 48.0173L46.1087 48.3747C46.7078 48.8524 47.4327 49.2176 48.2051 49.431C48.2184 49.4347 48.2317 49.4382 48.2451 49.4413C48.7288 49.5564 49.2197 49.6148 49.7042 49.6148C50.056 49.6148 50.416 49.5833 50.7454 49.5238C50.7506 49.523 50.7556 49.522 50.7607 49.5208C51.6796 49.342 52.4844 49.0069 53.1425 48.5319C53.4842 48.2908 53.7913 48.0256 54.0547 47.7438C54.0613 47.7367 54.0679 47.7297 54.0742 47.7224C54.3408 47.4229 54.5731 47.1007 54.7647 46.7649L55.0428 46.2773L55.5332 46.5502C55.9154 46.7629 56.2804 46.9188 56.6234 47.0151C57.0165 47.1235 57.4317 47.1919 57.849 47.2185L57.8685 47.2199C58.2398 47.2504 58.6583 47.2233 59.1601 47.1349C59.6675 47.0463 60.0856 46.9224 60.4749 46.7447L60.5056 46.7313C62.2175 46.0007 63.5264 44.4887 63.8409 42.8772L63.944 42.3486L64.4774 42.4241C64.6616 42.4501 64.858 42.4756 65.0704 42.4756C65.0705 42.4756 65.0708 42.4756 65.0711 42.4756C65.2763 42.4734 65.4882 42.4588 65.7011 42.4315C65.9156 42.4042 66.1347 42.364 66.3545 42.3114C66.5576 42.2624 66.774 42.1753 66.9648 42.0987C66.969 42.097 66.9753 42.0944 66.9794 42.0927C67.194 42.0034 67.4105 41.9006 67.6231 41.787C67.6309 41.7829 67.6388 41.7786 67.6465 41.7743C67.8353 41.6676 68.0212 41.5326 68.2275 41.3798C68.2342 41.3747 68.2409 41.3698 68.2475 41.3645C68.4283 41.2243 68.6333 41.0654 68.8083 40.8922C68.8146 40.8859 68.8209 40.8796 68.8272 40.8732C69.0123 40.6815 69.1907 40.4796 69.3577 40.2719C69.4324 40.1789 69.5055 40.0857 69.5751 39.9908C69.5906 39.9697 69.6053 39.9481 69.6193 39.926C69.6831 39.8256 69.7446 39.7245 69.8046 39.6218C69.9311 39.4044 70.0486 39.1807 70.154 38.957C70.1634 38.937 70.1721 38.9168 70.1804 38.8962C70.3685 38.4286 70.499 37.9762 70.5681 37.552C70.5711 37.5339 70.5736 37.5157 70.5756 37.4972C70.6184 37.1216 70.6593 36.6332 70.5957 36.1825C70.5277 35.7061 70.4255 35.3132 70.2833 34.9813L70.0776 34.5009L70.5395 34.2563C70.8922 34.0696 71.2279 33.8365 71.5372 33.5635C71.549 33.5532 71.5605 33.5424 71.5717 33.5317C71.8975 33.2198 72.1753 32.8919 72.4037 32.5468C72.9185 31.7518 73.2536 30.8147 73.347 29.916L73.349 29.8983C73.4581 28.9926 73.3583 28.0951 73.0498 27.2252ZM42.9261 56.3574L47.1545 58.4192C47.1561 58.4199 47.1578 58.4208 47.1594 58.4215C50.9757 60.2607 53.4418 64.156 53.4418 68.3454C53.4418 69.232 52.7205 69.9533 51.8339 69.9533H50.4246C49.538 69.9533 48.8167 69.232 48.8167 68.3454C48.8167 65.8834 47.4121 63.6774 45.1463 62.5855L40.899 60.5147C36.9146 58.5722 34.266 54.5692 33.9929 50.1753C34.0838 50.157 34.1746 50.1383 34.2644 50.1158C34.8836 49.9595 35.2586 49.3307 35.1024 48.7117C34.946 48.0925 34.3173 47.7176 33.6983 47.8737C33.4107 47.9465 33.1123 47.9831 32.8118 47.9831C30.8244 47.9831 29.2076 46.3663 29.2076 44.3789C29.2076 43.6982 29.3975 43.048 29.7418 42.489C30.6283 44.5159 32.5244 45.9855 34.7341 46.2995L35.0927 46.3506L35.1975 46.6971C35.4843 47.6457 36.0273 48.5036 36.7677 49.1777C37.3233 49.6837 37.9719 50.0746 38.6466 50.3136C38.9512 52.8934 40.5629 55.2052 42.9261 56.3574ZM71.0516 29.6334L71.0476 29.6703C70.9904 30.2211 70.7827 30.7968 70.4694 31.2808C70.3474 31.4649 70.1819 31.66 69.9898 31.8461C69.8219 31.992 69.6429 32.1157 69.4576 32.2138L68.2964 32.8286C68.2633 32.8256 68.2298 32.8234 68.1959 32.8234H66.1887C64.8493 32.8234 63.7598 31.734 63.7598 30.3945C63.7598 27.78 61.6326 25.6529 59.0182 25.6529H58.8497C56.2352 25.6529 54.1081 27.7799 54.1081 30.3945C54.1081 31.5818 53.1422 32.5477 51.9549 32.5477C50.6154 32.5477 49.5259 31.4582 49.5259 30.1187V29.1073C49.5259 28.4687 49.0082 27.9511 48.3697 27.9511C47.731 27.9511 47.2134 28.4688 47.2134 29.1073V30.1187C47.2134 32.7332 49.3404 34.8603 51.955 34.8603C54.4175 34.8603 56.4207 32.857 56.4207 30.3946C56.4207 29.0551 57.5102 27.9657 58.8497 27.9657H59.0182C60.3577 27.9657 61.4471 29.0551 61.4471 30.3946C61.4471 33.0091 63.5741 35.1362 66.1887 35.1362H67.8332L68.1574 35.8934C68.2176 36.0343 68.2678 36.242 68.3059 36.509C68.3253 36.6473 68.317 36.8823 68.2809 37.2079C68.2394 37.4489 68.1607 37.7164 68.047 38.0038C67.9739 38.1569 67.8928 38.3101 67.8061 38.4591C67.7682 38.5241 67.7292 38.5886 67.689 38.6528C67.6455 38.7107 67.6005 38.7678 67.5551 38.8241C67.4355 38.9729 67.3074 39.1183 67.1745 39.2565C67.0981 39.3299 66.9574 39.4394 66.8404 39.53C66.7453 39.6006 66.5971 39.7099 66.5173 39.7568C66.3754 39.8322 66.2325 39.8999 66.1013 39.9545C66.0177 39.9881 65.8618 40.0509 65.8144 40.0639C65.6773 40.0967 65.5402 40.1218 65.4081 40.1387C65.2839 40.1546 65.1624 40.163 65.0567 40.1643C65.0034 40.1643 64.8511 40.1426 64.8012 40.1354L63.1809 39.9057C62.5714 39.8191 62.0017 40.2253 61.8838 40.8291L61.5704 42.4351C61.4008 43.3036 60.606 44.1765 59.592 44.6072C59.5872 44.6093 59.582 44.6114 59.5771 44.6136L59.5332 44.633C59.5285 44.6352 59.5235 44.6373 59.5189 44.6395C59.3125 44.7342 59.0718 44.8034 58.7597 44.8579C58.522 44.8996 58.3296 44.9201 58.1719 44.9201C58.1338 44.9201 58.0959 44.919 58.045 44.9148L58.0035 44.9118C57.7353 44.8948 57.4775 44.8524 57.2422 44.7877C57.1296 44.756 56.9367 44.6857 56.657 44.5302L55.1666 43.7009C54.6125 43.3925 53.914 43.5879 53.5999 44.1384L52.755 45.6195C52.6454 45.8116 52.511 45.9984 52.3551 46.1749C52.2008 46.3384 52.0164 46.496 51.7978 46.6502C51.4052 46.9334 50.9098 47.1352 50.3255 47.2499C49.8606 47.3327 49.3177 47.3174 48.7992 47.1969C48.3329 47.0654 47.901 46.848 47.5488 46.5672L46.7729 45.9485C46.7767 45.9103 46.7788 45.8715 46.7788 45.8324V45.6639C46.7788 43.0494 44.6516 40.9222 42.0371 40.9222C40.8498 40.9222 39.884 39.9564 39.884 38.7691C39.884 37.4296 40.9734 36.3401 42.3129 36.3401H43.3241C43.9628 36.3401 44.4804 35.8223 44.4804 35.1839C44.4804 34.5454 43.9626 34.0276 43.3241 34.0276H42.3129C39.6984 34.0276 37.5713 36.1546 37.5713 38.7692C37.5713 41.2316 39.5746 43.2349 42.037 43.2349C43.3765 43.2349 44.4659 44.3244 44.4659 45.6639V45.7869L43.4825 47.0477C43.2043 47.4043 42.8371 47.7073 42.3869 47.9511C41.9802 48.1733 41.4796 48.3096 40.9006 48.356C40.6115 48.3786 40.3072 48.3573 39.9907 48.2932C39.9859 48.292 39.9811 48.291 39.9762 48.2899C39.8046 48.2544 39.6296 48.2072 39.4513 48.1463C39.0528 48.011 38.6629 47.7761 38.3238 47.4673C37.892 47.074 37.5759 46.5761 37.41 46.0272L37.0916 44.9742C36.9613 44.5434 36.593 44.2274 36.1474 44.164L35.0584 44.0093C33.5058 43.7884 32.1918 42.6778 31.7107 41.1796L31.228 39.6759C31.0717 39.1889 30.6201 38.8729 30.1277 38.8729C30.0429 38.8729 29.9569 38.8823 29.8709 38.9018L28.3304 39.2517C28.0287 39.3203 27.7109 39.3491 27.4001 39.3389C26.3774 39.3049 25.435 38.8642 24.8145 38.13L23.678 36.7849C23.4773 36.5474 23.1894 36.4008 22.8792 36.378C22.5688 36.3559 22.2628 36.4585 22.0297 36.6642L20.7092 37.8296C19.9841 38.4697 18.9856 38.7613 17.9466 38.6157C16.9122 38.4728 15.9422 37.8717 15.4752 37.0843L14.5977 35.6044C14.2724 35.0557 13.5643 34.8743 13.015 35.1986L11.5337 36.0735C11.4044 36.1499 11.2184 36.2224 10.992 36.286C10.863 36.3209 10.7625 36.344 10.6931 36.355C10.5635 36.3706 10.4279 36.38 10.2804 36.3833C10.2405 36.3846 10.2136 36.3852 10.1866 36.3852C9.70875 36.3852 9.16881 36.2443 8.62329 35.9777C8.46224 35.8864 8.30533 35.789 8.16431 35.6928L8.07463 35.6308C8.05288 35.6158 8.03071 35.6018 8.02156 35.5951C7.95577 35.5397 7.87996 35.4731 7.81159 35.4103C7.65955 35.269 7.55471 35.1644 7.47533 35.075C7.36848 34.9403 7.26936 34.803 7.18197 34.6688C7.15065 34.6207 7.11975 34.5723 7.09014 34.5226C7.0624 34.4667 7.03608 34.4103 7.01062 34.3533C6.95369 34.2254 6.90478 34.0987 6.86473 33.9758C6.81467 33.784 6.78921 33.5718 6.79121 33.3602L6.8048 31.9604C6.81023 31.4133 6.4312 30.9373 5.89684 30.8198L4.52932 30.5192C4.34724 30.4793 4.16016 30.4099 3.97308 30.3129C3.86938 30.2461 3.76439 30.1706 3.66012 30.0878C3.60692 30.0456 3.554 30.0016 3.5015 29.9559C3.48248 29.9356 3.45988 29.91 3.43642 29.884L3.39795 29.8415C3.29153 29.7212 3.17983 29.5812 3.0737 29.4356C3.00104 29.3223 2.91579 29.1548 2.8377 28.9995C2.79951 28.922 2.75831 28.8331 2.72256 28.752C2.71398 28.7256 2.7031 28.6904 2.69166 28.6535L2.66806 28.579C2.60942 28.3863 2.5585 28.1892 2.51602 27.9926C2.28774 26.4533 2.99231 25.4518 3.44758 25.1012L4.67993 24.1523C5.1495 23.7906 5.26979 23.1324 4.95813 22.6282L4.14042 21.3054C4.01884 21.1086 3.92802 20.919 3.87724 20.7561C3.80087 20.4706 3.75796 20.2097 3.75266 20.0061C3.74079 19.4097 3.8874 18.7745 4.15701 18.2593C4.24541 18.089 4.32636 17.9456 4.40388 17.8224C4.49929 17.6922 4.59998 17.5656 4.70983 17.4389L4.74215 17.4007C4.87517 17.2404 5.06254 17.0776 5.34217 16.8808L5.37564 16.8566C5.50794 16.7598 5.70747 16.6608 5.96192 16.5651C6.06647 16.5266 6.15916 16.4969 6.23782 16.4767C6.34209 16.4563 6.44493 16.4411 6.54391 16.4319L8.19491 16.2796C8.81352 16.2226 9.27637 15.687 9.24333 15.0666L9.15508 13.4114C9.13391 13.0135 9.23046 12.5647 9.43442 12.1123C9.56729 11.8501 9.7099 11.6203 9.8585 11.4286C10.0823 11.1647 10.2846 10.9619 10.4764 10.8096C10.7725 10.5897 11.0233 10.4327 11.2136 10.3464C11.4981 10.2206 11.7565 10.1317 11.9822 10.0824C12.2234 10.0376 12.4608 10.015 12.6786 10.0149L12.7452 10.0154C12.871 10.0189 13.0804 10.0395 13.3749 10.117L14.9862 10.5414C15.9189 11.4895 15.915 13.0194 14.9727 13.9617C14.0772 14.8573 13.5839 16.0479 13.5839 17.3144C13.5839 18.581 14.0771 19.7717 14.9727 20.6672L15.0919 20.7864C15.9874 21.6819 17.1781 22.1752 18.4446 22.1752C19.7112 22.1752 20.9019 21.682 21.7974 20.7864C22.637 19.9469 24.003 19.9469 24.8424 20.7864C25.7896 21.7334 25.7896 23.2744 24.8424 24.2215L24.1274 24.9366C23.6758 25.3881 23.676 26.1203 24.1274 26.5718C24.3532 26.7975 24.6492 26.9104 24.945 26.9104C25.2407 26.9104 25.5368 26.7975 25.7627 26.5717L26.4775 25.8567C28.3262 24.008 28.3262 20.9999 26.4775 19.1511C24.7363 17.4099 21.9033 17.4099 20.162 19.1511C19.7032 19.6099 19.0933 19.8625 18.4444 19.8625C17.7956 19.8625 17.1857 19.6098 16.7268 19.1511L16.6077 19.032C16.1489 18.5731 15.8963 17.9632 15.8963 17.3143C15.8963 16.6655 16.149 16.0556 16.6077 15.5968C18.4416 13.7627 18.4552 10.7888 16.6509 8.93657L16.8826 8.10498C16.9906 7.71766 17.2167 7.32561 17.555 6.93928C17.7338 6.75191 17.9362 6.57599 18.1567 6.41593C18.3688 6.27305 18.6231 6.13803 18.9126 6.01445C19.3517 5.83981 19.8064 5.75113 20.2643 5.75113C20.8228 5.75113 21.3527 5.88257 21.7964 6.13116L23.29 6.9676C23.8443 7.27841 24.5455 7.08303 24.8599 6.53079L25.7069 5.04312C26.1832 4.20639 27.0817 3.60395 28.1105 3.43131C28.3246 3.39527 28.5413 3.3771 28.7544 3.3771C29.587 3.3771 30.3547 3.646 30.9161 4.13402L31.8286 4.92756C31.8285 4.93514 31.8275 4.94257 31.8275 4.95001V8.53122C31.8275 11.1457 33.9545 13.2728 36.5691 13.2728C37.9086 13.2728 38.998 14.3623 38.998 15.7018V15.8703C38.998 17.2097 37.9083 18.2992 36.5691 18.2992C34.1067 18.2992 32.1034 20.3025 32.1034 22.7649C32.1034 25.3794 34.2304 27.5065 36.845 27.5065H37.8562C38.4948 27.5065 39.0125 26.9888 39.0125 26.3503C39.0125 25.7116 38.4947 25.194 37.8562 25.194H36.845C35.5055 25.194 34.416 24.1043 34.416 22.7651C34.416 21.5778 35.3819 20.6119 36.5692 20.6119C39.1837 20.6119 41.3108 18.4847 41.3108 15.8703V15.7018C41.3108 13.0873 39.1837 10.9602 36.5692 10.9602C35.2297 10.9602 34.1403 9.8707 34.1403 8.53122V4.95058C34.1403 4.91783 34.1381 4.88565 34.1354 4.85361L35.0085 3.81707C35.138 3.66316 35.2902 3.52214 35.4657 3.39412C35.6598 3.25095 35.8719 3.12451 36.0964 3.0181C36.5875 2.8137 37.0684 2.70986 37.5259 2.70986C37.5624 2.70986 37.6691 2.71215 37.6703 2.71215C37.6767 2.7123 37.683 2.7123 37.6894 2.7123C38.177 2.71415 38.6848 2.83373 39.1991 3.06816C39.4204 3.18229 39.6264 3.31403 39.8162 3.46392C39.9885 3.59837 40.1338 3.74183 40.2604 3.90288L41.3432 5.27827C41.5348 5.52171 41.8159 5.67804 42.1237 5.71222C42.4313 5.74641 42.7401 5.65573 42.9807 5.46049L44.3394 4.35672C45.0595 3.77158 46.1148 3.53858 47.1704 3.75513C48.1928 3.96167 49.0681 4.59615 49.5119 5.45205L50.302 6.97619C50.5951 7.54159 51.2898 7.76357 51.8568 7.47265L53.3842 6.68855C53.7877 6.4813 54.2654 6.37188 54.7663 6.37188C55.2824 6.37188 55.7934 6.4853 56.2856 6.70958C57.25 7.14839 58.0031 8.00229 58.2038 8.88522L58.3426 9.49624C57.5325 9.85454 56.8351 10.4447 56.3241 11.2208C55.6236 12.2848 55.3629 13.5556 55.59 14.7991C55.6933 15.3649 55.5701 15.9371 55.2432 16.4102C54.9162 16.8834 54.4245 17.2007 53.8586 17.3042C53.2204 17.4207 52.5748 17.2817 52.0413 16.9127C51.5075 16.5438 51.1493 15.9891 51.0328 15.3509L50.8511 14.356C50.7364 13.7277 50.134 13.3122 49.5059 13.4262C48.8777 13.5409 48.4614 14.143 48.5761 14.7714L48.7577 15.7663C48.9851 17.0121 49.6841 18.095 50.726 18.815C51.5275 19.3691 52.4579 19.6574 53.4119 19.6574C53.698 19.6574 53.9862 19.6315 54.2736 19.5789C55.447 19.3647 56.4668 18.7063 57.145 17.7249C57.8233 16.7436 58.0789 15.557 57.8646 14.3836C57.7466 13.738 57.8891 13.0484 58.2553 12.4922C58.6216 11.9358 59.1656 11.5669 59.7873 11.4532C59.803 11.4503 59.8182 11.4458 59.8335 11.4422C59.8735 11.4377 59.9138 11.4314 59.9542 11.4227L61.6219 11.061C61.7322 11.0371 61.8475 11.019 61.9516 11.0079C61.9576 11.0075 62.013 11.0025 62.1209 11.0025C62.1587 11.0025 62.1965 11.0031 62.2345 11.0042C62.5312 11.0178 62.7523 11.0467 62.9103 11.0929C63.2314 11.1863 63.4727 11.279 63.668 11.3838C63.8815 11.5071 64.1837 11.6911 64.4067 11.8957C64.8576 12.3005 65.2011 12.7798 65.4012 13.2826C65.5151 13.5926 65.5739 13.803 65.5932 13.9731C65.6245 14.231 65.6279 14.4627 65.6036 14.6818L65.4288 16.2576C65.3624 16.855 65.7651 17.4037 66.3549 17.5198L67.911 17.8258C68.1209 17.867 68.3415 17.9401 68.5766 18.0475C68.721 18.1118 68.9108 18.2406 69.1994 18.4704C69.2492 18.5096 69.312 18.5718 69.4012 18.6715C69.5216 18.8045 69.6325 18.9391 69.7459 19.0912L69.7611 19.1108C69.7908 19.1535 69.8673 19.2914 69.9183 19.3834L69.946 19.4333C70.0228 19.5792 70.1068 19.7423 70.1487 19.8514C70.3808 20.476 70.4642 21.1128 70.3825 21.6527C70.3587 21.8176 70.3291 21.9688 70.2914 22.1176C70.2764 22.1712 70.2162 22.3162 70.1882 22.3835C70.0879 22.6083 70.0032 22.7596 69.929 22.846L68.8849 24.0625C68.4901 24.5223 68.5174 25.209 68.9475 25.6361L70.0855 26.7662C70.1594 26.8396 70.2328 26.9225 70.3023 27.0114C70.3358 27.0543 70.3688 27.0986 70.4009 27.1444L70.5573 27.3797C70.6971 27.6031 70.8005 27.8098 70.871 28.0051C71.0584 28.5289 71.119 29.0733 71.0516 29.6334Z" fill="url(#paint0_linear_158_5887)"/>
<defs>
<linearGradient id="paint0_linear_158_5887" x1="36.776" y1="0.396484" x2="36.776" y2="72.2654" gradientUnits="userSpaceOnUse">
<stop stop-color="#2E9CB7"/>
<stop offset="1" stop-color="#5DC19D"/>
</linearGradient>
</defs>
</svg>
