<svg width="81" height="68" viewBox="0 0 81 68" fill="none" xmlns="http://www.w3.org/2000/svg">
<path d="M77.8842 19.6507C77.5958 19.0625 76.8853 18.8191 76.2963 19.108C75.7079 19.3966 75.4651 20.1075 75.7537 20.6959C78.1285 25.5364 78.627 30.5164 78.627 33.8416C78.627 38.3352 77.6947 46.8061 71.4518 53.0489C69.458 55.0428 66.8071 56.1408 63.9873 56.1408C61.1678 56.1408 58.5168 55.0428 56.523 53.0489C54.529 51.0551 53.431 48.4042 53.431 45.5844C53.431 43.7868 53.8791 42.0587 54.7193 40.5248C54.744 40.4871 54.7656 40.4477 54.7857 40.4075C55.2528 39.5803 55.8327 38.8102 56.5228 38.1201C56.9356 37.7073 57.2785 37.2569 57.5519 36.7771C57.5562 36.7695 57.5608 36.7624 57.5649 36.7546C57.6324 36.635 57.6964 36.5138 57.7551 36.3906C58.9851 37.1384 59.7215 38.2819 60.0838 38.9897C60.2939 39.3999 60.7097 39.6357 61.1409 39.6357C61.3229 39.6357 61.5076 39.5936 61.6807 39.505C62.2642 39.2063 62.4947 38.4914 62.1961 37.9081C61.2839 36.1269 59.928 34.7703 58.3194 34.0025C58.3208 33.9489 58.3232 33.8956 58.3232 33.8416C58.3232 33.545 58.3018 33.2533 58.2605 32.9672C59.8963 32.2052 61.27 30.8416 62.196 29.033C62.4947 28.4498 62.2638 27.7348 61.6805 27.4361C61.0969 27.1373 60.3823 27.3681 60.0836 27.9516C59.6877 28.7252 58.8592 29.9935 57.445 30.7241C57.391 30.6368 57.3346 30.5505 57.2757 30.4654C57.2618 30.4449 57.2477 30.4246 57.2325 30.405C57.0242 30.1106 56.7884 29.8288 56.5228 29.5633C52.4068 25.4474 52.4068 18.7503 56.5228 14.6344C58.5165 12.6405 61.1675 11.5424 63.9872 11.5424C66.8068 11.5424 69.4578 12.6405 71.4518 14.6345C71.96 15.1427 72.4498 15.6839 72.9076 16.2433C73.3226 16.7505 74.0704 16.825 74.5773 16.4099C75.0845 15.9947 75.1591 15.2472 74.744 14.7402C74.2365 14.12 73.6934 13.52 73.1299 12.9564C68.0886 7.91515 59.8859 7.9153 54.8449 12.9564C50.5913 17.2101 49.9268 23.7143 52.8512 28.6711L51.2459 28.1099C49.5416 27.5141 48.1105 26.3226 47.2162 24.7543L45.0002 20.869C44.3708 19.7654 44.0382 18.5106 44.0382 17.2401V3.60664C44.0382 1.67546 42.5577 0.0929515 40.6675 0.00404134C39.6878 -0.0418376 38.7613 0.304153 38.0545 0.978573C37.3576 1.6435 36.9578 2.57706 36.9578 3.5402V17.2403C36.9578 18.5106 36.6251 19.7655 35.9958 20.8691L33.7802 24.7541C32.8857 26.3224 31.4544 27.5141 29.7503 28.1098L28.1527 28.6681C29.3185 26.6989 29.9418 24.4469 29.9418 22.0985C29.9418 18.645 28.597 15.3982 26.1549 12.9561C23.7129 10.5141 20.4661 9.16906 17.0125 9.16906C13.559 9.16906 10.312 10.5139 7.87013 12.9561C1.02247 19.8041 0 28.9808 0 33.8416C0 38.0609 0.792439 46.128 6.09984 52.7502C6.50958 53.2615 7.25646 53.344 7.76777 52.9341C8.27909 52.5243 8.36135 51.7774 7.95161 51.2661C3.09778 45.21 2.37305 37.7496 2.37305 33.8416C2.37305 29.348 3.30518 20.8774 9.54819 14.6344C11.542 12.6405 14.1929 11.5424 17.0127 11.5424C19.8323 11.5424 22.4834 12.6405 24.4772 14.6344C26.471 16.6282 27.5691 19.279 27.5691 22.0988C27.5691 24.9187 26.4712 27.5695 24.4772 29.5633C24.212 29.8285 23.9768 30.1096 23.7686 30.4034C23.7536 30.4229 23.7396 30.443 23.7259 30.4632C23.6666 30.5491 23.6094 30.636 23.555 30.7241C22.1408 29.9935 21.3123 28.7252 20.9162 27.9514C20.6175 27.3681 19.9024 27.1376 19.3193 27.4361C18.736 27.7348 18.5053 28.4498 18.804 29.033C19.7301 30.8416 21.1038 32.2052 22.7395 32.9671C22.6982 33.2533 22.677 33.545 22.677 33.8415C22.677 33.8954 22.6795 33.9487 22.6808 34.0025C21.072 34.7703 19.7161 36.1267 18.804 37.9081C18.5053 38.4914 18.7362 39.2063 19.3193 39.505C19.4925 39.5936 19.6771 39.6357 19.8591 39.6357C20.2903 39.6357 20.7061 39.3998 20.9162 38.9897C21.2786 38.2819 22.0149 37.1384 23.2451 36.3906C23.3068 36.5202 23.3744 36.6475 23.4459 36.7731C23.4547 36.7891 23.4637 36.8051 23.4732 36.8206C23.7425 37.2841 24.0769 37.7198 24.477 38.1199C25.1668 38.8097 25.7465 39.5793 26.2133 40.4061C26.2339 40.4471 26.256 40.4873 26.2812 40.5257C27.1209 42.0593 27.5688 43.7872 27.5688 45.5844C27.5688 48.4041 26.4709 51.0551 24.4769 53.0489C21.1106 56.415 15.8806 57.1122 11.7586 54.7439C11.1903 54.4175 10.4651 54.6134 10.1386 55.1817C9.81223 55.7499 10.0082 56.4751 10.5764 56.8017C12.5789 57.9519 14.7944 58.5121 16.9964 58.5121C20.3475 58.5121 23.667 57.2149 26.1548 54.727C28.5968 52.285 29.9417 49.0382 29.9417 45.5846C29.9417 44.2748 29.7472 42.9951 29.3739 41.7774L29.5411 41.8298C30.5881 42.1577 31.2916 43.1152 31.2916 44.2123V63.5547C31.2916 65.5068 32.8797 67.0948 34.8317 67.0948C36.7838 67.0948 38.372 65.5068 38.372 63.5547V44.2123C38.372 40.0038 35.6737 36.3311 31.6576 35.0729L31.4622 35.0117L32.0864 34.7935C35.4036 33.6339 38.1893 31.3142 39.9302 28.2618L40.4978 27.2666L41.0653 28.2615C42.8063 31.3142 45.5919 33.6339 48.9093 34.7935L49.5353 35.0123L49.3418 35.0729C45.3257 36.331 42.6275 40.0038 42.6275 44.2123V63.5547C42.6275 65.5068 44.2156 67.0948 46.1676 67.0948C48.1197 67.0948 49.7077 65.5068 49.7077 63.5547V44.2123C49.7077 43.1152 50.4111 42.1576 51.4583 41.8298L51.6255 41.7774C51.2521 42.9951 51.0577 44.2748 51.0577 45.5846C51.0577 49.0382 52.4026 52.2851 54.8444 54.727C57.3654 57.2479 60.6755 58.5082 63.987 58.5079C67.2974 58.5076 70.6091 57.2473 73.1294 54.727C79.9775 47.8793 81 38.7023 81 33.8416C81 30.2651 80.4594 24.9 77.8842 19.6507ZM35.9993 44.2123V63.5547C35.9993 64.1983 35.4756 64.7218 34.8321 64.7218C34.1885 64.7218 33.665 64.1983 33.665 63.5547V44.2123C33.665 42.0723 32.2929 40.2049 30.2507 39.5651L28.0736 38.8833C27.6148 38.1289 27.0741 37.4188 26.4585 36.7608L27.7101 36.3234L30.9483 37.3376C33.9695 38.2838 35.9993 41.0467 35.9993 44.2123ZM43.1268 27.0859L41.7341 24.6439C41.4813 24.2009 41.0075 23.9258 40.4976 23.9259C39.9877 23.9261 39.5141 24.2012 39.2617 24.644L37.8688 27.086C36.4117 29.641 34.08 31.5827 31.3033 32.5532L25.1543 34.7026C25.0874 34.426 25.0496 34.1397 25.0496 33.8415C25.0496 33.2166 25.1978 32.6383 25.4903 32.1126L30.5332 30.3499C32.7779 29.5652 34.6631 27.9956 35.8414 25.9297L38.057 22.0447C38.8903 20.5836 39.3307 18.9223 39.3307 17.2403V3.5402C39.3307 3.21794 39.4592 2.91798 39.6924 2.69555C39.9254 2.47328 40.2328 2.35937 40.5557 2.3744C41.1673 2.40319 41.6649 2.95595 41.6649 3.60664V17.24C41.6649 18.922 42.1053 20.5834 42.9387 22.0446L45.1545 25.9297C46.3323 27.9954 48.2175 29.5652 50.4627 30.3499L55.5103 32.1142C55.8022 32.6396 55.95 33.2172 55.95 33.8415C55.95 34.1402 55.912 34.427 55.8449 34.7038L49.6924 32.5534C46.9159 31.5828 44.5842 29.6412 43.1268 27.0859ZM50.749 39.5651C48.7069 40.2049 47.3349 42.0723 47.3349 44.2123V63.5547C47.3349 64.1983 46.8112 64.7218 46.1678 64.7218C45.5244 64.7218 45.0007 64.1983 45.0007 63.5547V44.2123C45.0007 41.0467 47.0305 38.2838 50.0515 37.3376L53.2879 36.324L54.5404 36.7617C53.9253 37.4194 53.3849 38.1293 52.9262 38.8831L50.749 39.5651Z" fill="#00C7BE"/>
</svg>
