<svg width="21" height="21" viewBox="0 0 21 21" fill="none" xmlns="http://www.w3.org/2000/svg">
<path d="M9.94188 11.1587C6.98943 11.1587 4.58649 8.88926 4.58649 6.10084C4.58649 3.31241 6.98943 1.04297 9.94188 1.04297C12.8943 1.04297 15.2973 3.31241 15.2973 6.10084C15.2973 8.88926 12.8943 11.1587 9.94188 11.1587ZM9.94188 2.36241C7.76247 2.36241 5.98355 4.04251 5.98355 6.10084C5.98355 8.15917 7.76247 9.83926 9.94188 9.83926C12.1213 9.83926 13.9002 8.15917 13.9002 6.10084C13.9002 4.04251 12.1213 2.36241 9.94188 2.36241Z" fill="#363636"/>
<path d="M1.94084 19.9559C1.55898 19.9559 1.24231 19.6568 1.24231 19.2961C1.24231 15.5401 5.14476 12.479 9.94133 12.479C10.882 12.479 11.8041 12.5934 12.6982 12.8309C13.0707 12.9276 13.285 13.2883 13.1825 13.6401C13.0801 13.992 12.6982 14.1943 12.3256 14.0975C11.5619 13.8952 10.7609 13.7984 9.94133 13.7984C5.9178 13.7984 2.63937 16.2614 2.63937 19.2961C2.63937 19.6568 2.3227 19.9559 1.94084 19.9559Z" fill="#363636"/>
<path d="M15.5287 19.9551C13.9826 19.9551 12.5297 19.181 11.7473 17.9232C11.3282 17.2898 11.1047 16.5422 11.1047 15.7769C11.1047 14.4926 11.7101 13.3051 12.7625 12.5134C13.5449 11.9241 14.5321 11.5986 15.5287 11.5986C17.9689 11.5986 19.9527 13.4722 19.9527 15.7769C19.9527 16.5422 19.7292 17.2898 19.3101 17.932C19.0772 18.3014 18.7792 18.6357 18.4252 18.9172C17.6522 19.5857 16.6184 19.9551 15.5287 19.9551ZM15.5287 12.9181C14.8395 12.9181 14.1875 13.138 13.638 13.5514C12.9209 14.088 12.5017 14.906 12.5017 15.7769C12.5017 16.2959 12.6508 16.806 12.9395 17.2458C13.4797 18.1079 14.4762 18.6357 15.5287 18.6357C16.2645 18.6357 16.9723 18.3806 17.5125 17.9232C17.7547 17.7297 17.9596 17.5009 18.1086 17.2546C18.4066 16.806 18.5557 16.2959 18.5557 15.7769C18.5557 14.2023 17.1959 12.9181 15.5287 12.9181Z" fill="#363636"/>
<path d="M14.9975 17.3089C14.8206 17.3089 14.6436 17.2474 14.5039 17.1154L13.5818 16.2446C13.3117 15.9895 13.3117 15.5672 13.5818 15.3122C13.8519 15.0571 14.299 15.0571 14.5691 15.3122L15.0162 15.7344L16.5063 14.4325C16.7858 14.1862 17.2328 14.2039 17.4936 14.4677C17.7544 14.7316 17.7358 15.1539 17.4564 15.4001L15.4725 17.133C15.3328 17.2473 15.1652 17.3089 14.9975 17.3089Z" fill="#363636"/>
</svg>
