<svg width="21" height="21" viewBox="0 0 21 21" fill="none" xmlns="http://www.w3.org/2000/svg">
<path d="M8.73509 14.6481H5.82785C2.91295 14.6481 2.02313 13.7735 2.02313 10.9084V6.3847C2.02313 3.51962 2.91295 2.64502 5.82785 2.64502H13.9052C16.8201 2.64502 17.7099 3.51962 17.7099 6.3847C17.7099 6.69383 17.4491 6.95018 17.1346 6.95018C16.8201 6.95018 16.5593 6.69383 16.5593 6.3847C16.5593 4.16804 16.1604 3.77597 13.9052 3.77597H5.82785C3.57263 3.77597 3.17375 4.16804 3.17375 6.3847V10.9084C3.17375 13.1251 3.57263 13.5172 5.82785 13.5172H8.73509C9.04959 13.5172 9.3104 13.7735 9.3104 14.0826C9.3104 14.3918 9.04959 14.6481 8.73509 14.6481Z" fill="#363636" stroke="#363636" stroke-width="0.4"/>
<path d="M8.73565 18.0523C8.42115 18.0523 8.16034 17.7959 8.16034 17.4868V14.0713C8.16034 13.7622 8.42115 13.5059 8.73565 13.5059C9.05015 13.5059 9.31096 13.7622 9.31096 14.0713V17.4868C9.31096 17.8035 9.05015 18.0523 8.73565 18.0523Z" fill="#363636" stroke="#363636" stroke-width="0.4"/>
<path d="M8.73509 11.631H2.59844C2.28394 11.631 2.02313 11.3746 2.02313 11.0655C2.02313 10.7563 2.28394 10.5 2.59844 10.5H8.73509C9.04959 10.5 9.3104 10.7563 9.3104 11.0655C9.3104 11.3746 9.04959 11.631 8.73509 11.631Z" fill="#363636" stroke="#363636" stroke-width="0.4"/>
<path d="M8.73408 18.0562H6.23339C5.91889 18.0562 5.65808 17.7999 5.65808 17.4908C5.65808 17.1816 5.91889 16.9253 6.23339 16.9253H8.73408C9.04858 16.9253 9.30939 17.1816 9.30939 17.4908C9.30939 17.7999 9.04858 18.0562 8.73408 18.0562Z" fill="#363636" stroke="#363636" stroke-width="0.4"/>
<path d="M15.6697 18.0548H12.9465C10.8217 18.0548 10.1006 17.3461 10.1006 15.2576V10.9525C10.1006 8.86397 10.8217 8.15527 12.9465 8.15527H15.6697C17.7945 8.15527 18.5155 8.86397 18.5155 10.9525V15.2576C18.5155 17.3537 17.7945 18.0548 15.6697 18.0548ZM12.9465 9.2862C11.443 9.2862 11.2513 9.47469 11.2513 10.9525V15.2576C11.2513 16.7354 11.443 16.9239 12.9465 16.9239H15.6697C17.1731 16.9239 17.3649 16.7354 17.3649 15.2576V10.9525C17.3649 9.47469 17.1731 9.2862 15.6697 9.2862H12.9465Z" fill="#363636" stroke="#363636" stroke-width="0.4"/>
<path d="M14.3348 15.6066C14.1353 15.6066 13.9359 15.5312 13.7901 15.388C13.7211 15.3201 13.6674 15.2372 13.6291 15.1467C13.5907 15.0487 13.5677 14.9507 13.5677 14.8526C13.5677 14.6566 13.6521 14.4606 13.7901 14.3249C13.9666 14.1515 14.235 14.0685 14.4882 14.1138C14.5342 14.1288 14.5802 14.1439 14.6263 14.159C14.6723 14.1816 14.7183 14.2042 14.7567 14.2268C14.8027 14.257 14.841 14.2872 14.8794 14.3249C15.0175 14.4606 15.1018 14.6566 15.1018 14.8526C15.1018 14.9507 15.0788 15.0487 15.0405 15.1467C15.0021 15.2372 14.9484 15.3201 14.8794 15.388C14.841 15.4257 14.8027 15.4558 14.7567 15.4784C14.7183 15.5086 14.6723 15.5312 14.6263 15.5538C14.5802 15.5689 14.5342 15.584 14.4882 15.5915C14.4345 15.6066 14.3885 15.6066 14.3348 15.6066Z" fill="#363636" stroke="#363636" stroke-width="0.4"/>
</svg>
