<svg width="21" height="21" viewBox="0 0 21 21" fill="none" xmlns="http://www.w3.org/2000/svg">
<path d="M13.9675 19.0103H3.56496C2.81288 19.0103 2.11622 18.662 1.66497 18.0524C1.2058 17.4349 1.07122 16.6591 1.30081 15.9228L4.63372 5.21153C4.93455 4.21403 5.8529 3.5332 6.8979 3.5332H16.6354C17.5933 3.5332 18.4562 4.10327 18.8204 4.98994C19.0183 5.44911 19.0579 5.97162 18.9391 6.4862L16.2712 17.1974C16.0179 18.2661 15.0679 19.0103 13.9675 19.0103ZM6.9058 4.72863C6.39121 4.72863 5.92414 5.06909 5.77372 5.56784L2.44081 16.2791C2.32998 16.6512 2.3933 17.0391 2.6308 17.3558C2.85247 17.6566 3.2008 17.8307 3.57289 17.8307H13.9754C14.5216 17.8307 14.9966 17.4587 15.1233 16.9282L17.7912 6.20904C17.8545 5.94779 17.8387 5.68658 17.7358 5.457C17.5458 5.00575 17.1262 4.7207 16.6433 4.7207H6.9058V4.72863Z" fill="#363636"/>
<path d="M17.4509 19.0102H13.6667C13.3421 19.0102 13.0729 18.741 13.0729 18.4164C13.0729 18.0919 13.3421 17.8227 13.6667 17.8227H17.4509C17.7754 17.8227 18.0763 17.6881 18.2979 17.4506C18.5196 17.2131 18.6304 16.8965 18.6067 16.5719L17.8229 5.78939C17.7992 5.46481 18.0446 5.17977 18.3692 5.15602C18.6938 5.14019 18.9788 5.37764 19.0025 5.70222L19.7863 16.4848C19.8338 17.134 19.6042 17.7831 19.1609 18.2581C18.7254 18.7411 18.1 19.0102 17.4509 19.0102Z" fill="#363636"/>
<path d="M8.66317 6.64432C8.61567 6.64432 8.56817 6.63638 8.52067 6.62847C8.20401 6.5493 8.0061 6.23261 8.08527 5.90802L8.90858 2.48807C8.98775 2.1714 9.30442 1.97344 9.629 2.05261C9.94567 2.13178 10.1436 2.44847 10.0644 2.77305L9.24109 6.19311C9.17776 6.46227 8.93234 6.64432 8.66317 6.64432Z" fill="#363636"/>
<path d="M13.9675 6.65254C13.9279 6.65254 13.8804 6.65253 13.8408 6.63669C13.5241 6.56544 13.3183 6.24876 13.3816 5.9321L14.1258 2.49629C14.197 2.17171 14.5137 1.97383 14.8304 2.03716C15.147 2.10049 15.3529 2.42499 15.2895 2.74166L14.5454 6.17756C14.4899 6.46256 14.2445 6.65254 13.9675 6.65254Z" fill="#363636"/>
<path d="M13.4293 11.0938H7.09601C6.77142 11.0938 6.50226 10.8246 6.50226 10.5C6.50226 10.1754 6.77142 9.90625 7.09601 9.90625H13.4293C13.7539 9.90625 14.0231 10.1754 14.0231 10.5C14.0231 10.8246 13.7539 11.0938 13.4293 11.0938Z" fill="black"/>
<path d="M12.6377 14.2603H6.30432C5.97974 14.2603 5.71057 13.9911 5.71057 13.6665C5.71057 13.3419 5.97974 13.0728 6.30432 13.0728H12.6377C12.9622 13.0728 13.2314 13.3419 13.2314 13.6665C13.2314 13.9911 12.9622 14.2603 12.6377 14.2603Z" fill="black"/>
</svg>
