<svg width="22" height="22" viewBox="0 0 22 22" fill="none" xmlns="http://www.w3.org/2000/svg">
<path fill-rule="evenodd" clip-rule="evenodd" d="M14.9069 19.7747C13.7954 19.7747 12.3398 19.0193 11.314 18.3862C9.92585 17.528 8.42867 16.3405 7.09913 15.0425L6.67189 14.6138C5.37721 13.2824 4.1923 11.7815 3.33672 10.3897C2.7044 9.36162 1.95117 7.90191 1.95117 6.78894C1.95117 5.60589 2.80861 4.33234 3.17725 3.83984C3.76099 3.05917 4.61063 2.2251 5.2437 2.2251C5.54781 2.2251 5.90791 2.4517 6.37594 2.93827C6.8195 3.39925 7.24673 3.97409 7.5271 4.37536C7.9039 4.91497 8.25251 5.4798 8.50841 5.966C8.95604 6.81602 8.95604 7.11234 8.95604 7.20987C8.95604 7.52696 8.78396 7.80659 8.44536 8.04135C8.2043 8.20824 7.90502 8.33767 7.61611 8.46339L7.61277 8.46488C7.32721 8.58837 7.06093 8.70816 6.9315 8.81126L6.84435 8.88098L6.86994 8.98928C6.89515 9.09757 7.02607 9.52035 7.62835 10.4067C8.10231 11.1043 8.71683 11.862 9.27165 12.4327L9.27499 12.4365C9.84574 12.9942 10.6019 13.6099 11.2973 14.0842C12.1818 14.6876 12.6031 14.8181 12.7114 14.8434L12.8201 14.8693L12.8898 14.7818C12.9925 14.652 13.1123 14.3842 13.2362 14.0987C13.3615 13.8075 13.491 13.5075 13.6582 13.2642C13.8919 12.9253 14.1708 12.7535 14.4871 12.7535C14.5839 12.7535 14.8798 12.7535 15.7273 13.2019C16.2127 13.4574 16.7757 13.8075 17.3142 14.1847C17.7147 14.4658 18.2888 14.8938 18.7483 15.3385C19.2342 15.808 19.4596 16.1685 19.4596 16.4737C19.4596 17.109 18.6278 17.9608 17.849 18.5461C17.3572 18.9151 16.087 19.7747 14.9069 19.7747ZM5.17361 2.94309C5.10574 2.96386 4.91474 3.04211 4.59877 3.31618C4.30541 3.57096 3.98647 3.92514 3.70054 4.31417C3.04448 5.20573 2.65322 6.13066 2.65322 6.78857C2.65322 7.51806 3.1205 8.69592 3.93418 10.0195C4.76306 11.368 5.91348 12.8244 7.17256 14.1198L7.59089 14.54C8.88447 15.8024 10.3375 16.9551 11.6823 17.7858C13.0033 18.6013 14.1785 19.0701 14.9065 19.0701C15.563 19.0701 16.4857 18.6773 17.3761 18.0205C17.7633 17.7339 18.1167 17.4134 18.3715 17.1193C18.6456 16.8026 18.7227 16.6116 18.7439 16.5434L18.7639 16.4789L18.7353 16.418C18.6352 16.2022 18.1182 15.5966 16.818 14.6976C16.3273 14.3586 15.8192 14.0456 15.3864 13.8175C14.8476 13.5342 14.6028 13.4734 14.5231 13.4611L14.4534 13.4504L14.3955 13.4901C14.328 13.5364 14.2549 13.6254 14.1774 13.756C14.0732 13.9321 13.9761 14.1565 13.8819 14.3738L13.8804 14.3776C13.7699 14.6331 13.656 14.8975 13.5203 15.1056C13.3178 15.4134 13.0863 15.5632 12.8134 15.5632C12.8119 15.5632 12.8041 15.5632 12.8012 15.5632L12.7982 15.5625C12.7285 15.5617 12.5838 15.558 12.3009 15.4516C11.9311 15.3118 11.4597 15.0473 10.9012 14.6665C10.1695 14.1665 9.3766 13.5197 8.77951 12.936L8.77172 12.9286C8.1891 12.3296 7.54417 11.5349 7.04721 10.8035C6.6667 10.2432 6.40265 9.77069 6.2632 9.39982C6.15676 9.11611 6.1538 8.9711 6.15231 8.90138C6.14638 8.62249 6.29435 8.387 6.60477 8.1808C6.81171 8.04358 7.07725 7.92861 7.33463 7.81698C7.55344 7.72204 7.77892 7.62413 7.95508 7.51917C8.08563 7.44129 8.17797 7.36489 8.2221 7.29888L8.2603 7.24177L8.24992 7.1739C8.23768 7.09416 8.17797 6.84939 7.89426 6.30868C7.66766 5.87662 7.35614 5.36705 7.0168 4.8738C6.11968 3.57059 5.51554 3.05249 5.30044 2.95199L5.23888 2.92306L5.17361 2.94309Z" fill="#363636"/>
<path fill-rule="evenodd" clip-rule="evenodd" d="M13.9891 10.5612C13.83 10.5612 13.695 10.447 13.6668 10.2898C13.5693 9.73605 13.25 9.25504 12.7667 8.93573C12.3955 8.69022 11.9601 8.56042 11.5065 8.56042C11.3667 8.56042 11.2251 8.57303 11.0856 8.5975C11.0667 8.60084 11.0474 8.6027 11.0285 8.6027C10.8694 8.6027 10.7337 8.4881 10.7066 8.33122C10.6747 8.15284 10.7941 7.98187 10.9721 7.95072C11.1494 7.91919 11.3282 7.90362 11.5077 7.90362C12.0892 7.90362 12.6495 8.07088 13.128 8.38759C13.7625 8.80741 14.1834 9.4427 14.3125 10.1759C14.344 10.3543 14.2246 10.5253 14.0466 10.5564C14.0277 10.5597 14.0084 10.5612 13.9891 10.5612ZM16.3155 9.56064C16.1564 9.56064 16.0211 9.44641 15.9932 9.28916C15.8071 8.22998 15.1966 7.31061 14.2743 6.70054C13.5697 6.23399 12.7423 5.98774 11.8819 5.98774C11.6152 5.98774 11.3486 6.0111 11.0856 6.05783C11.0667 6.06117 11.0474 6.06302 11.0285 6.06302C10.8694 6.06302 10.7337 5.9488 10.7062 5.79155C10.6747 5.61279 10.7941 5.4422 10.9721 5.41067C11.2736 5.35727 11.5807 5.33057 11.8837 5.33057C12.8717 5.33057 13.8233 5.61465 14.6359 6.15203C15.7099 6.8626 16.4216 7.93625 16.6393 9.17531C16.6545 9.26098 16.6352 9.34924 16.5851 9.42045C16.5358 9.49202 16.4594 9.54098 16.3738 9.55618C16.3541 9.55915 16.3352 9.56064 16.3155 9.56064Z" fill="#363636"/>
<path fill-rule="evenodd" clip-rule="evenodd" d="M19.4223 9.27324C19.2632 9.27324 19.1275 9.15864 19.1 9.00139C18.7837 7.20493 17.7493 5.64619 16.1873 4.61297C14.9953 3.82488 13.5979 3.40803 12.1448 3.40803C11.698 3.40803 11.2459 3.44771 10.8005 3.52634C10.7812 3.53004 10.7619 3.53153 10.743 3.53153C10.5843 3.53153 10.4485 3.4173 10.4211 3.26005C10.3896 3.08167 10.5086 2.91107 10.6874 2.87955C11.1706 2.79425 11.6616 2.75049 12.1463 2.75049C13.727 2.75049 15.2497 3.2048 16.5489 4.06409C18.2634 5.19819 19.3989 6.91158 19.7464 8.88754C19.778 9.06592 19.6585 9.23652 19.4805 9.26804C19.4609 9.27138 19.4416 9.27324 19.4223 9.27324Z" fill="#363636"/>
</svg>
