<svg width="20" height="20" viewBox="0 0 20 20" fill="none" xmlns="http://www.w3.org/2000/svg">
<path d="M9.19355 18.3871C8.65476 18.3871 8.15019 18.1816 7.77389 17.7963L6.47397 16.4945C6.37134 16.3918 6.09767 16.2804 5.96084 16.2804H4.11358C3.0018 16.2804 2.10382 15.3811 2.10382 14.2678V12.418C2.10382 12.281 1.99264 12.0069 1.89001 11.9042L0.590098 10.6024C0.213803 10.2256 0 9.72025 0 9.18072C0 8.64118 0.205251 8.1359 0.590098 7.75908L1.89001 6.45734C1.99264 6.35457 2.10382 6.08052 2.10382 5.94349V4.09373C2.10382 2.9804 3.0018 2.08109 4.11358 2.08109H5.96084C6.09767 2.08109 6.37134 1.96975 6.47397 1.86699L7.77389 0.565229C8.52648 -0.18841 9.86061 -0.18841 10.6132 0.565229L11.9131 1.86699C12.0158 1.96975 12.2894 2.08109 12.4263 2.08109H14.2735C15.3853 2.08109 16.2833 2.9804 16.2833 4.09373V5.94349C16.2833 6.08052 16.3944 6.35457 16.4971 6.45734L17.797 7.75908C18.1733 8.1359 18.3871 8.64118 18.3871 9.18072C18.3871 9.72025 18.1818 10.2256 17.797 10.6024L16.4971 11.9042C16.3944 12.0069 16.2833 12.281 16.2833 12.418V14.2678C16.2833 15.3811 15.3853 16.2804 14.2735 16.2804H12.4263C12.2894 16.2804 12.0158 16.3918 11.9131 16.4945L10.6132 17.7963C10.2369 18.1816 9.73233 18.3871 9.19355 18.3871ZM2.79654 10.9963C3.13863 11.3389 3.38664 11.9384 3.38664 12.418V14.2678C3.38664 14.6703 3.71163 14.9958 4.11358 14.9958H5.96084C6.43976 14.9958 7.03841 15.2441 7.38049 15.5866L8.68042 16.8884C8.95409 17.1624 9.43301 17.1624 9.70668 16.8884L11.0066 15.5866C11.3487 15.2441 11.9473 14.9958 12.4263 14.9958H14.2735C14.6755 14.9958 15.0005 14.6703 15.0005 14.2678V12.418C15.0005 11.9384 15.2485 11.3389 15.5905 10.9963L16.8905 9.69456C17.0273 9.55753 17.1043 9.37769 17.1043 9.18072C17.1043 8.98374 17.0273 8.80398 16.8905 8.66696L15.5905 7.36513C15.2485 7.02257 15.0005 6.42308 15.0005 5.94349V4.09373C15.0005 3.69122 14.6755 3.3657 14.2735 3.3657H12.4263C11.9473 3.3657 11.3487 3.11739 11.0066 2.77483L9.70668 1.47307C9.43301 1.19902 8.95409 1.19902 8.68042 1.47307L7.38049 2.77483C7.03841 3.11739 6.43976 3.3657 5.96084 3.3657H4.11358C3.71163 3.3657 3.38664 3.69122 3.38664 4.09373V5.94349C3.38664 6.42308 3.13863 7.02257 2.79654 7.36513L1.49662 8.66696C1.35979 8.80398 1.28282 8.98374 1.28282 9.18072C1.28282 9.37769 1.35979 9.55753 1.49662 9.69456L2.79654 10.9963Z" fill="#363636"/>
<path d="M10.9447 12.3461C10.5034 12.3461 10.1488 11.9914 10.1488 11.558C10.1488 11.1246 10.5034 10.77 10.9368 10.77C11.3702 10.77 11.7248 11.1246 11.7248 11.558C11.7248 11.9914 11.3781 12.3461 10.9447 12.3461Z" fill="#363636"/>
<path d="M6.22467 7.61754C5.78338 7.61754 5.42877 7.26293 5.42877 6.82952C5.42877 6.39611 5.78338 6.0415 6.21679 6.0415C6.6502 6.0415 7.00481 6.39611 7.00481 6.82952C7.00481 7.26293 6.65808 7.61754 6.22467 7.61754Z" fill="#363636"/>
<path d="M6.21648 12.1484C6.06676 12.1484 5.91704 12.0932 5.79884 11.975C5.57031 11.7465 5.57031 11.3683 5.79884 11.1397L10.5269 6.41163C10.7555 6.1831 11.1337 6.1831 11.3622 6.41163C11.5908 6.64015 11.5908 7.0184 11.3622 7.24693L6.63413 11.975C6.51593 12.0932 6.36621 12.1484 6.21648 12.1484Z" fill="#363636"/>
<g filter="url(#filter0_d_247_2625)">
<path d="M18.9125 14.9723C18.9125 12.7963 17.1484 11.0322 14.9724 11.0322C12.7963 11.0322 11.0323 12.7963 11.0323 14.9723C11.0323 17.1484 12.7963 18.9124 14.9724 18.9124C17.1484 18.9124 18.9125 17.1484 18.9125 14.9723Z" fill="white"/>
<path d="M18.0844 14.1524C17.9986 13.8781 17.7875 13.673 17.5195 13.6039L16.3087 13.2896L15.6476 12.1872C15.3544 11.6968 14.5889 11.6979 14.2962 12.1872L13.6351 13.2896L12.4243 13.6039C12.1563 13.673 11.9447 13.8781 11.8594 14.1524C11.7741 14.4267 11.8289 14.7223 12.0068 14.9433L12.8091 15.9382L12.7217 17.2349C12.7022 17.5223 12.8244 17.7949 13.0481 17.9644C13.1871 18.0697 13.3502 18.124 13.5155 18.124C13.6161 18.124 13.7177 18.1036 13.8151 18.0625L14.9722 17.5755L16.1288 18.0625C16.3851 18.1712 16.6715 18.1338 16.8957 17.965C17.1194 17.7954 17.2416 17.5229 17.2226 17.2349L17.1353 15.9382L17.9375 14.9427C18.115 14.7223 18.1702 14.4267 18.0844 14.1524ZM16.2861 15.4561C16.2072 15.5543 16.1677 15.6805 16.1767 15.8089L16.2608 17.0538L15.1501 16.586C15.0932 16.5619 15.0327 16.5498 14.9726 16.5498C14.9127 16.5498 14.8522 16.5619 14.7953 16.586L13.685 17.0538L13.7687 15.8089C13.7771 15.681 13.7377 15.5543 13.6593 15.4561L12.8891 14.5007L14.0515 14.1985C14.1704 14.1672 14.2736 14.0899 14.3384 13.9813L14.9732 12.9232L15.6081 13.9813C15.6734 14.0899 15.776 14.1677 15.895 14.1985L17.0574 14.5007L16.2861 15.4561Z" fill="#363636"/>
</g>
<defs>
<filter id="filter0_d_247_2625" x="10.5323" y="10.5322" width="8.88019" height="8.88037" filterUnits="userSpaceOnUse" color-interpolation-filters="sRGB">
<feFlood flood-opacity="0" result="BackgroundImageFix"/>
<feColorMatrix in="SourceAlpha" type="matrix" values="0 0 0 0 0 0 0 0 0 0 0 0 0 0 0 0 0 0 127 0" result="hardAlpha"/>
<feOffset/>
<feGaussianBlur stdDeviation="0.25"/>
<feComposite in2="hardAlpha" operator="out"/>
<feColorMatrix type="matrix" values="0 0 0 0 0.129412 0 0 0 0 0.105882 0 0 0 0 0.32549 0 0 0 1 0"/>
<feBlend mode="normal" in2="BackgroundImageFix" result="effect1_dropShadow_247_2625"/>
<feBlend mode="normal" in="SourceGraphic" in2="effect1_dropShadow_247_2625" result="shape"/>
</filter>
</defs>
</svg>
