<svg width="22" height="20" viewBox="0 0 22 20" fill="none" xmlns="http://www.w3.org/2000/svg">
<path d="M21.5846 9.72227L12.3926 0.688017C11.6044 -0.0867751 10.3219 -0.0867328 9.53377 0.687975L0.34179 9.72227C0.0922534 9.96754 0.0887905 10.3686 0.33402 10.6181C0.579249 10.8675 0.980307 10.8711 1.2298 10.6259L1.94513 9.92277V17.1355C1.94513 18.6558 3.18196 19.8926 4.7022 19.8926H17.2242C18.7445 19.8926 19.9813 18.6558 19.9813 17.1355V9.92277L20.6966 10.6259C20.82 10.7471 20.9803 10.8075 21.1406 10.8075C21.3045 10.8075 21.4684 10.7443 21.5924 10.6181C21.8376 10.3686 21.8342 9.96754 21.5846 9.72227ZM18.7143 17.1355C18.7143 17.9572 18.0458 18.6257 17.2242 18.6257H4.7022C3.88053 18.6257 3.21203 17.9572 3.21203 17.1355V8.67762L10.4218 1.59153C10.4964 1.51817 10.5828 1.46315 10.675 1.42645C10.9285 1.32561 11.2262 1.3634 11.4465 1.53992C11.4665 1.55597 11.4859 1.57316 11.5046 1.59153L18.7144 8.67758V17.1355H18.7143Z" fill="#363636"/>
<path d="M9.06659 7.50796V9.54644H7.02798C6.67815 9.54644 6.39453 9.83006 6.39453 10.1799V12.708C6.39453 13.0579 6.67815 13.3415 7.02798 13.3415H9.06659V15.3799C9.06659 15.7297 9.3502 16.0134 9.70004 16.0134H12.2282C12.578 16.0134 12.8616 15.7297 12.8616 15.3799V13.3415H14.8999C15.2497 13.3415 15.5333 13.0579 15.5333 12.708V10.1799C15.5333 9.83006 15.2497 9.54644 14.8999 9.54644H12.8616V7.50796C12.8616 7.15813 12.578 6.87451 12.2282 6.87451H9.70004C9.3502 6.87451 9.06659 7.15813 9.06659 7.50796ZM10.3335 10.1799V8.14141H11.5947V10.1799C11.5947 10.5297 11.8783 10.8133 12.2282 10.8133H14.2664V12.0746H12.2282C11.8783 12.0746 11.5947 12.3582 11.5947 12.708V14.7465H10.3335V12.708C10.3335 12.3582 10.0499 12.0746 9.70004 12.0746H7.66143V10.8133H9.70004C10.0499 10.8133 10.3335 10.5297 10.3335 10.1799Z" fill="#363636"/>
</svg>
