<svg width="52" height="61" viewBox="0 0 52 61" fill="none" xmlns="http://www.w3.org/2000/svg">
<path d="M38.9999 0.359375C32.54 0.359375 30.337 2.01535 28.728 3.22438C27.785 3.93242 27.2161 4.35934 26 4.35934C24.794 4.35934 24.241 3.93734 23.324 3.23633C21.733 2.02238 19.556 0.359375 13.0001 0.359375C2.18707 0.359375 0 3.21934 0 17.3594C0 24.2704 3.58605 30.6075 6.03304 34.1325C6.20003 35.4465 6.34605 37.0875 6.49804 38.8314C7.29397 47.9173 8.38499 60.3594 15 60.3594C19.982 60.3594 20.79 56.2864 21.571 52.3474C22.231 49.0234 22.974 45.2824 26 42.6444C29.026 45.2824 29.769 49.0234 30.429 52.3474C31.21 56.2864 32.018 60.3594 37 60.3594C37.12 60.3594 37.239 60.3373 37.3521 60.2954C43.72 57.9073 44.762 46.6544 45.522 38.4384C45.668 36.8694 45.807 35.3894 45.966 34.1334C48.4141 30.6084 52 24.2714 52 17.3594C52 3.21934 49.814 0.359375 38.9999 0.359375ZM42.252 35.6954C41.886 36.1084 41.924 36.7404 42.336 37.1074C42.526 37.2754 42.764 37.3593 43 37.3593C43.231 37.3593 43.4531 37.2614 43.639 37.1033C43.6031 37.4813 43.5671 37.8643 43.531 38.2532C42.827 45.8602 41.8651 56.2473 36.815 58.3572C33.786 58.2732 33.208 56.0823 32.39 51.9582C31.657 48.2652 30.745 43.6682 26.6 40.5593C26.244 40.2932 25.756 40.2932 25.4 40.5593C21.255 43.6682 20.343 48.2653 19.61 51.9582C18.775 56.1642 18.191 58.3592 15 58.3592C10.217 58.3592 9.13698 46.0252 8.48999 38.6572C8.443 38.1252 8.39694 37.6072 8.35194 37.0982C8.72495 37.4243 9.28299 37.4443 9.66397 37.1073C10.076 36.7402 10.114 36.1082 9.74799 35.6953C9.66995 35.6083 2.00004 26.8503 2.00004 17.3593C2.00004 3.56129 3.80308 2.3593 13.0001 2.3593C18.879 2.3593 20.671 3.72734 22.1101 4.82633C23.098 5.58043 24.118 6.35938 26 6.35938C27.884 6.35938 28.923 5.57832 29.9289 4.82234C31.3899 3.72535 33.208 2.3593 38.9999 2.3593C48.0569 2.3593 50 3.65129 50 17.3593C50 26.8504 42.3299 35.6084 42.252 35.6954Z" fill="white"/>
</svg>
