<svg width="22" height="22" viewBox="0 0 22 22" fill="none" xmlns="http://www.w3.org/2000/svg">
<path d="M16.418 12.0143C16.4163 12.0137 16.4147 12.0132 16.413 12.0125L13.0327 10.8447C12.8733 10.7509 12.7062 10.6662 12.5321 10.5913V9.92643C13.1645 9.5035 13.6046 8.86971 13.7168 8.14515C14.4853 8.14266 15.1096 7.59196 15.1096 6.91528C15.1096 6.57183 14.9486 6.261 14.6898 6.03764V5.06111C14.6898 3.09752 12.8742 1.5 10.6425 1.5C8.41074 1.5 6.59512 3.09752 6.59512 5.06111V6.03772C6.33637 6.26108 6.17542 6.57187 6.17542 6.91528C6.17542 7.59196 6.79976 8.14266 7.56817 8.14515C7.68036 8.86967 8.12043 9.50346 8.75279 9.92639V10.594C8.58138 10.6681 8.41689 10.7513 8.26042 10.8434L4.87617 12.0126C4.87449 12.0132 4.8728 12.0138 4.87115 12.0144C4.80063 12.0399 3.14453 12.6585 3.14453 14.36V20.2C3.14453 20.3657 3.29713 20.5 3.48549 20.5H13.1235C13.3119 20.5 13.4645 20.3657 13.4645 20.2C13.4645 20.0343 13.3119 19.9 13.1235 19.9H8.98674V17C8.98674 16.8343 8.83415 16.7001 8.64578 16.7001C8.45742 16.7001 8.30483 16.8344 8.30483 17V19.9H6.40566V16.8667C6.40566 16.7009 6.25307 16.5667 6.06471 16.5667C5.87635 16.5667 5.72375 16.701 5.72375 16.8667V19.9H3.82644V14.3599C3.82644 13.0782 5.05808 12.5964 5.12894 12.5699L7.06505 11.9009C6.62582 12.4844 6.36905 13.1746 6.35045 13.9009C6.35041 13.9031 6.35037 13.9054 6.35037 13.9077V14.4795C6.01329 14.5988 5.77445 14.8889 5.77445 15.2277C5.77445 15.6725 6.18575 16.0344 6.69132 16.0344C7.19681 16.0344 7.60812 15.6725 7.60812 15.2277C7.60812 14.8889 7.36931 14.5989 7.03228 14.4795V13.9111C7.05982 12.8878 7.64835 11.9494 8.58096 11.3771L8.75789 11.316C8.77071 11.3836 8.80913 11.4459 8.86835 11.4918L10.1252 12.4656L8.42153 13.7739C8.34734 13.8309 8.30479 13.9133 8.30479 13.9999V16.1199C8.30479 16.2856 8.45742 16.4199 8.64574 16.4199C8.83406 16.4199 8.9867 16.2856 8.9867 16.1199V14.1363L10.8443 12.7098C10.8531 12.7042 10.8617 12.6982 10.87 12.6918L12.4187 11.4918C12.4324 11.4812 12.4445 11.4695 12.456 11.4574C12.4577 11.4556 12.4594 11.4538 12.461 11.4521C12.4717 11.4401 12.4814 11.4274 12.4899 11.4141C12.4912 11.4121 12.4924 11.4101 12.4936 11.4081C12.5105 11.3804 12.5223 11.3505 12.5286 11.3193C12.5289 11.3179 12.5295 11.3167 12.5297 11.3154L12.7088 11.3773C13.2553 11.7119 13.6887 12.1739 13.9568 12.7143H13.8591C13.2777 12.7143 12.8046 13.1304 12.8046 13.6419V15.1066C12.8046 15.6181 13.2776 16.0342 13.8591 16.0342C14.0474 16.0342 14.2 15.8999 14.2 15.7342C14.2 15.5685 14.0474 15.4342 13.8591 15.4342C13.6537 15.4342 13.4866 15.2872 13.4866 15.1066V13.6419C13.4866 13.4612 13.6537 13.3143 13.8591 13.3143H15.048C15.2534 13.3143 15.4204 13.4613 15.4204 13.6419V15.1066C15.4204 15.2873 15.2533 15.4342 15.048 15.4342C14.8596 15.4342 14.707 15.5685 14.707 15.7342C14.707 15.8999 14.8596 16.0342 15.048 16.0342C15.6294 16.0342 16.1024 15.6181 16.1024 15.1066V13.6419C16.1024 13.1304 15.6294 12.7143 15.048 12.7143H14.6903C14.5731 12.426 14.4177 12.1537 14.2289 11.9025L16.1602 12.5697C16.2123 12.5894 17.4626 13.0766 17.4626 14.3598V19.8998H15.5655V16.8665C15.5655 16.7008 15.4129 16.5665 15.2245 16.5665C15.0362 16.5665 14.8836 16.7008 14.8836 16.8665V19.8998H14.1387C13.9503 19.8998 13.7977 20.0341 13.7977 20.1998C13.7977 20.3656 13.9503 20.4998 14.1387 20.4998H17.8036C17.9919 20.4998 18.1445 20.3656 18.1445 20.1998V14.3599C18.1447 12.6585 16.4885 12.0399 16.418 12.0143ZM6.69137 15.4344C6.5618 15.4344 6.4564 15.3416 6.4564 15.2276C6.4564 15.1137 6.5618 15.021 6.69137 15.021C6.82089 15.021 6.92621 15.1137 6.92621 15.2276C6.92625 15.3417 6.82089 15.4344 6.69137 15.4344ZM14.0185 6.34643C14.0344 6.35311 14.0499 6.36027 14.0652 6.36791C14.0694 6.37003 14.0737 6.37218 14.0779 6.37441C14.0921 6.3819 14.1059 6.38988 14.1195 6.39816C14.1238 6.40079 14.1282 6.40335 14.1324 6.40606C14.3111 6.52069 14.4277 6.70617 14.4277 6.91531C14.4277 7.25264 14.1248 7.52891 13.7458 7.54457V6.2865C13.7491 6.28661 13.7524 6.28665 13.7557 6.28687C13.772 6.28776 13.788 6.28913 13.804 6.29099C13.8092 6.29158 13.8145 6.29195 13.8197 6.29266C13.8641 6.29859 13.9072 6.30802 13.9485 6.32079C13.9498 6.32119 13.9512 6.32171 13.9525 6.32212C13.9715 6.32813 13.99 6.33481 14.0083 6.34212C14.0117 6.3435 14.0151 6.34498 14.0185 6.34643ZM7.53924 7.54454C7.1602 7.52891 6.85733 7.2526 6.85733 6.91531C6.85733 6.70617 6.97395 6.52058 7.15278 6.40595C7.15687 6.40335 7.16105 6.4009 7.16514 6.39838C7.17889 6.38999 7.19289 6.3819 7.20727 6.37433C7.21136 6.37218 7.21554 6.37007 7.21967 6.36799C7.23498 6.36031 7.25063 6.35307 7.26661 6.34639C7.26999 6.34498 7.27328 6.3435 7.27665 6.34216C7.29491 6.33481 7.31356 6.3281 7.33262 6.32208C7.33388 6.32168 7.33515 6.32119 7.33646 6.32082C7.37779 6.30802 7.42089 6.29863 7.46526 6.29266C7.47045 6.29199 7.47572 6.29158 7.48095 6.29099C7.4969 6.28913 7.51305 6.28776 7.52933 6.28687C7.53262 6.28672 7.53591 6.28668 7.53924 6.2865V7.54454ZM7.65409 5.36211C7.58104 5.41907 7.5392 5.50078 7.5392 5.58665V5.68562C7.53203 5.68577 7.52486 5.68626 7.51769 5.68652C7.50824 5.68685 7.49884 5.68718 7.48943 5.68767C7.47467 5.68841 7.45991 5.68945 7.44523 5.69063C7.43772 5.69123 7.43017 5.69178 7.42271 5.69253C7.40487 5.6942 7.3872 5.69624 7.36952 5.6985C7.36543 5.69902 7.36134 5.69947 7.35725 5.70002C7.33038 5.70373 7.3036 5.70782 7.27707 5.71283V5.06111C7.27707 3.42834 8.78682 2.10002 10.6425 2.10002C12.4981 2.10002 14.0079 3.42838 14.0079 5.06111V5.71275C13.9812 5.7077 13.9543 5.70362 13.9273 5.69995C13.9236 5.69943 13.9198 5.69902 13.9161 5.69854C13.8981 5.6962 13.8801 5.6942 13.862 5.69245C13.8547 5.69178 13.8473 5.69123 13.84 5.69063C13.8252 5.68945 13.8103 5.68841 13.7953 5.68763C13.786 5.68715 13.7766 5.68677 13.7672 5.68648C13.7601 5.68625 13.7529 5.6857 13.7457 5.68559V5.58662C13.7457 5.5108 13.713 5.43777 13.6544 5.38229L12.5688 4.35559C12.4531 4.24612 12.2642 4.22905 12.1256 4.31336C12.1218 4.31574 12.1178 4.31782 12.114 4.32034C12.0988 4.33039 10.5732 5.32288 8.56384 5.32288C8.34861 5.32288 8.13245 5.31145 7.92128 5.28885C7.82419 5.2785 7.72714 5.30518 7.65409 5.36211ZM11.8502 11.1312L10.6436 12.0661L9.43702 11.1312V10.7849C9.43702 10.774 9.43605 10.7632 9.4347 10.7524V10.2723C9.46991 10.2851 9.5056 10.2967 9.54136 10.3083C9.54524 10.3095 9.549 10.3109 9.55288 10.3122C9.59269 10.325 9.63288 10.3368 9.67325 10.3481C9.6813 10.3504 9.68923 10.3529 9.69733 10.3551C9.73411 10.3651 9.77127 10.3741 9.80842 10.3829C9.8204 10.3858 9.83221 10.3889 9.84423 10.3916C9.87844 10.3993 9.91294 10.406 9.94744 10.4126C9.96266 10.4156 9.97776 10.4188 9.99307 10.4216C10.0254 10.4273 10.0579 10.4321 10.0905 10.4369C10.1082 10.4396 10.1257 10.4426 10.1436 10.445C10.1751 10.4492 10.2068 10.4523 10.2385 10.4557C10.2576 10.4577 10.2764 10.4602 10.2955 10.4618C10.3293 10.4648 10.3632 10.4667 10.3971 10.4686C10.4143 10.4696 10.4313 10.4712 10.4485 10.4719C10.4999 10.4742 10.5514 10.4754 10.603 10.4754H10.6819C10.7335 10.4754 10.785 10.4742 10.8363 10.4719C10.8536 10.4712 10.8706 10.4696 10.8878 10.4686C10.9217 10.4666 10.9556 10.4648 10.9894 10.4618C11.0086 10.4602 11.0275 10.4577 11.0466 10.4557C11.0782 10.4524 11.1098 10.4492 11.1413 10.445C11.1592 10.4426 11.1769 10.4395 11.1946 10.4369C11.2271 10.4321 11.2595 10.4273 11.2917 10.4216C11.3072 10.4189 11.3224 10.4155 11.3378 10.4125C11.3722 10.4059 11.4065 10.3992 11.4406 10.3916C11.4528 10.3888 11.4648 10.3856 11.477 10.3828C11.514 10.374 11.5509 10.365 11.5874 10.3551C11.5958 10.3529 11.604 10.3502 11.6124 10.3479C11.6525 10.3366 11.6923 10.3249 11.7318 10.3123C11.7361 10.3109 11.7403 10.3094 11.7446 10.308C11.78 10.2965 11.8153 10.2849 11.8502 10.2723V11.1312ZM11.5012 9.74753C11.5003 9.74786 11.4994 9.74812 11.4984 9.74842C11.426 9.77172 11.352 9.79209 11.2765 9.8092C11.2764 9.80924 11.2762 9.80928 11.276 9.80928C11.2417 9.81707 11.207 9.82401 11.1721 9.83043C11.1647 9.8318 11.1572 9.83314 11.1497 9.83447C11.1183 9.84 11.0867 9.84501 11.0547 9.84943C11.05 9.85006 11.0453 9.85088 11.0406 9.85151C11.0048 9.85626 10.9688 9.86026 10.9326 9.86364C10.9242 9.86442 10.9158 9.86498 10.9075 9.86568C10.8791 9.86806 10.8506 9.86995 10.822 9.87143C10.8117 9.87195 10.8015 9.87251 10.7912 9.87292C10.7549 9.87437 10.7184 9.87537 10.6817 9.87537H10.6029C10.5661 9.87537 10.5297 9.87437 10.4933 9.87292C10.4831 9.87251 10.4729 9.87195 10.4626 9.87143C10.434 9.86995 10.4054 9.86802 10.377 9.86568C10.3687 9.86501 10.3603 9.86446 10.352 9.86368C10.3158 9.8603 10.2797 9.85633 10.244 9.85154C10.2393 9.85091 10.2346 9.85013 10.2299 9.8495C10.198 9.84505 10.1663 9.84008 10.1347 9.83451C10.1273 9.83317 10.12 9.83188 10.1126 9.8305C10.0776 9.82401 10.0427 9.81711 10.0083 9.80928H10.0082C9.93255 9.79213 9.8584 9.77172 9.78586 9.74834C9.78514 9.74812 9.78447 9.7479 9.78371 9.74767C8.87278 9.4531 8.22107 8.68208 8.22107 7.77955V6.02525V5.91437C8.33511 5.92004 8.44958 5.9229 8.56379 5.9229C10.3235 5.9229 11.7155 5.26095 12.2685 4.95249L13.0637 5.70466V6.02525V7.77955C13.0638 8.68197 12.4122 9.45295 11.5012 9.74753Z" fill="#363636"/>
</svg>
