<svg width="21" height="21" viewBox="0 0 21 21" fill="none" xmlns="http://www.w3.org/2000/svg">
<path d="M17.2317 4.06527V17.0925C17.2323 17.3187 17.1747 17.5412 17.0647 17.7388C16.9546 17.9364 16.7955 18.1025 16.6028 18.2211C16.4102 18.3396 16.1903 18.4066 15.9643 18.4157C15.7383 18.4249 15.5137 18.3758 15.312 18.2733L10.8289 16.0112C10.7268 15.9599 10.614 15.9332 10.4997 15.9332C10.3854 15.9332 10.2727 15.9599 10.1706 16.0112L5.68746 18.2733C5.4857 18.3751 5.26123 18.4236 5.03544 18.4141C4.80965 18.4046 4.59006 18.3373 4.39759 18.2189C4.20512 18.1005 4.04618 17.9347 3.93593 17.7374C3.82568 17.5401 3.76778 17.3179 3.76776 17.092V15.4113C3.76776 15.3328 3.79898 15.2574 3.85456 15.2018C3.91013 15.1462 3.98552 15.115 4.06411 15.115C4.14271 15.115 4.21809 15.1462 4.27367 15.2018C4.32924 15.2574 4.36047 15.3328 4.36047 15.4113V17.0926C4.36049 17.2175 4.39247 17.3402 4.45336 17.449C4.51426 17.558 4.60203 17.6495 4.70832 17.7149C4.81461 17.7803 4.93587 17.8174 5.06054 17.8226C5.18523 17.8278 5.30918 17.801 5.42057 17.7448L9.90345 15.482C10.0885 15.3891 10.2927 15.3407 10.4997 15.3407C10.7068 15.3407 10.9109 15.3891 11.096 15.482L15.5789 17.7448C15.6903 17.801 15.8142 17.8278 15.9389 17.8226C16.0636 17.8174 16.1848 17.7803 16.2912 17.7149C16.3974 17.6495 16.4852 17.558 16.5461 17.449C16.607 17.3402 16.6389 17.2175 16.639 17.0926V4.06527C16.6386 3.82949 16.5447 3.60349 16.378 3.43682C16.2113 3.27015 15.9852 3.17643 15.7494 3.1762H5.25004C5.01426 3.17643 4.7882 3.27015 4.62145 3.43682C4.45468 3.60349 4.36083 3.82949 4.36047 4.06527V11.4035C4.36047 11.4821 4.32924 11.5574 4.27367 11.613C4.21809 11.6686 4.14271 11.6999 4.06411 11.6999C3.98552 11.6999 3.91013 11.6686 3.85456 11.613C3.79898 11.5574 3.76776 11.4821 3.76776 11.4035V4.06527C3.7683 3.67235 3.92465 3.2957 4.20254 3.01791C4.48041 2.74013 4.85713 2.5839 5.25004 2.5835H15.7494C16.1423 2.5839 16.519 2.74013 16.7969 3.01791C17.0748 3.2957 17.2312 3.67235 17.2317 4.06527ZM4.06462 13.732C4.10355 13.732 4.14209 13.7244 4.17806 13.7095C4.21402 13.6946 4.2467 13.6728 4.27423 13.6452C4.30175 13.6177 4.32357 13.5851 4.33847 13.549C4.35335 13.5131 4.361 13.4745 4.36097 13.4357V13.2946C4.36097 13.216 4.32975 13.1406 4.27417 13.085C4.2186 13.0295 4.14322 12.9982 4.06462 12.9982C3.98602 12.9982 3.91065 13.0295 3.85507 13.085C3.79949 13.1406 3.76827 13.216 3.76827 13.2946V13.4357C3.76824 13.4745 3.7759 13.5131 3.79078 13.549C3.80567 13.5851 3.82749 13.6177 3.85502 13.6452C3.88254 13.6728 3.91522 13.6946 3.95119 13.7095C3.98716 13.7244 4.0257 13.732 4.06462 13.732Z" fill="#363636" stroke="#363636" stroke-width="0.8"/>
<path d="M13.8541 6.50203C12.9436 5.55101 11.5085 5.50728 10.5495 6.34087C9.59071 5.50753 8.15574 5.55068 7.24495 6.50203C6.40263 7.38188 6.30691 8.75778 7.01217 9.84806C7.44886 10.523 8.4971 11.4361 10.217 12.6395L10.5535 12.875L10.9992 12.5557C12.2279 11.6776 13.5556 10.6692 14.0868 9.84798C14.792 8.75778 14.6963 7.3818 13.8541 6.50203ZM13.0967 9.1491C12.6699 9.80887 11.2814 10.8375 10.5474 11.3657C8.84947 10.152 8.22461 9.49268 8.00231 9.1491C7.62207 8.56137 7.65809 7.83575 8.08987 7.38467C8.583 6.86964 9.38037 6.8696 9.87357 7.38471L10.5495 8.09065L11.2255 7.38463C11.7186 6.8696 12.516 6.8696 13.009 7.38463C13.4409 7.83576 13.4769 8.56137 13.0967 9.1491Z" fill="#363636"/>
</svg>
