<svg width="54" height="65" viewBox="0 0 54 65" fill="none" xmlns="http://www.w3.org/2000/svg">
<path d="M52.7303 6.92012L52.7301 6.91968C52.3833 6.55021 44.1022 -2.09259 32.4529 1.04344C27.3484 2.41728 23.6049 5.9129 21.3268 11.4326C20.7619 12.8014 19.0485 13.3617 15.215 13.431C15.0398 13.4343 14.8648 13.4422 14.6918 13.4504C14.3909 13.4642 13.8315 13.4905 13.7503 13.4144C13.5224 13.2018 13.4411 12.8739 13.5435 12.5784C14.1184 10.9169 14.8475 9.6948 15.3588 8.96156C16.1978 7.75654 16.0158 6.09907 14.9355 5.1059L13.5768 3.8572L12.5356 2.88664C11.8667 2.26251 10.9648 1.98809 10.0612 2.13101C9.15894 2.27458 8.38728 2.81551 7.94382 3.61593C6.86833 5.55902 5.21085 8.68627 4.56235 9.92926L4.43436 10.1729C-0.517207 19.5773 -1.32641 29.0308 2.02916 38.2714C5.0754 46.6591 10.0125 53.954 15.9313 58.8116C20.475 62.5404 25.1388 64.4716 29.4447 64.4714C30.9281 64.4714 32.3695 64.242 33.7484 63.7781C38.923 62.0366 42.5104 56.143 43.85 47.1827C44.9975 39.5078 44.2537 30.4121 41.9089 23.4455C40.5203 19.32 37.0436 16.4959 31.2802 14.8117C31.0102 14.7329 30.7939 14.5379 30.687 14.2769C30.5799 14.0152 30.597 13.7246 30.734 13.4798C31.7294 11.7007 33.0902 10.5997 34.895 10.1141C41.0935 8.44522 45.6996 13.1584 45.8809 13.3478C47.6532 15.2365 50.6316 15.3302 52.52 13.5586C54.4078 11.7867 54.5024 8.80833 52.7303 6.92012ZM50.2661 11.1578C49.7017 11.6871 48.8117 11.6592 48.2699 11.0823C48.0216 10.8232 42.1003 4.76255 34.0384 6.93439C31.3698 7.65249 29.2908 9.31391 27.8596 11.8719C27.2298 12.9975 27.1495 14.3287 27.639 15.5247C28.1279 16.7185 29.118 17.611 30.356 17.9725C35.0742 19.3512 37.7533 21.4242 38.7871 24.4959C40.9759 30.9985 41.6674 39.505 40.5926 46.6958C39.4618 54.2603 36.5839 59.349 32.6973 60.657C28.4939 62.0719 23.1441 60.4713 18.0202 56.2659C12.5514 51.7778 7.97148 44.9878 5.12414 37.1474C2.09853 28.8157 2.84648 20.2565 7.34779 11.7075L7.4817 11.4522C8.18136 10.1115 9.63445 7.37719 10.6122 5.5959L12.4866 7.32824C11.8726 8.24742 11.0691 9.65858 10.4313 11.5016C9.90359 13.0269 10.3251 14.7232 11.5046 15.8231C12.5997 16.8441 13.8971 16.7835 14.8448 16.7398C14.9871 16.7333 15.1311 16.7262 15.2749 16.7238C17.8913 16.6764 22.7619 16.5884 24.3708 12.6892C26.238 8.16575 29.2451 5.31731 33.3089 4.22338C43.0704 1.59622 50.0336 8.8586 50.3293 9.17341C50.8586 9.73783 50.8303 10.628 50.2661 11.1578Z" fill="white"/>
<path d="M9.01007 27.3008C8.90535 26.4993 8.16948 25.9325 7.36972 26.038C6.56776 26.1421 6.00203 26.8764 6.10609 27.6782C6.16316 28.119 7.5741 38.5497 13.5055 45.2228C13.7908 45.5436 14.1851 45.7093 14.5831 45.7141C14.9348 45.7183 15.2889 45.5965 15.5728 45.3445C16.1772 44.807 16.2316 43.8817 15.6944 43.2771C10.3705 37.288 9.02302 27.3998 9.01007 27.3008Z" fill="white"/>
<path d="M18.2057 50.2317C19.0592 50.2317 19.7512 49.5397 19.7512 48.6861C19.7512 47.8326 19.0592 47.1406 18.2057 47.1406C17.3521 47.1406 16.6602 47.8326 16.6602 48.6861C16.6602 49.5397 17.3521 50.2317 18.2057 50.2317Z" fill="white"/>
</svg>
