<svg width="26" height="26" viewBox="0 0 26 26" fill="none" xmlns="http://www.w3.org/2000/svg">
<path d="M2.07155 12.8344C2.07126 10.8142 2.63779 8.83466 3.70626 7.12259C4.77473 5.41052 6.30194 4.03509 8.11303 3.1538C9.92411 2.27251 11.9458 1.92099 13.9467 2.1395C15.9476 2.35801 17.8467 3.1377 19.4266 4.3893H17.7963C17.6551 4.39067 17.5201 4.44795 17.4207 4.54868C17.3213 4.6494 17.2656 4.78544 17.2656 4.9272C17.2656 5.06897 17.3213 5.205 17.4207 5.30573C17.5201 5.40645 17.6551 5.46373 17.7963 5.4651H20.8277C20.9698 5.4651 21.1061 5.40843 21.2066 5.30755C21.3071 5.20667 21.3636 5.06984 21.3636 4.92718V1.88425C21.3643 1.81317 21.3509 1.74267 21.3243 1.6768C21.2977 1.61094 21.2583 1.55102 21.2085 1.50052C21.1587 1.45001 21.0994 1.40992 21.034 1.38256C20.9687 1.3552 20.8985 1.34112 20.8277 1.34112C20.7569 1.34112 20.6868 1.3552 20.6214 1.38256C20.5561 1.40992 20.4968 1.45001 20.447 1.50052C20.3971 1.55102 20.3578 1.61094 20.3311 1.6768C20.3045 1.74267 20.2912 1.81317 20.2918 1.88425V3.70574C17.9551 1.77085 14.9661 0.813031 11.9447 1.03094C8.92324 1.24885 6.10132 2.62576 4.06417 4.87609C2.02702 7.12643 0.930981 10.0775 1.00337 13.1172C1.07576 16.157 2.31102 19.0521 4.45296 21.2022C4.50251 21.2531 4.56162 21.2936 4.62688 21.3214C4.69213 21.3492 4.76224 21.3637 4.83313 21.3641C4.90401 21.3645 4.97428 21.3508 5.03985 21.3238C5.10542 21.2967 5.165 21.2569 5.21512 21.2066C5.26525 21.1563 5.30493 21.0965 5.33187 21.0307C5.35881 20.9648 5.37247 20.8943 5.37206 20.8232C5.37165 20.752 5.35718 20.6816 5.32949 20.6161C5.3018 20.5506 5.26143 20.4913 5.21073 20.4416C4.21237 19.4449 3.42087 18.2594 2.88203 16.9536C2.34319 15.6478 2.06771 14.2478 2.07155 12.8344Z" fill="white" stroke="white" stroke-width="0.4"/>
<path d="M8.05453 22.6128C7.83462 22.4772 7.61697 22.3261 7.40775 22.1643C7.32001 22.0964 7.21459 22.0754 7.11469 22.1061C7.01478 22.1367 6.92856 22.2165 6.875 22.3278C6.82145 22.4391 6.80494 22.5729 6.8291 22.6996C6.85327 22.8264 6.91614 22.9358 7.00387 23.0037C7.2342 23.1821 7.47377 23.3481 7.71584 23.4974C7.76162 23.5256 7.81133 23.5421 7.86213 23.546C7.91294 23.5498 7.96384 23.5409 8.01194 23.5198C8.06004 23.4987 8.10439 23.4658 8.14246 23.4229C8.18052 23.38 8.21157 23.3281 8.23381 23.27C8.25605 23.2119 8.26906 23.1489 8.27209 23.0844C8.27513 23.0199 8.26812 22.9554 8.25148 22.8943C8.23484 22.8333 8.20889 22.777 8.17511 22.7287C8.14133 22.6804 8.10038 22.6411 8.0546 22.6128H8.05453Z" fill="white" stroke="white" stroke-width="0.4"/>
<path d="M22.6104 8.05482C22.6386 8.10062 22.678 8.1416 22.7263 8.17542C22.7745 8.20924 22.8308 8.23524 22.8919 8.25194C22.9529 8.26864 23.0175 8.2757 23.0821 8.27273C23.1466 8.26976 23.2097 8.25682 23.2679 8.23464C23.3261 8.21245 23.3781 8.18147 23.4211 8.14345C23.464 8.10543 23.497 8.06112 23.5182 8.01305C23.5394 7.96498 23.5484 7.9141 23.5446 7.8633C23.5409 7.8125 23.5244 7.76278 23.4963 7.71698C23.348 7.47574 23.1822 7.23624 23.0037 7.00498C22.9701 6.9615 22.9259 6.92366 22.8738 6.89361C22.8216 6.86356 22.7624 6.8419 22.6996 6.82985C22.5728 6.80553 22.4389 6.82188 22.3273 6.8753C22.2158 6.92872 22.1358 7.01483 22.1049 7.11469C22.074 7.21456 22.0948 7.32 22.1626 7.40781C22.3249 7.61803 22.4756 7.83573 22.6104 8.05482Z" fill="white" stroke="white" stroke-width="0.4"/>
<path d="M14.2057 23.5503C13.8594 23.6012 13.509 23.6315 13.164 23.6418C13.0211 23.6486 12.886 23.7242 12.7875 23.8525C12.6889 23.9807 12.6347 24.1516 12.6364 24.3286C12.6381 24.5056 12.6955 24.6749 12.7964 24.8002C12.8973 24.9256 13.0338 24.9973 13.1767 25C13.181 25 13.1856 25 13.1898 24.9996C13.5691 24.9887 13.9541 24.9551 14.3344 24.8994C14.4788 24.8781 14.6105 24.7867 14.7005 24.6453C14.7904 24.5039 14.8314 24.324 14.8144 24.1452C14.7974 23.9664 14.7237 23.8033 14.6096 23.6917C14.4955 23.5801 14.3503 23.5291 14.2059 23.55L14.2057 23.5503Z" fill="white" stroke="white" stroke-width="0.4"/>
<path d="M11.448 23.8078C11.1046 23.7454 10.7594 23.6641 10.422 23.5658C10.2805 23.5247 10.1298 23.5463 10.003 23.626C9.87628 23.7058 9.78383 23.837 9.74602 23.9908C9.70821 24.1447 9.72814 24.3085 9.80144 24.4464C9.87473 24.5843 9.99537 24.6848 10.1368 24.7259C10.5082 24.8338 10.8882 24.9232 11.2664 24.9918C11.3378 25.0047 11.411 25.0023 11.4816 24.9845C11.5522 24.9667 11.6189 24.934 11.6779 24.8882C11.7369 24.8424 11.787 24.7844 11.8254 24.7175C11.8638 24.6506 11.8897 24.5762 11.9016 24.4985C11.9135 24.4207 11.9112 24.3412 11.8949 24.2644C11.8786 24.1876 11.8485 24.115 11.8063 24.0509C11.7642 23.9867 11.7109 23.9322 11.6494 23.8905C11.5879 23.8487 11.5195 23.8206 11.448 23.8076V23.8078Z" fill="white" stroke="white" stroke-width="0.4"/>
<path d="M24.3384 12.6374C24.1585 12.6338 23.9843 12.688 23.8539 12.7879C23.7236 12.8878 23.6478 13.0253 23.6433 13.1701C23.6324 13.5157 23.6012 13.8646 23.5502 14.2078C23.5289 14.3517 23.5795 14.4965 23.6907 14.6104C23.802 14.7243 23.9649 14.798 24.1436 14.8153C24.1706 14.8177 24.1978 14.819 24.225 14.819C24.3909 14.8188 24.5509 14.7697 24.6749 14.681C24.7989 14.5923 24.8782 14.4701 24.898 14.3375C24.9536 13.9605 24.9881 13.577 24.9997 13.1974C25.002 13.1256 24.9867 13.0542 24.9547 12.9873C24.9227 12.9203 24.8746 12.859 24.8132 12.807C24.7517 12.755 24.6782 12.7133 24.5967 12.6842C24.5153 12.655 24.4275 12.6391 24.3384 12.6374Z" fill="white" stroke="white" stroke-width="0.4"/>
<path d="M22.6197 19.2517C22.5202 19.1917 22.398 19.1692 22.2799 19.1893C22.1618 19.2093 22.0575 19.2702 21.9898 19.3586C21.8287 19.5695 21.6544 19.7761 21.4716 19.9724C21.4327 20.013 21.4033 20.0602 21.3851 20.111C21.3668 20.1619 21.3601 20.2155 21.3654 20.2687C21.3706 20.3219 21.3877 20.3736 21.4156 20.4209C21.4435 20.4681 21.4816 20.51 21.5279 20.5441C21.5741 20.5781 21.6275 20.6036 21.6849 20.6192C21.7423 20.6347 21.8026 20.64 21.8623 20.6346C21.9221 20.6293 21.98 20.6134 22.0328 20.588C22.0856 20.5626 22.1321 20.5281 22.1698 20.4865C22.3708 20.2707 22.5628 20.0437 22.7398 19.8117C22.7733 19.7679 22.7967 19.7187 22.8088 19.6669C22.8208 19.615 22.8213 19.5616 22.8102 19.5096C22.799 19.4576 22.7764 19.408 22.7438 19.3638C22.7111 19.3195 22.6689 19.2814 22.6197 19.2517Z" fill="white" stroke="white" stroke-width="0.4"/>
<path d="M23.5655 10.421C23.6629 10.7571 23.744 11.1023 23.8064 11.4472C23.8297 11.5761 23.902 11.6932 24.0104 11.7777C24.1188 11.8622 24.2563 11.9087 24.3985 11.9089C24.4317 11.9088 24.4647 11.9063 24.4974 11.9013C24.5753 11.8895 24.6498 11.8636 24.7168 11.8253C24.7838 11.787 24.8419 11.7369 24.8878 11.6779C24.9337 11.619 24.9666 11.5523 24.9844 11.4817C25.0022 11.411 25.0048 11.3379 24.9918 11.2664C24.9234 10.887 24.8341 10.5068 24.727 10.1369C24.686 9.99549 24.5855 9.8748 24.4476 9.80142C24.3097 9.72804 24.1457 9.70797 23.9917 9.74564C23.8377 9.78331 23.7063 9.87563 23.6264 10.0023C23.5465 10.1289 23.5246 10.2796 23.5657 10.421H23.5655Z" fill="white" stroke="white" stroke-width="0.4"/>
<path d="M19.9744 21.468C19.7768 21.6519 19.5697 21.8266 19.3592 21.9872C19.3152 22.0207 19.2776 22.0636 19.2484 22.1135C19.2192 22.1634 19.199 22.2192 19.189 22.2779C19.179 22.3365 19.1794 22.3968 19.1901 22.4553C19.2008 22.5138 19.2216 22.5693 19.2514 22.6187C19.2812 22.6682 19.3193 22.7105 19.3636 22.7434C19.408 22.7762 19.4576 22.7989 19.5098 22.8102C19.5619 22.8214 19.6155 22.821 19.6675 22.809C19.7194 22.7969 19.7688 22.7735 19.8127 22.74C20.0445 22.5634 20.2721 22.3714 20.4896 22.1693C20.5722 22.0924 20.6244 21.9818 20.6345 21.8617C20.6446 21.7416 20.612 21.6219 20.5436 21.5289C20.4753 21.4359 20.377 21.3772 20.2702 21.3658C20.1635 21.3544 20.057 21.3912 19.9744 21.468Z" fill="white" stroke="white" stroke-width="0.4"/>
<path d="M23.8985 16.3003C23.7627 16.2552 23.6153 16.2683 23.4886 16.3366C23.362 16.4048 23.2665 16.5228 23.223 16.6644C23.1201 17.0011 22.9999 17.3374 22.8657 17.6643C22.8363 17.7322 22.8203 17.8056 22.8184 17.8801C22.8166 17.9546 22.829 18.0288 22.8549 18.0982C22.8808 18.1677 22.9197 18.231 22.9693 18.2846C23.019 18.3382 23.0783 18.3809 23.144 18.4103C23.2096 18.4397 23.2802 18.4551 23.3516 18.4557C23.423 18.4563 23.4938 18.4421 23.5599 18.4138C23.626 18.3855 23.686 18.3437 23.7364 18.291C23.7869 18.2382 23.8268 18.1755 23.8537 18.1065C24.0018 17.7467 24.1342 17.376 24.2473 17.0053C24.2688 16.9351 24.2768 16.8612 24.2709 16.7878C24.265 16.7143 24.2453 16.6428 24.2129 16.5774C24.1805 16.5119 24.1361 16.4537 24.0821 16.4062C24.0282 16.3586 23.9658 16.3226 23.8985 16.3003Z" fill="white" stroke="white" stroke-width="0.4"/>
<path d="M17.6692 22.8624C17.3443 22.9956 17.0064 23.116 16.665 23.2203C16.5945 23.2418 16.5291 23.2764 16.4726 23.3221C16.4161 23.3678 16.3695 23.4237 16.3355 23.4866C16.3016 23.5495 16.2809 23.6182 16.2747 23.6888C16.2685 23.7594 16.2769 23.8304 16.2993 23.8979C16.3218 23.9654 16.3579 24.028 16.4057 24.0821C16.4534 24.1362 16.5118 24.1807 16.5776 24.2132C16.6433 24.2458 16.7151 24.2655 16.7888 24.2715C16.8625 24.2774 16.9368 24.2694 17.0073 24.2479C17.3828 24.1333 17.7548 24.0009 18.1128 23.8542C18.2502 23.7979 18.3586 23.6916 18.4142 23.5588C18.4697 23.426 18.4679 23.2775 18.409 23.1459C18.3502 23.0144 18.2391 22.9107 18.1004 22.8575C17.9616 22.8043 17.8064 22.8061 17.669 22.8624H17.6692Z" fill="white" stroke="white" stroke-width="0.4"/>
<path d="M17.0672 12.169C17.0672 11.3643 16.5381 10.7196 15.7191 10.5262C15.2693 10.4197 14.7965 10.4688 14.3782 10.6655C13.9598 10.8622 13.6204 11.1949 13.4155 11.6094C13.3581 11.7257 13.3491 11.8601 13.3905 11.9831C13.4319 12.1061 13.5202 12.2077 13.6363 12.2657C13.7523 12.3238 13.8867 12.3335 14.0099 12.2928C14.1331 12.2521 14.2352 12.1643 14.2939 12.0486C14.3987 11.831 14.575 11.6561 14.7934 11.5529C15.0117 11.4498 15.2589 11.4247 15.4935 11.482C15.6323 11.5147 16.0852 11.6611 16.0852 12.169C16.0852 12.6811 15.4937 13.0761 14.8675 13.4943C14.1625 13.965 13.3636 14.4984 13.3636 15.3816C13.3636 15.5118 13.4154 15.6367 13.5075 15.7288C13.5995 15.8209 13.7244 15.8726 13.8547 15.8726H16.5762C16.6411 15.8732 16.7054 15.861 16.7655 15.8366C16.8257 15.8122 16.8803 15.7761 16.9264 15.7305C16.9725 15.6848 17.0091 15.6305 17.0341 15.5706C17.0591 15.5107 17.0719 15.4465 17.0719 15.3816C17.0719 15.3167 17.0591 15.2525 17.0341 15.1926C17.0091 15.1327 16.9725 15.0784 16.9264 15.0327C16.8803 14.9871 16.8257 14.951 16.7655 14.9266C16.7054 14.9022 16.6411 14.89 16.5762 14.8906H14.6309C14.8367 14.6957 15.1274 14.5015 15.4127 14.3109C16.1884 13.7931 17.0672 13.2062 17.0672 12.169Z" fill="white"/>
<path d="M21.3574 13.7861C21.3574 13.6559 21.3057 13.531 21.2136 13.439C21.1215 13.3469 20.9966 13.2952 20.8664 13.2952H20.4675V10.6868C20.4674 10.5851 20.4359 10.4859 20.3771 10.4029C20.3183 10.32 20.2352 10.2573 20.1392 10.2236C20.0433 10.1899 19.9393 10.1868 19.8415 10.2147C19.7437 10.2426 19.657 10.3002 19.5934 10.3796L17.1078 13.479C17.0499 13.5513 17.0137 13.6383 17.0032 13.7302C16.9927 13.8221 17.0083 13.9152 17.0484 13.9985C17.0884 14.0819 17.1512 14.1523 17.2295 14.2016C17.3078 14.2509 17.3984 14.2771 17.4909 14.2771H19.4855V15.658C19.4849 15.7229 19.4971 15.7873 19.5215 15.8474C19.5459 15.9075 19.582 15.9622 19.6276 16.0083C19.6733 16.0544 19.7276 16.091 19.7875 16.1159C19.8474 16.1409 19.9116 16.1538 19.9765 16.1538C20.0414 16.1538 20.1056 16.1409 20.1655 16.1159C20.2254 16.091 20.2797 16.0544 20.3253 16.0083C20.371 15.9622 20.4071 15.9075 20.4315 15.8474C20.4559 15.7873 20.4681 15.7229 20.4675 15.658V14.2771H20.8664C20.9966 14.2771 21.1215 14.2254 21.2136 14.1333C21.3057 14.0412 21.3574 13.9163 21.3574 13.7861ZM19.4855 13.2952H18.5143L19.4855 12.0837V13.2952Z" fill="white"/>
<path d="M12.1466 9.93012C12.0834 9.91734 12.0183 9.91717 11.955 9.92963C11.8917 9.94208 11.8314 9.96691 11.7778 10.0027C11.7241 10.0385 11.678 10.0845 11.6422 10.1381C11.6063 10.1918 11.5814 10.252 11.5689 10.3153L10.4641 15.8389C10.4386 15.9665 10.4648 16.0992 10.537 16.2075C10.6092 16.3159 10.7215 16.3911 10.8492 16.4166C10.881 16.423 10.9134 16.4262 10.9458 16.4262C11.0592 16.4261 11.1691 16.3867 11.2568 16.3148C11.3444 16.2429 11.4045 16.1428 11.4268 16.0316L12.5315 10.508C12.5442 10.4448 12.5443 10.3797 12.5318 10.3164C12.5194 10.2532 12.4945 10.193 12.4588 10.1393C12.4231 10.0856 12.3771 10.0395 12.3235 10.0037C12.27 9.96776 12.2099 9.94277 12.1466 9.93012Z" fill="white"/>
<path d="M7.46565 16.1438C7.56261 16.1438 7.65738 16.115 7.73805 16.0612C7.81872 16.0074 7.88168 15.931 7.919 15.8415L9.7602 11.4226C9.79134 11.348 9.80356 11.2668 9.7958 11.1864C9.78803 11.1059 9.7605 11.0286 9.71567 10.9613C9.67084 10.894 9.61008 10.8389 9.5388 10.8007C9.46752 10.7626 9.38793 10.7427 9.30708 10.7427H6.82145C6.69206 10.7439 6.56839 10.7962 6.47734 10.8881C6.38629 10.9801 6.33521 11.1043 6.33521 11.2337C6.33521 11.3631 6.38629 11.4872 6.47734 11.5792C6.56839 11.6711 6.69206 11.7234 6.82145 11.7246H8.5706L7.01276 15.4639C6.98177 15.5385 6.96965 15.6196 6.97747 15.7C6.98529 15.7804 7.0128 15.8576 7.05758 15.9249C7.10236 15.9921 7.16301 16.0473 7.23419 16.0855C7.30536 16.1237 7.38486 16.1436 7.46565 16.1438Z" fill="white"/>
</svg>
