<svg width="22" height="22" viewBox="0 0 22 22" fill="none" xmlns="http://www.w3.org/2000/svg">
<path d="M0.528979 21.5053H20.6302C20.7705 21.5053 20.905 21.4499 21.0042 21.3514C21.1034 21.2529 21.1592 21.1193 21.1592 20.98V8.37393C21.1592 8.23462 21.1034 8.10102 21.0042 8.00252C20.905 7.90402 20.7705 7.84868 20.6302 7.84868H17.9853V3.12139C17.9853 2.98208 17.9296 2.84848 17.8304 2.74998C17.7312 2.65147 17.5966 2.59613 17.4563 2.59613H14.8114V2.07088C14.8114 1.65296 14.6442 1.25216 14.3466 0.956647C14.049 0.661135 13.6454 0.495117 13.2245 0.495117H7.93469C7.51381 0.495117 7.11017 0.661135 6.81256 0.956647C6.51495 1.25216 6.34775 1.65296 6.34775 2.07088V2.59613H3.70286C3.56256 2.59613 3.42801 2.65147 3.32881 2.74998C3.22961 2.84848 3.17388 2.98208 3.17388 3.12139V7.84868H0.528979C0.388685 7.84868 0.254137 7.90402 0.154935 8.00252C0.0557317 8.10102 0 8.23462 0 8.37393V20.98C0 21.1193 0.0557317 21.2529 0.154935 21.3514C0.254137 21.4499 0.388685 21.5053 0.528979 21.5053ZM17.9853 8.89919H20.1012V20.4548H17.9853V8.89919ZM12.1665 20.4548H8.99265V16.778H12.1665V20.4548ZM7.40571 2.07088C7.40571 1.93157 7.46144 1.79797 7.56065 1.69947C7.65985 1.60096 7.7944 1.54563 7.93469 1.54563H13.2245C13.3648 1.54563 13.4993 1.60096 13.5985 1.69947C13.6977 1.79797 13.7535 1.93157 13.7535 2.07088V7.32342C13.7535 7.46273 13.6977 7.59633 13.5985 7.69483C13.4993 7.79334 13.3648 7.84868 13.2245 7.84868H7.93469C7.7944 7.84868 7.65985 7.79334 7.56065 7.69483C7.46144 7.59633 7.40571 7.46273 7.40571 7.32342V2.07088ZM4.23184 3.64664H6.34775V7.32342C6.34775 7.74134 6.51495 8.14214 6.81256 8.43765C7.11017 8.73317 7.51381 8.89919 7.93469 8.89919H13.2245C13.6454 8.89919 14.049 8.73317 14.3466 8.43765C14.6442 8.14214 14.8114 7.74134 14.8114 7.32342V3.64664H16.9273V20.4548H13.2245V16.2527C13.2245 16.1134 13.1688 15.9798 13.0696 15.8813C12.9704 15.7828 12.8358 15.7275 12.6955 15.7275H8.46367C8.32338 15.7275 8.18883 15.7828 8.08963 15.8813C7.99042 15.9798 7.93469 16.1134 7.93469 16.2527V20.4548H4.23184V3.64664ZM1.05796 8.89919H3.17388V20.4548H1.05796V8.89919Z" fill="#363636"/>
<path d="M8.99382 5.22295H10.0518V6.27346C10.0518 6.41277 10.1075 6.54637 10.2067 6.64487C10.3059 6.74337 10.4405 6.79871 10.5808 6.79871C10.7211 6.79871 10.8556 6.74337 10.9548 6.64487C11.054 6.54637 11.1097 6.41277 11.1097 6.27346V5.22295H12.1677C12.308 5.22295 12.4425 5.16761 12.5417 5.06911C12.6409 4.9706 12.6967 4.837 12.6967 4.6977C12.6967 4.55839 12.6409 4.42479 12.5417 4.32629C12.4425 4.22778 12.308 4.17244 12.1677 4.17244H11.1097V3.12193C11.1097 2.98263 11.054 2.84903 10.9548 2.75052C10.8556 2.65202 10.7211 2.59668 10.5808 2.59668C10.4405 2.59668 10.3059 2.65202 10.2067 2.75052C10.1075 2.84903 10.0518 2.98263 10.0518 3.12193V4.17244H8.99382C8.85353 4.17244 8.71898 4.22778 8.61978 4.32629C8.52057 4.42479 8.46484 4.55839 8.46484 4.6977C8.46484 4.837 8.52057 4.9706 8.61978 5.06911C8.71898 5.16761 8.85353 5.22295 8.99382 5.22295Z" fill="#363636"/>
<path d="M6.87664 11.5261H7.93459C8.07489 11.5261 8.20944 11.4708 8.30864 11.3723C8.40784 11.2737 8.46357 11.1401 8.46357 11.0008C8.46357 10.8615 8.40784 10.7279 8.30864 10.6294C8.20944 10.5309 8.07489 10.4756 7.93459 10.4756H6.87664C6.73634 10.4756 6.60179 10.5309 6.50259 10.6294C6.40339 10.7279 6.34766 10.8615 6.34766 11.0008C6.34766 11.1401 6.40339 11.2737 6.50259 11.3723C6.60179 11.4708 6.73634 11.5261 6.87664 11.5261Z" fill="#363636"/>
<path d="M8.46357 13.6258C8.46357 13.4865 8.40784 13.3529 8.30864 13.2544C8.20944 13.1559 8.07489 13.1006 7.93459 13.1006H6.87664C6.73634 13.1006 6.60179 13.1559 6.50259 13.2544C6.40339 13.3529 6.34766 13.4865 6.34766 13.6258C6.34766 13.7651 6.40339 13.8987 6.50259 13.9973C6.60179 14.0958 6.73634 14.1511 6.87664 14.1511H7.93459C8.07489 14.1511 8.20944 14.0958 8.30864 13.9973C8.40784 13.8987 8.46357 13.7651 8.46357 13.6258Z" fill="#363636"/>
<path d="M10.0524 11.5261H11.1104C11.2507 11.5261 11.3852 11.4708 11.4844 11.3723C11.5836 11.2737 11.6394 11.1401 11.6394 11.0008C11.6394 10.8615 11.5836 10.7279 11.4844 10.6294C11.3852 10.5309 11.2507 10.4756 11.1104 10.4756H10.0524C9.91212 10.4756 9.77757 10.5309 9.67837 10.6294C9.57917 10.7279 9.52344 10.8615 9.52344 11.0008C9.52344 11.1401 9.57917 11.2737 9.67837 11.3723C9.77757 11.4708 9.91212 11.5261 10.0524 11.5261Z" fill="#363636"/>
<path d="M10.0524 14.1511H11.1104C11.2507 14.1511 11.3852 14.0958 11.4844 13.9973C11.5836 13.8987 11.6394 13.7651 11.6394 13.6258C11.6394 13.4865 11.5836 13.3529 11.4844 13.2544C11.3852 13.1559 11.2507 13.1006 11.1104 13.1006H10.0524C9.91212 13.1006 9.77757 13.1559 9.67837 13.2544C9.57917 13.3529 9.52344 13.4865 9.52344 13.6258C9.52344 13.7651 9.57917 13.8987 9.67837 13.9973C9.77757 14.0958 9.91212 14.1511 10.0524 14.1511Z" fill="#363636"/>
<path d="M13.2243 11.5261H14.2823C14.4225 11.5261 14.5571 11.4708 14.6563 11.3723C14.7555 11.2737 14.8112 11.1401 14.8112 11.0008C14.8112 10.8615 14.7555 10.7279 14.6563 10.6294C14.5571 10.5309 14.4225 10.4756 14.2823 10.4756H13.2243C13.084 10.4756 12.9494 10.5309 12.8502 10.6294C12.751 10.7279 12.6953 10.8615 12.6953 11.0008C12.6953 11.1401 12.751 11.2737 12.8502 11.3723C12.9494 11.4708 13.084 11.5261 13.2243 11.5261Z" fill="#363636"/>
<path d="M13.2243 14.1511H14.2823C14.4225 14.1511 14.5571 14.0958 14.6563 13.9973C14.7555 13.8987 14.8112 13.7651 14.8112 13.6258C14.8112 13.4865 14.7555 13.3529 14.6563 13.2544C14.5571 13.1559 14.4225 13.1006 14.2823 13.1006H13.2243C13.084 13.1006 12.9494 13.1559 12.8502 13.2544C12.751 13.3529 12.6953 13.4865 12.6953 13.6258C12.6953 13.7651 12.751 13.8987 12.8502 13.9973C12.9494 14.0958 13.084 14.1511 13.2243 14.1511Z" fill="#363636"/>
</svg>
