<svg width="20" height="20" viewBox="0 0 20 20" fill="none" xmlns="http://www.w3.org/2000/svg">
<path d="M10.0079 18.9499C9.48294 18.9499 8.96628 18.7749 8.55794 18.4249L7.24128 17.2999C7.10794 17.1833 6.77461 17.0666 6.59961 17.0666H5.14128C3.90794 17.0666 2.90794 16.0666 2.90794 14.8333V13.4083C2.90794 13.2333 2.79128 12.8999 2.68294 12.7749L1.54961 11.4416C0.866276 10.6333 0.866276 9.3666 1.54961 8.54994L2.68294 7.2166C2.79128 7.0916 2.90794 6.75827 2.90794 6.58327V5.1666C2.90794 3.93327 3.90794 2.93327 5.14128 2.93327H6.58294C6.75794 2.93327 7.08294 2.80827 7.22461 2.6916L8.54128 1.5666C9.35794 0.874935 10.6329 0.874935 11.4496 1.5666L12.7663 2.6916C12.8996 2.80827 13.2413 2.92494 13.4163 2.92494H14.8329C16.0663 2.92494 17.0663 3.92494 17.0663 5.15827V6.57494C17.0663 6.74994 17.1913 7.07494 17.3079 7.2166L18.4329 8.53327C19.1329 9.35827 19.1246 10.6333 18.4329 11.4416L17.3079 12.7583C17.1913 12.8999 17.0746 13.2249 17.0746 13.3999V14.8166C17.0746 16.0499 16.0746 17.0499 14.8413 17.0499H13.4246C13.2496 17.0499 12.9246 17.1749 12.7746 17.2916L11.4579 18.4166C11.0496 18.7749 10.5246 18.9499 10.0079 18.9499ZM5.14128 4.18327C4.59961 4.18327 4.15794 4.62494 4.15794 5.1666V6.58327C4.15794 7.05827 3.94128 7.65827 3.63294 8.02494L2.49961 9.35827C2.21628 9.69994 2.21628 10.2999 2.49961 10.6333L3.62461 11.9583C3.92461 12.2999 4.14961 12.9249 4.14961 13.3999V14.8249C4.14961 15.3666 4.59128 15.8083 5.13294 15.8083H6.58294C7.04961 15.8083 7.66628 16.0333 8.03294 16.3416L9.35794 17.4749C9.69961 17.7666 10.2996 17.7666 10.6413 17.4749L11.9579 16.3499C12.3329 16.0333 12.9413 15.8166 13.4079 15.8166H14.8246C15.3663 15.8166 15.8079 15.3749 15.8079 14.8333V13.4166C15.8079 12.9499 16.0329 12.3416 16.3413 11.9666L17.4746 10.6416C17.7663 10.2999 17.7663 9.69994 17.4746 9.35827L16.3496 8.0416C16.0329 7.6666 15.8163 7.05827 15.8163 6.5916V5.1666C15.8163 4.62494 15.3746 4.18327 14.8329 4.18327H13.4163C12.9413 4.18327 12.3246 3.95827 11.9579 3.64994L10.6329 2.5166C10.2913 2.22494 9.69961 2.22494 9.34961 2.5166L8.04128 3.64994C7.66628 3.95827 7.05794 4.18327 6.58294 4.18327H5.14128Z" fill="white"/>
<path d="M10.013 13.1889C9.55469 13.1889 9.17969 12.8139 9.17969 12.3555C9.17969 11.8972 9.54635 11.5222 10.013 11.5222C10.4714 11.5222 10.8464 11.8972 10.8464 12.3555C10.8464 12.8139 10.4797 13.1889 10.013 13.1889Z" fill="white"/>
<path d="M10.001 10.7677C9.65931 10.7677 9.37598 10.4844 9.37598 10.1427V6.10937C9.37598 5.76771 9.65931 5.48438 10.001 5.48438C10.3426 5.48438 10.626 5.76771 10.626 6.10937V10.1344C10.626 10.4844 10.351 10.7677 10.001 10.7677Z" fill="white"/>
</svg>
