<svg width="17" height="17" viewBox="0 0 17 17" fill="none" xmlns="http://www.w3.org/2000/svg">
<mask id="path-1-inside-1_33_2308" fill="white">
<path d="M8.5 0C3.80563 0 0 3.80563 0 8.5C0 13.1944 3.80563 17 8.5 17C13.1944 17 17 13.1944 17 8.5C16.9947 3.80785 13.1922 0.00525718 8.5 0ZM15.8513 11.4778L13.434 11.8949C13.7107 10.8801 13.8601 9.8349 13.8788 8.78333H16.4263C16.3943 9.70832 16.1997 10.6204 15.8513 11.4778ZM0.573722 8.78333H3.12123C3.13991 9.8349 3.28932 10.8801 3.56602 11.8949L1.14869 11.4778C0.800334 10.6204 0.60568 9.70832 0.573722 8.78333ZM1.14869 5.52223L3.56602 5.10512C3.28932 6.11989 3.13991 7.1651 3.12123 8.21667H0.573722C0.60568 7.29168 0.800334 6.37957 1.14869 5.52223ZM8.78333 4.54924C9.80142 4.56225 10.817 4.65494 11.8207 4.82663L12.8208 4.99915C13.1281 6.04477 13.2934 7.12691 13.3124 8.21667H8.78333V4.54924ZM11.9173 4.26812C10.8818 4.09118 9.8338 3.99558 8.78333 3.98258V0.582577C10.4077 0.738631 11.8187 2.22585 12.6183 4.39028L11.9173 4.26812ZM8.21667 3.98258C7.1662 3.99558 6.11851 4.09118 5.08298 4.26812L4.38171 4.38945C5.18135 2.22447 6.59234 0.736694 8.21667 0.581331V3.98258ZM5.17955 4.82663C6.18311 4.65494 7.19858 4.56225 8.21667 4.54924V8.21667H3.68762C3.70658 7.12691 3.8719 6.04477 4.17917 4.99915L5.17955 4.82663ZM3.68762 8.78333H8.21667V12.4508C7.19858 12.4378 6.18298 12.3451 5.17927 12.1734L4.17917 12.0009C3.8719 10.9552 3.70658 9.87309 3.68762 8.78333ZM5.08271 12.7319C6.11823 12.9091 7.16606 13.0051 8.21667 13.0189V16.4189C6.59234 16.2628 5.18135 14.7755 4.38171 12.6111L5.08271 12.7319ZM8.78333 13.0189C9.8338 13.0051 10.8815 12.9091 11.917 12.7319L12.6183 12.6105C11.8187 14.7755 10.4077 16.2633 8.78333 16.4187V13.0189ZM11.8205 12.1734C10.8169 12.3451 9.80142 12.4378 8.78333 12.4508V8.78333H13.3124C13.2934 9.87309 13.1281 10.9552 12.8208 12.0009L11.8205 12.1734ZM13.8788 8.21667C13.8601 7.1651 13.7107 6.11989 13.434 5.10512L15.8513 5.52223C16.1997 6.37957 16.3943 7.29168 16.4263 8.21667H13.8788ZM15.5647 4.89774L13.2475 4.49792C12.8309 3.13894 12.0516 1.91928 10.9933 0.970361C12.9723 1.63083 14.6135 3.04071 15.5647 4.89774ZM6.00672 0.970361C4.94837 1.91928 4.16907 3.13894 3.75251 4.49792L1.43534 4.89774C2.38647 3.04071 4.02768 1.63083 6.00672 0.970361ZM1.43534 12.1023L3.75251 12.5021C4.16907 13.8611 4.94837 15.0807 6.00672 16.0296C4.02768 15.3692 2.38647 13.9593 1.43534 12.1023ZM10.9933 16.0296C12.0516 15.0807 12.8309 13.8611 13.2475 12.5021L15.5647 12.1023C14.6135 13.9593 12.9723 15.3692 10.9933 16.0296Z"/>
</mask>
<path d="M8.5 0C3.80563 0 0 3.80563 0 8.5C0 13.1944 3.80563 17 8.5 17C13.1944 17 17 13.1944 17 8.5C16.9947 3.80785 13.1922 0.00525718 8.5 0ZM15.8513 11.4778L13.434 11.8949C13.7107 10.8801 13.8601 9.8349 13.8788 8.78333H16.4263C16.3943 9.70832 16.1997 10.6204 15.8513 11.4778ZM0.573722 8.78333H3.12123C3.13991 9.8349 3.28932 10.8801 3.56602 11.8949L1.14869 11.4778C0.800334 10.6204 0.60568 9.70832 0.573722 8.78333ZM1.14869 5.52223L3.56602 5.10512C3.28932 6.11989 3.13991 7.1651 3.12123 8.21667H0.573722C0.60568 7.29168 0.800334 6.37957 1.14869 5.52223ZM8.78333 4.54924C9.80142 4.56225 10.817 4.65494 11.8207 4.82663L12.8208 4.99915C13.1281 6.04477 13.2934 7.12691 13.3124 8.21667H8.78333V4.54924ZM11.9173 4.26812C10.8818 4.09118 9.8338 3.99558 8.78333 3.98258V0.582577C10.4077 0.738631 11.8187 2.22585 12.6183 4.39028L11.9173 4.26812ZM8.21667 3.98258C7.1662 3.99558 6.11851 4.09118 5.08298 4.26812L4.38171 4.38945C5.18135 2.22447 6.59234 0.736694 8.21667 0.581331V3.98258ZM5.17955 4.82663C6.18311 4.65494 7.19858 4.56225 8.21667 4.54924V8.21667H3.68762C3.70658 7.12691 3.8719 6.04477 4.17917 4.99915L5.17955 4.82663ZM3.68762 8.78333H8.21667V12.4508C7.19858 12.4378 6.18298 12.3451 5.17927 12.1734L4.17917 12.0009C3.8719 10.9552 3.70658 9.87309 3.68762 8.78333ZM5.08271 12.7319C6.11823 12.9091 7.16606 13.0051 8.21667 13.0189V16.4189C6.59234 16.2628 5.18135 14.7755 4.38171 12.6111L5.08271 12.7319ZM8.78333 13.0189C9.8338 13.0051 10.8815 12.9091 11.917 12.7319L12.6183 12.6105C11.8187 14.7755 10.4077 16.2633 8.78333 16.4187V13.0189ZM11.8205 12.1734C10.8169 12.3451 9.80142 12.4378 8.78333 12.4508V8.78333H13.3124C13.2934 9.87309 13.1281 10.9552 12.8208 12.0009L11.8205 12.1734ZM13.8788 8.21667C13.8601 7.1651 13.7107 6.11989 13.434 5.10512L15.8513 5.52223C16.1997 6.37957 16.3943 7.29168 16.4263 8.21667H13.8788ZM15.5647 4.89774L13.2475 4.49792C12.8309 3.13894 12.0516 1.91928 10.9933 0.970361C12.9723 1.63083 14.6135 3.04071 15.5647 4.89774ZM6.00672 0.970361C4.94837 1.91928 4.16907 3.13894 3.75251 4.49792L1.43534 4.89774C2.38647 3.04071 4.02768 1.63083 6.00672 0.970361ZM1.43534 12.1023L3.75251 12.5021C4.16907 13.8611 4.94837 15.0807 6.00672 16.0296C4.02768 15.3692 2.38647 13.9593 1.43534 12.1023ZM10.9933 16.0296C12.0516 15.0807 12.8309 13.8611 13.2475 12.5021L15.5647 12.1023C14.6135 13.9593 12.9723 15.3692 10.9933 16.0296Z" fill="white"/>
<path d="M8.5 0L8.5056 -5H8.5V0ZM17 8.5H22L22 8.4944L17 8.5ZM15.8513 11.4778L16.7015 16.405L19.4381 15.9327L20.4835 13.36L15.8513 11.4778ZM13.434 11.8949L8.61009 10.5796L6.5438 18.1577L14.2842 16.8221L13.434 11.8949ZM13.8788 8.78333V3.78333H8.96678L8.87956 8.69454L13.8788 8.78333ZM16.4263 8.78333L21.4233 8.95598L21.602 3.78333H16.4263V8.78333ZM0.573722 8.78333V3.78333H-4.60201L-4.4233 8.95598L0.573722 8.78333ZM3.12123 8.78333L8.12044 8.69454L8.03322 3.78333H3.12123V8.78333ZM3.56602 11.8949L2.71582 16.8221L10.4562 18.1577L8.38991 10.5796L3.56602 11.8949ZM1.14869 11.4778L-3.48352 13.36L-2.43813 15.9327L0.298494 16.405L1.14869 11.4778ZM1.14869 5.52223L0.298494 0.595046L-2.43813 1.06726L-3.48352 3.64005L1.14869 5.52223ZM3.56602 5.10512L8.38991 6.42043L10.4562 -1.15769L2.71582 0.177932L3.56602 5.10512ZM3.12123 8.21667V13.2167H8.03322L8.12044 8.30546L3.12123 8.21667ZM0.573722 8.21667L-4.4233 8.04402L-4.60201 13.2167H0.573722V8.21667ZM8.78333 4.54924L8.84719 -0.450349L3.78333 -0.515032V4.54924H8.78333ZM11.8207 4.82663L12.6707 -0.100607L12.6638 -0.10179L11.8207 4.82663ZM12.8208 4.99915L17.618 3.58945L16.7399 0.601339L13.6708 0.0719157L12.8208 4.99915ZM13.3124 8.21667V13.2167H18.4001L18.3116 8.12972L13.3124 8.21667ZM8.78333 8.21667H3.78333V13.2167H8.78333V8.21667ZM11.9173 4.26812L12.7757 -0.657643L12.7676 -0.659055L12.7595 -0.660441L11.9173 4.26812ZM8.78333 3.98258H3.78333V8.92106L8.72144 8.98219L8.78333 3.98258ZM8.78333 0.582577L9.2615 -4.39451L3.78333 -4.92081V0.582577H8.78333ZM12.6183 4.39028L11.7599 9.31605L20.3195 10.8077L17.3084 2.65752L12.6183 4.39028ZM8.21667 3.98258L8.27856 8.98219L13.2167 8.92106V3.98258H8.21667ZM5.08298 4.26812L4.24081 -0.660452L4.23058 -0.658682L5.08298 4.26812ZM4.38171 4.38945L-0.308591 2.65708L-3.31445 10.7953L5.2341 9.31626L4.38171 4.38945ZM8.21667 0.581331H13.2167V-4.91973L7.7406 -4.39595L8.21667 0.581331ZM5.17955 4.82663L4.33641 -0.101775L4.32983 -0.100641L5.17955 4.82663ZM8.21667 4.54924H13.2167V-0.515032L8.15281 -0.450349L8.21667 4.54924ZM8.21667 8.21667V13.2167H13.2167V8.21667H8.21667ZM3.68762 8.21667L-1.31162 8.12972L-1.4001 13.2167H3.68762V8.21667ZM4.17917 4.99915L3.32945 0.0718763L0.260139 0.601185L-0.617994 3.58945L4.17917 4.99915ZM3.68762 8.78333V3.78333H-1.4001L-1.31162 8.87028L3.68762 8.78333ZM8.21667 8.78333H13.2167V3.78333H8.21667V8.78333ZM8.21667 12.4508L8.15281 17.4503L13.2167 17.515V12.4508H8.21667ZM5.17927 12.1734L4.32933 17.1006L4.33625 17.1018L5.17927 12.1734ZM4.17917 12.0009L-0.617994 13.4106L0.260094 16.3987L3.32922 16.9281L4.17917 12.0009ZM5.08271 12.7319L4.23375 17.6593L4.23926 17.6602L5.08271 12.7319ZM8.21667 13.0189H13.2167V8.08435L8.2825 8.01938L8.21667 13.0189ZM8.21667 16.4189L7.73808 21.396L13.2167 21.9228V16.4189H8.21667ZM4.38171 12.6111L5.23066 7.6837L-3.31284 6.21172L-0.308447 14.3439L4.38171 12.6111ZM8.78333 13.0189L8.71749 8.01938L3.78333 8.08436V13.0189H8.78333ZM11.917 12.7319L12.7605 17.6602L12.7694 17.6587L11.917 12.7319ZM12.6183 12.6105L17.3086 14.3429L20.3145 6.20473L11.7659 7.68374L12.6183 12.6105ZM8.78333 16.4187H3.78333V21.9197L9.2594 21.396L8.78333 16.4187ZM11.8205 12.1734L12.6636 17.1018L12.6702 17.1006L11.8205 12.1734ZM8.78333 12.4508H3.78333V17.515L8.84719 17.4503L8.78333 12.4508ZM8.78333 8.78333V3.78333H3.78333V8.78333H8.78333ZM13.3124 8.78333L18.3116 8.87028L18.4001 3.78333H13.3124V8.78333ZM12.8208 12.0009L13.6705 16.9281L16.7399 16.3988L17.618 13.4106L12.8208 12.0009ZM13.8788 8.21667L8.87956 8.30546L8.96678 13.2167H13.8788V8.21667ZM13.434 5.10512L14.2842 0.177932L6.5438 -1.15768L8.61009 6.42043L13.434 5.10512ZM15.8513 5.52223L20.4835 3.64005L19.4381 1.06726L16.7015 0.595046L15.8513 5.52223ZM16.4263 8.21667V13.2167H21.602L21.4233 8.04402L16.4263 8.21667ZM15.5647 4.89774L14.7145 9.82493L24.5776 11.5268L20.0149 2.61841L15.5647 4.89774ZM13.2475 4.49792L8.46703 5.96325L9.36796 8.9024L12.3973 9.42511L13.2475 4.49792ZM10.9933 0.970361L12.5761 -3.77249L7.65545 4.69312L10.9933 0.970361ZM6.00672 0.970361L9.34455 4.69312L4.42389 -3.77249L6.00672 0.970361ZM3.75251 4.49792L4.60268 9.42511L7.63204 8.9024L8.53297 5.96325L3.75251 4.49792ZM1.43534 4.89774L-3.0149 2.61841L-7.5776 11.5268L2.28552 9.82493L1.43534 4.89774ZM1.43534 12.1023L2.28552 7.17507L-7.5776 5.47321L-3.0149 14.3816L1.43534 12.1023ZM3.75251 12.5021L8.53297 11.0368L7.63204 8.0976L4.60268 7.57489L3.75251 12.5021ZM6.00672 16.0296L4.42389 20.7725L9.34455 12.3069L6.00672 16.0296ZM10.9933 16.0296L7.65545 12.3069L12.5761 20.7725L10.9933 16.0296ZM13.2475 12.5021L12.3973 7.57489L9.36796 8.0976L8.46703 11.0368L13.2475 12.5021ZM15.5647 12.1023L20.0149 14.3816L24.5776 5.47321L14.7145 7.17507L15.5647 12.1023ZM8.5 -5C1.04421 -5 -5 1.04421 -5 8.5H5C5 6.56706 6.56706 5 8.5 5V-5ZM-5 8.5C-5 15.9558 1.04421 22 8.5 22V12C6.56706 12 5 10.4329 5 8.5H-5ZM8.5 22C15.9558 22 22 15.9558 22 8.5H12C12 10.4329 10.4329 12 8.5 12V22ZM22 8.4944C21.9917 1.0452 15.9548 -4.99165 8.5056 -5L8.4944 5C10.4295 5.00216 11.9978 6.57049 12 8.5056L22 8.4944ZM15.0011 6.55058L12.5838 6.96769L14.2842 16.8221L16.7015 16.405L15.0011 6.55058ZM18.2579 13.2102C18.6436 11.7955 18.8519 10.3383 18.878 8.87212L8.87956 8.69454C8.86824 9.33152 8.77774 9.96473 8.61009 10.5796L18.2579 13.2102ZM13.8788 13.7833H16.4263V3.78333H13.8788V13.7833ZM11.4293 8.61069C11.4176 8.94882 11.3464 9.28225 11.2191 9.59558L20.4835 13.36C21.0529 11.9586 21.3711 10.4678 21.4233 8.95598L11.4293 8.61069ZM0.573722 13.7833H3.12123V3.78333H0.573722V13.7833ZM-1.87798 8.87212C-1.85194 10.3383 -1.64362 11.7955 -1.25788 13.2102L8.38991 10.5796C8.22227 9.96473 8.13176 9.33153 8.12044 8.69454L-1.87798 8.87212ZM4.41621 6.96769L1.99889 6.55058L0.298494 16.405L2.71582 16.8221L4.41621 6.96769ZM5.7809 9.59558C5.65359 9.28225 5.58242 8.94882 5.57074 8.61069L-4.4233 8.95598C-4.37106 10.4678 -4.05292 11.9586 -3.48352 13.36L5.7809 9.59558ZM1.99889 10.4494L4.41621 10.0323L2.71582 0.177932L0.298494 0.595046L1.99889 10.4494ZM-1.25788 3.78981C-1.64362 5.20451 -1.85194 6.66172 -1.87798 8.12788L8.12044 8.30546C8.13176 7.66847 8.22227 7.03527 8.38991 6.42043L-1.25788 3.78981ZM3.12123 3.21667H0.573722V13.2167H3.12123V3.21667ZM5.57074 8.38931C5.58242 8.05118 5.65359 7.71775 5.7809 7.40442L-3.48352 3.64005C-4.05292 5.04138 -4.37106 6.53219 -4.4233 8.04402L5.57074 8.38931ZM8.71947 9.54884C9.47663 9.55851 10.2317 9.62744 10.9777 9.75505L12.6638 -0.10179C11.4023 -0.31756 10.1262 -0.434011 8.84719 -0.450349L8.71947 9.54884ZM10.9708 9.75386L11.9709 9.92638L13.6708 0.0719157L12.6707 -0.100602L10.9708 9.75386ZM8.02367 6.40884C8.20461 7.02457 8.30197 7.66182 8.31313 8.30362L18.3116 8.12972C18.2849 6.59201 18.0516 5.06496 17.618 3.58945L8.02367 6.40884ZM13.3124 3.21667H8.78333V13.2167H13.3124V3.21667ZM13.7833 8.21667V4.54924H3.78333V8.21667H13.7833ZM12.7595 -0.660441C11.4666 -0.881354 10.1578 -1.00079 8.84523 -1.01704L8.72144 8.98219C9.50982 8.99195 10.2969 9.06371 11.0751 9.19669L12.7595 -0.660441ZM13.7833 3.98258V0.582577H3.78333V3.98258H13.7833ZM8.30517 5.55966C7.69357 5.5009 7.4201 5.21396 7.45815 5.25236C7.47461 5.26898 7.54051 5.34095 7.63273 5.4933C7.72398 5.64405 7.82823 5.8526 7.92814 6.12305L17.3084 2.65752C16.2462 -0.217803 13.7292 -3.96528 9.2615 -4.39451L8.30517 5.55966ZM13.4767 -0.535483L12.7757 -0.657643L11.0589 9.19389L11.7599 9.31605L13.4767 -0.535483ZM8.15477 -1.01704C6.84215 -1.00079 5.53356 -0.88134 4.24081 -0.660441L5.92515 9.19669C6.70345 9.0637 7.49026 8.99195 8.27856 8.98219L8.15477 -1.01704ZM4.23058 -0.658682L3.52931 -0.537353L5.2341 9.31626L5.93538 9.19493L4.23058 -0.658682ZM9.072 6.12183C9.17197 5.85117 9.27627 5.64245 9.36757 5.49157C9.45985 5.33908 9.52577 5.26709 9.54217 5.25053C9.58015 5.21219 9.30585 5.49997 8.69273 5.55862L7.7406 -4.39595C3.27011 -3.96836 0.753047 -0.217239 -0.308591 2.65708L9.072 6.12183ZM3.21667 0.581331V3.98258H13.2167V0.581331H3.21667ZM6.02269 9.75503C6.7685 9.62744 7.5234 9.55851 8.28053 9.54884L8.15281 -0.450349C6.87376 -0.434011 5.59773 -0.317556 4.33641 -0.101771L6.02269 9.75503ZM3.21667 4.54924V8.21667H13.2167V4.54924H3.21667ZM8.21667 3.21667H3.68762V13.2167H8.21667V3.21667ZM8.68687 8.30362C8.69803 7.66182 8.79539 7.02457 8.97633 6.40884L-0.617994 3.58945C-1.05159 5.06496 -1.28488 6.59201 -1.31162 8.12972L8.68687 8.30362ZM5.02888 9.92641L6.02927 9.7539L4.32983 -0.100641L3.32945 0.0718763L5.02888 9.92641ZM3.68762 13.7833H8.21667V3.78333H3.68762V13.7833ZM3.21667 8.78333V12.4508H13.2167V8.78333H3.21667ZM8.28053 7.45116C7.52338 7.44149 6.7683 7.37256 6.0223 7.24495L4.33625 17.1018C5.59765 17.3176 6.87378 17.434 8.15281 17.4503L8.28053 7.45116ZM6.02922 7.24614L5.02911 7.07362L3.32922 16.9281L4.32933 17.1006L6.02922 7.24614ZM8.97633 10.5912C8.79539 9.97542 8.69803 9.33818 8.68687 8.69639L-1.31162 8.87028C-1.28488 10.408 -1.05159 11.935 -0.617994 13.4106L8.97633 10.5912ZM4.23926 17.6602C5.53161 17.8814 6.83945 18.0012 8.15083 18.0185L8.2825 8.01938C7.49268 8.00898 6.70484 7.9368 5.92616 7.80353L4.23926 17.6602ZM3.21667 13.0189V16.4189H13.2167V13.0189H3.21667ZM8.69525 11.4419C9.30666 11.5007 9.57999 11.7875 9.5419 11.7491C9.52541 11.7324 9.4595 11.6605 9.36727 11.5081C9.27602 11.3573 9.17177 11.1488 9.07186 10.8783L-0.308447 14.3439C0.753882 17.2193 3.27081 20.9664 7.73808 21.396L8.69525 11.4419ZM3.53275 17.5385L4.23375 17.6593L5.93166 7.80448L5.23066 7.6837L3.53275 17.5385ZM8.84918 18.0185C10.1605 18.0012 11.4682 17.8814 12.7605 17.6602L11.0736 7.80353C10.2948 7.93681 9.50712 8.00898 8.71749 8.01938L8.84918 18.0185ZM12.7694 17.6587L13.4707 17.5374L11.7659 7.68374L11.0646 7.80507L12.7694 17.6587ZM7.928 10.8782C7.82803 11.1488 7.72373 11.3576 7.63243 11.5084C7.54015 11.6609 7.47423 11.7329 7.45783 11.7495C7.41985 11.7878 7.69415 11.5 8.30727 11.4414L9.2594 21.396C13.7299 20.9684 16.247 17.2172 17.3086 14.3429L7.928 10.8782ZM13.7833 16.4187V13.0189H3.78333V16.4187H13.7833ZM10.9773 7.24497C10.2315 7.37256 9.4766 7.44149 8.71947 7.45116L8.84719 17.4503C10.1262 17.434 11.4023 17.3176 12.6636 17.1018L10.9773 7.24497ZM13.7833 12.4508V8.78333H3.78333V12.4508H13.7833ZM8.78333 13.7833H13.3124V3.78333H8.78333V13.7833ZM8.31313 8.69639C8.30197 9.33818 8.20461 9.97542 8.02367 10.5912L17.618 13.4106C18.0516 11.935 18.2849 10.408 18.3116 8.87028L8.31313 8.69639ZM11.9711 7.07359L10.9707 7.2461L12.6702 17.1006L13.6705 16.9281L11.9711 7.07359ZM18.878 8.12788C18.8519 6.66171 18.6436 5.20451 18.2579 3.78981L8.61009 6.42043C8.77773 7.03527 8.86824 7.66848 8.87956 8.30546L18.878 8.12788ZM12.5838 10.0323L15.0011 10.4494L16.7015 0.595046L14.2842 0.177932L12.5838 10.0323ZM11.2191 7.40442C11.3464 7.71775 11.4176 8.05118 11.4293 8.38931L21.4233 8.04402C21.3711 6.53219 21.0529 5.04138 20.4835 3.64005L11.2191 7.40442ZM16.4263 3.21667H13.8788V13.2167H16.4263V3.21667ZM16.4148 -0.0294527L14.0977 -0.429273L12.3973 9.42511L14.7145 9.82493L16.4148 -0.0294527ZM18.028 3.03258C17.3449 0.804159 16.0669 -1.19607 14.3311 -2.75239L7.65545 4.69312C8.03634 5.03463 8.31698 5.47372 8.46703 5.96325L18.028 3.03258ZM9.41045 5.71321C10.1483 5.95945 10.7599 6.48497 11.1144 7.17707L20.0149 2.61841C18.4671 -0.403541 15.7964 -2.6978 12.5761 -3.77249L9.41045 5.71321ZM2.66889 -2.75239C0.933089 -1.19607 -0.344884 0.804158 -1.02795 3.03258L8.53297 5.96325C8.68302 5.47372 8.96366 5.03463 9.34455 4.69312L2.66889 -2.75239ZM2.90233 -0.429273L0.585169 -0.0294527L2.28552 9.82493L4.60268 9.42511L2.90233 -0.429273ZM5.88559 7.17707C6.24006 6.48497 6.85172 5.95945 7.58955 5.71321L4.42389 -3.77249C1.20363 -2.6978 -1.46711 -0.403542 -3.0149 2.61841L5.88559 7.17707ZM0.585168 17.0295L2.90233 17.4293L4.60268 7.57489L2.28552 7.17507L0.585168 17.0295ZM-1.02795 13.9674C-0.344884 16.1958 0.93309 18.1961 2.66889 19.7524L9.34455 12.3069C8.96366 11.9654 8.68302 11.5263 8.53297 11.0368L-1.02795 13.9674ZM7.58955 11.2868C6.85172 11.0405 6.24006 10.515 5.88559 9.82293L-3.0149 14.3816C-1.46711 17.4035 1.20364 19.6978 4.42389 20.7725L7.58955 11.2868ZM14.3311 19.7524C16.0669 18.1961 17.3449 16.1958 18.028 13.9674L8.46703 11.0368C8.31698 11.5263 8.03635 11.9654 7.65545 12.3069L14.3311 19.7524ZM14.0977 17.4293L16.4148 17.0295L14.7145 7.17507L12.3973 7.57489L14.0977 17.4293ZM11.1144 9.82293C10.7599 10.515 10.1483 11.0405 9.41045 11.2868L12.5761 20.7725C15.7964 19.6978 18.4671 17.4035 20.0149 14.3816L11.1144 9.82293Z" fill="white" mask="url(#path-1-inside-1_33_2308)"/>
</svg>
