<svg width="75" height="92" viewBox="0 0 75 92" fill="none" xmlns="http://www.w3.org/2000/svg">
<path d="M4.58728 65.6322L6.97811 72.635C7.73891 74.864 10.1934 76.1743 12.4501 75.5561L16.6981 74.3918C22.2167 72.8795 28.0719 73.1511 33.6383 75.1763C35.4777 75.8406 37.4229 75.9351 39.2595 75.4316C39.2598 75.4315 39.2598 75.4315 39.2598 75.4315C41.5394 74.8066 43.3833 73.3419 44.4515 71.3077C44.7468 70.7456 44.9704 70.1578 45.127 69.5549C52.0898 70.4297 58.7935 66.4171 60.9299 59.6096C61.7536 56.985 61.792 54.2743 61.1826 51.7257C62.882 50.7267 64.213 49.1483 64.8416 47.1453C65.3974 45.3741 65.3463 43.4865 64.6934 41.6858C62.7479 36.324 62.5835 30.4811 64.2303 25.2337L65.5165 21.1354C66.1996 18.9587 64.8995 16.5505 62.6185 15.7667L55.4525 13.3043C53.1713 12.5204 50.76 13.6535 50.077 15.8299L48.7908 19.9284C47.1202 25.2515 43.768 29.7337 39.0966 32.8905C37.5507 33.9354 36.4401 35.4237 35.8843 37.1949C35.2557 39.1979 35.4334 41.2948 36.2357 43.1535C35.0258 44.2004 33.9832 45.4542 33.1717 46.8905C31.9782 46.7374 30.7671 46.8129 29.5986 47.1332C27.7621 47.6364 26.206 48.6839 25.0988 50.1622C21.7991 54.5664 16.9864 57.8128 11.5471 59.3034L7.29861 60.4675C5.0425 61.0867 3.82617 63.4034 4.58728 65.6322ZM45.2395 65.8863C45.1612 65.4759 45.0541 65.0663 44.9156 64.6604C44.1869 62.5263 42.656 60.7126 40.6965 59.5647C41.6034 57.6315 41.7407 55.3603 41.0121 53.2265C40.2931 51.1204 38.8377 49.345 36.8893 48.1825C37.3432 47.4914 37.8688 46.862 38.4548 46.3029C39.4213 47.2092 40.5945 47.9346 41.9291 48.3932C44.1127 49.1435 46.4553 49.057 48.4655 48.2161C49.6079 50.1403 51.4457 51.6634 53.6292 52.4137C54.9638 52.8723 56.3196 53.016 57.6112 52.8856C57.9514 54.6686 57.8752 56.543 57.3037 58.364C55.6685 63.5745 50.5288 66.6314 45.2395 65.8863ZM41.3706 35.9469C46.6928 32.3504 50.5128 27.2421 52.417 21.1745L53.7032 17.0763C53.7875 16.8076 54.0853 16.6676 54.3669 16.7644L61.5326 19.2268C61.8142 19.3235 61.9748 19.621 61.8904 19.8897L60.6043 23.9879C58.7271 29.9693 58.9141 36.6277 61.1307 42.7368C61.5085 43.7789 61.5378 44.8726 61.2155 45.8995C60.3895 48.5315 57.4735 49.9015 54.7151 48.9537C52.94 48.3437 51.6073 46.9226 51.1498 45.1523C50.9862 44.5181 50.4956 43.9958 49.8584 43.7768C49.2212 43.5579 48.5304 43.6742 48.0392 44.0834C46.6679 45.2253 44.7895 45.5429 43.0145 44.933C40.2561 43.9851 38.684 41.0728 39.51 38.4408C39.8325 37.414 40.4759 36.5517 41.3706 35.9469ZM8.50884 64.0113L12.7571 62.8471C18.957 61.148 24.4419 57.4487 28.2015 52.4306C28.8421 51.5752 29.7438 50.9687 30.8085 50.6769C32.1303 50.3144 33.5462 50.4826 34.7963 51.1498C36.0462 51.8169 36.9799 52.9036 37.4257 54.2095C38.0177 55.944 37.6523 57.7602 36.448 59.0674C36.0165 59.5354 35.8829 60.2032 36.0954 60.8259C36.2924 61.4031 36.7605 61.8632 37.3455 62.0642C37.3914 62.08 37.4383 62.0943 37.4857 62.107C39.2988 62.5857 40.7367 63.909 41.3289 65.6434C42.2493 68.3391 40.7783 71.1407 38.0498 71.8886C36.9848 72.1803 35.8673 72.1359 34.7935 71.7414C28.4567 69.4323 21.7782 69.1253 15.4881 70.8489L11.2404 72.013C10.9613 72.0893 10.6584 71.9272 10.5644 71.6524L8.17354 64.6496C8.07984 64.3739 8.23016 64.0878 8.50884 64.0113Z" fill="white"/>
<path d="M33.558 70.3651C35.8879 71.167 38.3505 70.0089 39.0478 67.7835C39.3454 66.8338 38.7808 65.787 37.7865 65.4447C36.7922 65.1025 35.7454 65.5947 35.4478 66.5444C35.3445 66.8741 34.9801 67.0452 34.6354 66.9266C33.6411 66.5844 32.5943 67.0766 32.2968 68.0263C31.9992 68.976 32.564 70.0229 33.558 70.3651Z" fill="white"/>
</svg>
