<svg width="21" height="21" viewBox="0 0 21 21" fill="none" xmlns="http://www.w3.org/2000/svg">
<path d="M10.5 12.2177C8.81378 12.2177 7.43628 10.8481 7.43628 9.15398C7.43628 7.45981 8.81378 6.09814 10.5 6.09814C12.1863 6.09814 13.5638 7.46773 13.5638 9.16189C13.5638 10.8561 12.1863 12.2177 10.5 12.2177ZM10.5 7.28564C9.47086 7.28564 8.62378 8.12481 8.62378 9.16189C8.62378 10.199 9.46295 11.0381 10.5 11.0381C11.5371 11.0381 12.3763 10.199 12.3763 9.16189C12.3763 8.12481 11.5292 7.28564 10.5 7.28564Z" fill="#363636"/>
<path d="M10.5 19.0185C9.32835 19.0185 8.14877 18.5752 7.23043 17.6964C4.89502 15.4481 2.31418 11.8618 3.28793 7.59475C4.16668 3.7235 7.5471 1.98975 10.5 1.98975C10.5 1.98975 10.5 1.98975 10.5079 1.98975C13.4609 1.98975 16.8413 3.7235 17.72 7.60266C18.6859 11.8697 16.105 15.4481 13.7696 17.6964C12.8513 18.5752 11.6717 19.0185 10.5 19.0185ZM10.5 3.17725C8.19627 3.17725 5.23543 4.40433 4.45168 7.856C3.59668 11.5847 5.94002 14.7989 8.06168 16.8335C9.43127 18.1556 11.5767 18.1556 12.9463 16.8335C15.06 14.7989 17.4034 11.5847 16.5642 7.856C15.7725 4.40433 12.8038 3.17725 10.5 3.17725Z" fill="#363636"/>
</svg>
