<svg width="21" height="21" viewBox="0 0 21 21" fill="none" xmlns="http://www.w3.org/2000/svg">
<path d="M7.93501 18.6305H8.03792C11.5529 18.6305 13.2471 17.245 13.54 14.1417C13.5717 13.8171 13.3342 13.5242 13.0017 13.4925C12.685 13.4609 12.3842 13.7063 12.3525 14.0309C12.1229 16.5167 10.9513 17.443 8.03001 17.443H7.92709C4.70501 17.443 3.56501 16.303 3.56501 13.0809V7.91921C3.56501 4.69713 4.70501 3.55713 7.92709 3.55713H8.03001C10.9671 3.55713 12.1388 4.49921 12.3525 7.03255C12.3921 7.35713 12.6692 7.60255 13.0017 7.57088C13.3342 7.54713 13.5717 7.25421 13.5479 6.92963C13.2788 3.7788 11.5767 2.36963 8.03792 2.36963H7.93501C4.04792 2.36963 2.38542 4.03213 2.38542 7.91921V13.0809C2.38542 16.968 4.04792 18.6305 7.93501 18.6305Z" fill="black"/>
<path d="M8.12499 11.0938H17.1342C17.4587 11.0938 17.7279 10.8246 17.7279 10.5C17.7279 10.1754 17.4587 9.90625 17.1342 9.90625H8.12499C7.8004 9.90625 7.53124 10.1754 7.53124 10.5C7.53124 10.8246 7.8004 11.0938 8.12499 11.0938Z" fill="black"/>
<path d="M15.3688 13.746C15.5192 13.746 15.6696 13.6906 15.7883 13.5719L18.4404 10.9198C18.67 10.6902 18.67 10.3102 18.4404 10.0806L15.7883 7.42854C15.5588 7.19895 15.1788 7.19895 14.9492 7.42854C14.7196 7.65812 14.7196 8.03812 14.9492 8.2677L17.1817 10.5002L14.9492 12.7327C14.7196 12.9623 14.7196 13.3423 14.9492 13.5719C15.06 13.6906 15.2183 13.746 15.3688 13.746Z" fill="black"/>
</svg>
