<svg width="20" height="20" viewBox="0 0 20 20" fill="none" xmlns="http://www.w3.org/2000/svg">
<path d="M11.9224 17.145C11.5743 17.145 11.2262 17.0722 10.9429 16.9345L6.69286 14.8055C6.45 14.6841 5.97238 14.6922 5.73762 14.8298L3.82714 15.9226C3.00143 16.3922 2.15143 16.4569 1.5119 16.0764C0.864286 15.7041 0.5 14.9431 0.5 13.9879V6.1193C0.5 5.38264 0.985714 4.54883 1.62524 4.18454L5.13048 2.17692C5.72143 1.83692 6.62 1.81264 7.22714 2.12026L11.4771 4.2493C11.72 4.37073 12.1895 4.35454 12.4324 4.22502L14.3348 3.14026C15.1605 2.67073 16.0105 2.60597 16.65 2.98645C17.2976 3.35883 17.6619 4.11978 17.6619 5.07502V12.9517C17.6619 13.6884 17.1762 14.5222 16.5367 14.8864L13.0314 16.8941C12.7238 17.056 12.319 17.145 11.9224 17.145ZM6.13504 13.8061C6.48314 13.8061 6.86362 13.968 7.14695 14.1056L11.3969 16.005C11.6398 16.1265 12.3684 16.1346 12.6112 16.005C12.8541 15.8755 15.8574 14.1431 16.1165 13.9974C16.3755 13.8517 16.7443 13.235 16.7443 12.9436V4.76707C16.7443 4.72651 16.7412 4.68411 16.7355 4.64042C16.6354 3.87501 15.7093 3.47787 15.0398 3.86219L13.1374 4.94695C12.5465 5.28695 11.5993 5.38409 10.9922 5.07647L6.74219 2.94743C6.49933 2.826 5.83552 2.93933 5.59266 3.06886L2.08743 5.07647C1.82838 5.22219 1.3626 5.53062 1.3626 6.1193V13.996C1.3626 14.506 1.42362 15.0498 1.68266 15.1955C1.94171 15.3493 2.85647 15.5842 3.30171 15.3332L5.20409 14.2485C5.51981 14.0623 5.73838 13.8061 6.13504 13.8061Z" fill="#363636"/>
<path d="M6.13499 14.386C5.91372 14.386 5.73022 14.1013 5.73022 13.7579V2.87124C5.73022 2.52789 5.91372 2.24316 6.13499 2.24316C6.35626 2.24316 6.53975 2.52789 6.53975 2.87124V13.7579C6.53975 14.1013 6.35626 14.386 6.13499 14.386Z" fill="#363636"/>
<path d="M11.8017 16.8142C11.5805 16.8142 11.397 16.5368 11.397 16.2022V5.28343C11.397 4.94884 11.5805 4.67139 11.8017 4.67139C12.023 4.67139 12.2065 4.94884 12.2065 5.28343V16.2022C12.2065 16.5368 12.023 16.8142 11.8017 16.8142Z" fill="#363636"/>
</svg>
