<svg width="78" height="71" viewBox="0 0 78 71" fill="none" xmlns="http://www.w3.org/2000/svg">
<path d="M78 27.8888C78 3.2148 55.3051 0.359375 38.2353 0.359375C15.7222 0.359375 0 11.0499 0 26.3594C0 35.9458 7.57371 36.1583 15.5925 36.3846C22.3999 36.5757 30.8712 36.8189 38.061 42.2101C42.4539 45.5072 48.2313 47.8073 53.879 48.6121L53.8124 48.6597C53.8644 48.7346 59.0415 56.1967 59.6471 70.7766L62.7059 70.6481C62.2385 59.4204 59.2374 52.1997 57.5113 48.9203C57.7387 48.9257 57.9652 48.9289 58.191 48.9289C58.8295 48.9289 59.4512 48.9029 60.0627 48.8615C60.8781 50.1378 65.2133 57.5089 65.7644 70.7766L68.8233 70.6481C68.3298 58.8001 65.0169 51.4175 63.3564 48.4165C72.6192 46.4813 77.9987 39.1151 78 27.8888ZM68.0245 43.3559C67.786 36.7984 64.1011 33.3395 57.3301 33.3395C54.5373 33.3395 46.0415 33.3395 43.4033 28.0677C43.0256 27.3153 42.1049 27.0078 41.3508 27.3857C40.5952 27.7634 40.2893 28.6826 40.6673 29.4382C44.1498 36.4033 54.0709 36.4033 57.3316 36.4033C62.6219 36.4033 64.9802 38.7601 64.9802 44.0504C64.9802 44.3021 65.0419 44.5388 65.1493 44.7482C62.7197 45.6248 60.2302 45.8734 58.1913 45.8734C51.9282 45.8734 44.9176 43.5348 39.895 39.768C37.159 37.7153 34.2994 36.3377 31.4307 35.405L36.9998 29.8359C37.5978 29.2364 37.5978 28.2714 36.9998 27.6734C36.4003 27.0739 35.4353 27.0739 34.8373 27.6734L28.7196 33.7911C28.5017 34.0085 28.3654 34.2749 28.3058 34.554C23.8773 33.5637 19.526 33.4404 15.6767 33.3307C11.7486 33.2194 8.80738 33.0802 6.75516 32.3888C8.53922 28.962 13.6588 25.5978 18.2463 24.8534C20.3981 24.5061 23.4372 24.5522 25.6624 26.7774C26.2619 27.3753 27.2269 27.3753 27.8249 26.7774C28.4244 26.1778 28.4244 25.2128 27.8249 24.6149C25.3427 22.1296 21.8571 21.1737 17.7583 21.8343C12.2704 22.7231 6.54422 26.4905 4.19158 30.6971C3.42661 29.7043 3.05778 28.3172 3.05778 26.3615C3.05778 20.5715 5.71735 15.5315 10.3852 11.6609C12.0168 14.5725 14.4706 16.4177 17.3526 16.8861C17.8205 16.9642 18.2871 16.9993 18.7519 16.9993C21.0047 16.9993 23.1797 16.1274 24.7611 14.5384C25.3973 13.9022 26.0016 13.1804 26.6409 12.4186C29.5835 8.90561 31.6328 6.90515 35.2316 8.70351C35.9857 9.07988 36.9064 8.7753 37.2841 8.02152C37.6618 7.26592 37.3559 6.34515 36.6021 5.96904C30.5747 2.95912 26.8016 7.47244 24.2979 10.4548C23.7046 11.1644 23.1433 11.8344 22.6017 12.3757C21.3829 13.5929 19.6072 14.153 17.8421 13.8653C15.8057 13.536 14.0487 12.0997 12.8754 9.8269C19.0807 5.77864 27.8761 3.4195 38.234 3.4195C42.3057 3.4195 46.0134 3.61484 49.3727 4.01098L44.5319 5.91572C43.7487 6.22316 43.3619 7.11168 43.6694 7.89927C43.9095 8.50037 44.4861 8.86738 45.0948 8.86738C45.2797 8.86738 45.4709 8.83512 45.6545 8.76021L55.2432 4.98741C61.2912 6.33084 65.8739 8.55499 69.0894 11.727C68.919 11.9735 68.8188 12.2724 68.8188 12.596C68.8188 17.7518 66.4285 23.3019 61.1718 23.3019C57.1004 23.3019 55.8984 20.6821 54.5066 17.6493C53.28 14.9681 51.8837 11.9309 48.1549 11.9309C47.3075 11.9309 46.6255 12.6144 46.6255 13.4603C46.6255 14.3077 47.3075 14.9897 48.1549 14.9897C49.7639 14.9897 50.4443 16.1305 51.7292 18.9264C53.1699 22.0617 55.1413 26.3609 61.1749 26.3609C67.6401 26.3609 71.0081 20.8527 71.7286 15.0186C73.8935 18.4795 74.9396 22.7522 74.9396 27.8903C74.9396 36.3807 71.8498 40.9504 68.0245 43.3559Z" fill="white"/>
</svg>
