<svg width="19" height="19" viewBox="0 0 19 19" fill="none" xmlns="http://www.w3.org/2000/svg">
<path d="M9.30768 8.15992C8.98967 8.15992 8.72595 7.8962 8.72595 7.57819V4.99531C8.72595 4.67729 8.98967 4.41357 9.30768 4.41357C9.6257 4.41357 9.88941 4.67729 9.88941 4.99531V7.57819C9.88941 7.90396 9.6257 8.15992 9.30768 8.15992Z" fill="#F3F4F6"/>
<path d="M9.32326 15.7844C7.3221 15.7844 5.3287 15.4664 3.42838 14.8304C2.72255 14.5977 2.18736 14.0935 1.95467 13.4575C1.72197 12.8215 1.79954 12.0924 2.1796 11.4563L3.16467 9.81198C3.38185 9.44743 3.57576 8.76486 3.57576 8.33826V6.70941C3.57576 3.53704 6.15088 0.961914 9.32326 0.961914C12.4956 0.961914 15.0708 3.53704 15.0708 6.70941V8.33826C15.0708 8.75711 15.2647 9.44743 15.4818 9.81198L16.4669 11.4563C16.8315 12.0613 16.8935 12.7827 16.6531 13.442C16.4126 14.1013 15.8852 14.6054 15.2181 14.8304C13.3178 15.4742 11.3244 15.7844 9.32326 15.7844ZM9.32326 2.13313C6.79467 2.13313 4.73922 4.18858 4.73922 6.71717V8.34602C4.73922 8.97429 4.49101 9.88179 4.16524 10.417L3.18018 12.0691C2.97851 12.4026 2.93197 12.7594 3.04832 13.0697C3.16467 13.3799 3.42838 13.6126 3.80069 13.7367C7.36864 14.9235 11.2934 14.9235 14.8613 13.7367C15.1949 13.6281 15.4508 13.3799 15.5672 13.0542C15.6913 12.7284 15.6525 12.3716 15.4741 12.0691L14.489 10.4247C14.1633 9.88954 13.9151 8.98204 13.9151 8.35377V6.72493C13.9073 4.18858 11.8518 2.13313 9.32326 2.13313Z" fill="#F3F4F6"/>
<path d="M9.30768 17.7623C8.47775 17.7623 7.66332 17.421 7.07384 16.8315C6.48435 16.242 6.14307 15.4276 6.14307 14.5977H7.30653C7.30653 15.1251 7.52371 15.637 7.89602 16.0093C8.26832 16.3816 8.78025 16.5988 9.30768 16.5988C10.4091 16.5988 11.3088 15.6991 11.3088 14.5977H12.4723C12.4723 16.3428 11.0529 17.7623 9.30768 17.7623Z" fill="#F3F4F6"/>
</svg>
