<svg width="22" height="24" viewBox="0 0 22 24" fill="none" xmlns="http://www.w3.org/2000/svg">
<path d="M20.9332 5.7736C20.8904 5.73065 20.8324 5.70654 20.772 5.70654C20.7117 5.70654 20.6537 5.73065 20.6109 5.7736L14.279 11.324C13.4735 12.0281 12.9704 13.0201 12.8755 14.0911L12.0869 22.7037C12.0842 22.734 12.0874 22.7645 12.0964 22.7935C12.1054 22.8226 12.12 22.8495 12.1393 22.8728C12.1586 22.8962 12.1823 22.9155 12.209 22.9296C12.2357 22.9437 12.2649 22.9523 12.2949 22.9551C12.3555 22.9606 12.4158 22.9415 12.4625 22.9022C12.5093 22.8628 12.5386 22.8064 12.544 22.7452L13.3327 14.1326C13.4189 13.1804 13.867 12.2987 14.583 11.6722L20.9103 6.10796C20.9344 6.08803 20.9541 6.06336 20.9683 6.03547C20.9826 6.00757 20.991 5.97704 20.9932 5.94574C20.9953 5.91444 20.9911 5.88303 20.9808 5.85343C20.9705 5.82383 20.9543 5.79667 20.9332 5.7736Z" fill="#363636" stroke="#363636" stroke-width="0.4"/>
<path d="M9.13804 7.58237C8.93816 7.78678 8.80472 8.04775 8.75549 8.33054C8.70627 8.61334 8.74357 8.90455 8.86246 9.16543C8.98134 9.42631 9.17615 9.64448 9.42098 9.79091C9.6658 9.93735 9.94903 10.0051 10.233 9.98515C10.216 10.2196 10.2576 10.4547 10.3537 10.6689C10.4499 10.883 10.5977 11.0695 10.7836 11.2113C10.9695 11.3531 11.1877 11.4457 11.4181 11.4807C11.6486 11.5157 11.8841 11.4919 12.1032 11.4116C12.3222 11.3313 12.5178 11.1969 12.6722 11.0208C12.8266 10.8446 12.9349 10.6323 12.9871 10.4032C13.0393 10.1741 13.0339 9.93538 12.9713 9.70891C12.9086 9.48243 12.7908 9.27537 12.6286 9.10659L17.8129 3.90903C17.8344 3.88759 17.8514 3.86209 17.863 3.83399C17.8746 3.80589 17.8805 3.77575 17.8805 3.74531C17.8805 3.71487 17.8746 3.68473 17.863 3.65663C17.8514 3.62853 17.8344 3.60303 17.8129 3.58159C17.7701 3.53864 17.7122 3.51453 17.6518 3.51453C17.5914 3.51453 17.5335 3.53864 17.4906 3.58159L12.1371 8.95671C12.1134 8.98062 12.0952 9.0095 12.0839 9.04129C12.0725 9.07308 12.0682 9.10701 12.0712 9.14067C12.0743 9.17433 12.0846 9.2069 12.1015 9.23608C12.1184 9.26526 12.1415 9.29033 12.1691 9.30951C12.295 9.39593 12.3979 9.51218 12.4688 9.64807C12.5398 9.78396 12.5766 9.93533 12.576 10.0889C12.5755 10.2273 12.5451 10.3638 12.4868 10.4891C12.4286 10.6143 12.3439 10.7252 12.2388 10.814C12.1336 10.9028 12.0105 10.9674 11.8781 11.0032C11.7456 11.0391 11.607 11.0453 11.4719 11.0214C11.3368 10.9976 11.2085 10.9442 11.096 10.8652C10.9834 10.7861 10.8894 10.6832 10.8204 10.5636C10.7513 10.4441 10.7091 10.3108 10.6964 10.173C10.6838 10.0352 10.7012 9.89637 10.7473 9.76609C10.765 9.72383 10.7697 9.67722 10.761 9.63222C10.7523 9.58721 10.7304 9.54585 10.6983 9.51343C10.6662 9.481 10.6252 9.45898 10.5805 9.45018C10.5359 9.44137 10.4897 9.44619 10.4478 9.46401C10.2892 9.52224 10.1179 9.53636 9.9519 9.50488C9.78594 9.47341 9.63143 9.3975 9.50454 9.28511C9.37764 9.17272 9.28304 9.02798 9.23063 8.86605C9.17822 8.70411 9.16994 8.53094 9.20665 8.36467C9.24336 8.1984 9.32371 8.04514 9.43929 7.92095C9.55486 7.79676 9.70142 7.70619 9.8636 7.65875C10.0258 7.6113 10.1976 7.60872 10.3611 7.65127C10.5246 7.69381 10.6738 7.77993 10.793 7.90059C10.9073 8.01589 10.9233 8.11735 11.0673 8.13118C11.1008 8.13429 11.1345 8.12991 11.1662 8.11835C11.1978 8.10679 11.2265 8.08834 11.2502 8.06431L16.4963 2.77682C16.5177 2.75538 16.5347 2.72988 16.5463 2.70178C16.5579 2.67368 16.5639 2.64354 16.5639 2.6131C16.5639 2.58266 16.5579 2.55252 16.5463 2.52442C16.5347 2.49632 16.5177 2.47082 16.4963 2.44938C16.4534 2.40643 16.3955 2.38232 16.3351 2.38232C16.2747 2.38232 16.2168 2.40643 16.174 2.44938L11.1039 7.56854C10.84 7.31013 10.4859 7.16675 10.1182 7.16933C9.75037 7.17192 9.39835 7.32027 9.13804 7.58237Z" fill="#363636" stroke="#363636" stroke-width="0.4"/>
<path d="M11.2675 12.0396C9.30624 11.0158 9.69484 11.2994 8.2776 9.91123C8.12798 9.77317 7.93711 9.68919 7.73502 9.67251C7.53292 9.65582 7.33106 9.70738 7.16118 9.81908C6.9913 9.93077 6.86305 10.0963 6.79659 10.2895C6.73014 10.4828 6.72925 10.6928 6.79406 10.8866L6.8535 11.0504C7.09345 11.7102 7.52427 12.2822 8.09016 12.6922L8.30731 12.8513V21.7752C8.30731 21.8364 8.3314 21.895 8.37427 21.9383C8.41713 21.9815 8.47528 22.0058 8.5359 22.0058C8.59653 22.0058 8.65467 21.9815 8.69754 21.9383C8.74041 21.895 8.76449 21.8364 8.76449 21.7752V12.7268C8.76458 12.6904 8.75614 12.6545 8.73985 12.622C8.72356 12.5896 8.69989 12.5615 8.67077 12.54L8.3576 12.3094C7.86669 11.9525 7.49195 11.4565 7.28096 10.8843L7.22152 10.7229C7.19162 10.6268 7.19371 10.5235 7.22748 10.4288C7.26124 10.334 7.32482 10.253 7.40851 10.1981C7.4922 10.1432 7.59139 10.1175 7.69095 10.1248C7.79051 10.1321 7.88495 10.1721 7.95986 10.2387C9.42054 11.6707 9.06623 11.4078 11.0572 12.4454C11.1226 12.4815 11.1728 12.5403 11.1986 12.6108C11.2243 12.6813 11.224 12.7588 11.1975 12.8291C11.171 12.8993 11.1203 12.9576 11.0546 12.993C10.9889 13.0285 10.9127 13.0387 10.8401 13.0219L10.3052 12.8836C10.2708 12.8746 10.2348 12.8738 10.2001 12.8813C10.1654 12.8888 10.1328 12.9044 10.1051 12.9268C10.0774 12.9491 10.0552 12.9777 10.0403 13.0103C10.0255 13.0428 10.0183 13.0784 10.0194 13.1142V21.7706C10.0194 21.8318 10.0435 21.8904 10.0864 21.9337C10.1293 21.9769 10.1874 22.0012 10.248 22.0012C10.3086 22.0012 10.3668 21.9769 10.4097 21.9337C10.4525 21.8904 10.4766 21.8318 10.4766 21.7706V13.4047L10.7372 13.4716C10.9199 13.5216 11.1146 13.5013 11.2833 13.4147C11.4521 13.3281 11.5829 13.1813 11.6504 13.0029C11.7179 12.8244 11.7173 12.6271 11.6487 12.4491C11.58 12.271 11.4483 12.1251 11.279 12.0396H11.2675Z" fill="#363636" stroke="#363636" stroke-width="0.4"/>
<path d="M6.32242 15.6896L6.00011 10.5244C5.95268 9.76756 6.08976 9.01056 6.39939 8.31955C6.70901 7.62854 7.18174 7.02458 7.77624 6.56048L14.2864 1.45746C14.3343 1.41985 14.3654 1.36459 14.3729 1.30383C14.3804 1.24307 14.3637 1.18179 14.3264 1.13348C14.2891 1.08517 14.2343 1.05377 14.1741 1.0462C14.1139 1.03864 14.0531 1.05552 14.0052 1.09313L7.49507 6.19153C6.84209 6.70222 6.32299 7.36642 5.9831 8.12612C5.64321 8.88582 5.49288 9.71792 5.54522 10.5497L5.84467 15.3806C5.32083 15.1117 4.73579 14.9872 4.14888 15.0199C3.56198 15.0527 2.99409 15.2414 2.50283 15.567C2.01156 15.8926 1.61439 16.3434 1.35161 16.8738C1.08882 17.4042 0.969769 17.9953 1.00652 18.5871C1.04328 19.1789 1.23453 19.7503 1.56088 20.2435C1.88724 20.7367 2.33708 21.134 2.86479 21.3952C3.39249 21.6564 3.97929 21.7721 4.56565 21.7307C5.15202 21.6893 5.71709 21.4921 6.20356 21.1593L6.28585 22.4806C6.28979 22.5418 6.31765 22.5988 6.3633 22.6393C6.40896 22.6797 6.46867 22.7002 6.52929 22.6962C6.58992 22.6922 6.64649 22.6641 6.68658 22.6181C6.72666 22.572 6.74696 22.5118 6.74302 22.4506L6.6493 20.8019C6.99821 20.464 7.26976 20.0534 7.44498 19.5986C7.62019 19.1439 7.69484 18.656 7.66371 18.1691C7.63258 17.6822 7.49642 17.2081 7.26474 16.7798C7.03306 16.3516 6.71147 15.9795 6.32242 15.6896ZM6.25156 20.5321C5.84995 20.8978 5.35427 21.1419 4.8214 21.2364C4.28853 21.3309 3.74004 21.272 3.23887 21.0663C2.73769 20.8607 2.30413 20.5167 1.98791 20.0739C1.6717 19.631 1.48564 19.1072 1.45109 18.5625C1.41654 18.0178 1.53489 17.4743 1.79257 16.9944C2.05025 16.5145 2.43681 16.1176 2.90792 15.8492C3.37902 15.5808 3.91559 15.4518 4.45605 15.477C4.99652 15.5022 5.51899 15.6806 5.96354 15.9917C6.31917 16.2417 6.61434 16.5693 6.8271 16.9502C7.03986 17.3311 7.16473 17.7555 7.19241 18.1919C7.22009 18.6282 7.14987 19.0652 6.98697 19.4704C6.82408 19.8756 6.57271 20.2385 6.25156 20.5321Z" fill="#363636" stroke="#363636" stroke-width="0.4"/>
<path d="M5.73553 17.6969H5.00862V16.9567C5.00862 16.8955 4.98454 16.8369 4.94167 16.7936C4.8988 16.7504 4.84066 16.7261 4.78003 16.7261H3.88854C3.82791 16.7261 3.76977 16.7504 3.7269 16.7936C3.68404 16.8369 3.65995 16.8955 3.65995 16.9567V17.6969H2.9239C2.86327 17.6969 2.80513 17.7212 2.76226 17.7644C2.7194 17.8077 2.69531 17.8663 2.69531 17.9275V18.8268C2.69531 18.8879 2.7194 18.9466 2.76226 18.9898C2.80513 19.0331 2.86327 19.0574 2.9239 19.0574H3.65995V19.7999C3.65995 19.861 3.68404 19.9197 3.7269 19.9629C3.76977 20.0062 3.82791 20.0305 3.88854 20.0305H4.78003C4.84066 20.0305 4.8988 20.0062 4.94167 19.9629C4.98454 19.9197 5.00862 19.861 5.00862 19.7999V19.0574H5.73553C5.79615 19.0574 5.85429 19.0331 5.89716 18.9898C5.94003 18.9466 5.96411 18.8879 5.96411 18.8268V17.9275C5.96411 17.8663 5.94003 17.8077 5.89716 17.7644C5.85429 17.7212 5.79615 17.6969 5.73553 17.6969ZM5.50694 18.5962H4.78003C4.71941 18.5962 4.66126 18.6205 4.6184 18.6637C4.57553 18.707 4.55144 18.7656 4.55144 18.8268V19.5693H4.11713V18.8268C4.11713 18.7656 4.09304 18.707 4.05018 18.6637C4.00731 18.6205 3.94916 18.5962 3.88854 18.5962H3.15249V18.1581H3.88854C3.94916 18.1581 4.00731 18.1338 4.05018 18.0905C4.09304 18.0473 4.11713 17.9886 4.11713 17.9275V17.1873H4.55144V17.9275C4.55144 17.9886 4.57553 18.0473 4.6184 18.0905C4.66126 18.1338 4.71941 18.1581 4.78003 18.1581H5.50694V18.5962Z" fill="#363636" stroke="#363636" stroke-width="0.4"/>
</svg>
