<svg width="22" height="24" viewBox="0 0 22 24" fill="none" xmlns="http://www.w3.org/2000/svg">
<path d="M5.60902 6.31689C5.36771 6.31689 5.17188 6.51273 5.17188 6.75404C5.17188 6.99534 5.36771 7.19118 5.60902 7.19118C5.85032 7.19118 6.04616 6.99534 6.04616 6.75404C6.04616 6.51273 5.85032 6.31689 5.60902 6.31689Z" fill="#363636"/>
<path d="M9.54343 14.4912H8.23209V13.1798C8.23209 12.9384 8.03634 12.7427 7.79495 12.7427C7.55356 12.7427 7.35785 12.9384 7.35785 13.1798V14.4912H6.04652C5.80513 14.4912 5.60938 14.6869 5.60938 14.9283C5.60938 15.1696 5.80513 15.3654 6.04652 15.3654H7.35785V16.6767C7.35785 16.9181 7.55361 17.1139 7.79495 17.1139C8.0363 17.1139 8.23209 16.9181 8.23209 16.6767V15.3654H9.54343C9.78482 15.3654 9.98057 15.1696 9.98057 14.9283C9.98057 14.6869 9.78487 14.4912 9.54343 14.4912Z" fill="#363636"/>
<path d="M21.3411 14.8843C20.3748 13.2107 18.2382 12.6379 16.5642 13.6044L14.7887 14.6295V10.8336C14.7887 10.3643 14.6335 9.89861 14.3516 9.52224L12.166 6.6082V5.36733C12.6747 5.18688 13.0402 4.70104 13.0402 4.13114V2.12042C13.0401 1.39734 12.4519 0.809082 11.7288 0.809082H3.86064C3.13757 0.809082 2.54926 1.39734 2.54926 2.12042V4.13118C2.54926 4.701 2.91476 5.18693 3.4235 5.36738V6.60825L1.23775 9.52245C0.955967 9.89866 0.800781 10.3643 0.800781 10.8336V19.2993C0.800781 20.5044 1.78125 21.4848 2.98636 21.4848H10.0113C10.9914 23.1277 13.1048 23.6776 14.7615 22.721L20.0612 19.6612C21.7204 18.703 22.3122 16.5671 21.3411 14.8843ZM3.4235 2.12042C3.4235 1.87938 3.6196 1.68328 3.8606 1.68328H11.7288C11.9698 1.68328 12.1659 1.87938 12.1659 2.12042V4.13118C12.1659 4.37222 11.9698 4.56828 11.7288 4.56828H3.86064C3.6196 4.56828 3.42354 4.37218 3.42354 4.13118V2.12042H3.4235ZM1.93735 10.0467L4.21031 7.01619C4.26705 6.94056 4.29774 6.8485 4.29774 6.7539V5.44257H11.2917V6.31681H7.3576C7.11621 6.31681 6.92046 6.51256 6.92046 6.75395C6.92046 6.99534 7.11621 7.19109 7.3576 7.19109H11.5102L13.6519 10.0466C13.7919 10.2335 13.8788 10.4571 13.9051 10.688H1.68433C1.71056 10.457 1.79751 10.2334 1.93735 10.0467ZM2.9864 20.6106C2.26333 20.6106 1.67506 20.0223 1.67506 19.2993V18.8578H9.61684C9.47822 19.4245 9.47914 20.0299 9.63786 20.6106H2.9864V20.6106ZM9.95969 17.9879H1.67502V11.5622H13.9144V15.1342L11.2645 16.6643C10.712 16.9835 10.2654 17.4378 9.95969 17.9879ZM14.3244 21.9639C13.07 22.6883 11.467 22.2599 10.7421 21.0046C10.0138 19.7371 10.4551 18.1414 11.7017 17.4213L14.0744 16.0514L16.6971 20.594L14.3244 21.9639ZM19.6241 18.9041L17.4542 20.1569L14.8315 15.6142L17.0013 14.3616C18.2566 13.6369 19.8591 14.066 20.5839 15.3214C21.312 16.5831 20.8693 18.185 19.6241 18.9041Z" fill="#363636"/>
</svg>
