<svg width="24" height="24" viewBox="0 0 24 24" fill="none" xmlns="http://www.w3.org/2000/svg">
<path d="M8.62 21.55C7.83 21.55 7.08 21.36 6.42 20.98C4.86 20.08 4 18.25 4 15.84V8.71001C4 6.29001 4.86 4.47001 6.42 3.57001C7.98 2.67001 9.99 2.84001 12.09 4.05001L18.26 7.61001C20.35 8.82001 21.51 10.48 21.51 12.28C21.51 14.08 20.36 15.74 18.26 16.95L12.09 20.51C10.88 21.2 9.7 21.55 8.62 21.55ZM8.62 4.49001C8.08 4.49001 7.6 4.61001 7.17 4.86001C6.09 5.48001 5.5 6.85001 5.5 8.71001V15.83C5.5 17.69 6.09 19.05 7.17 19.68C8.25 20.31 9.73 20.13 11.34 19.2L17.51 15.64C19.12 14.71 20.01 13.52 20.01 12.27C20.01 11.02 19.12 9.83001 17.51 8.90001L11.34 5.34001C10.36 4.78001 9.44 4.49001 8.62 4.49001Z" fill="white"/>
</svg>
