<svg width="75" height="71" viewBox="0 0 75 71" fill="none" xmlns="http://www.w3.org/2000/svg">
<path d="M57.3245 0.978516C51.3029 0.978516 44.6195 5.93298 44.3194 13.9356C44.226 16.4235 45.3412 18.9941 46.5205 21.7155C46.9394 22.6813 47.3596 23.6591 47.7358 24.645C44.2594 23.1869 41.6501 17.364 41.6501 13.3794C41.6501 12.6417 41.0538 12.0454 40.3161 12.0454C39.5784 12.0454 38.9821 12.6417 38.9821 13.3794C38.9821 18.8034 42.8613 26.6926 48.3521 27.5704C48.4521 27.6891 48.5722 27.7839 48.7083 27.8612C48.7349 27.9866 48.7629 28.112 48.7856 28.2374C43.8205 28.9898 39.6704 32.2287 37.6481 36.6509C35.5857 32.1434 31.3143 28.8617 26.2211 28.1934C26.2597 27.9853 26.3104 27.7785 26.3571 27.5704C31.9372 26.686 36.3141 18.7007 36.3141 13.3794C36.3141 12.6417 35.7178 12.0454 34.9801 12.0454C34.2424 12.0454 33.6461 12.6417 33.6461 13.3794C33.6461 17.4507 30.7046 22.8414 27.3283 24.4822C27.6885 23.5511 28.0833 22.628 28.4795 21.7155C29.6601 18.9941 30.7753 16.4235 30.6806 13.9356C30.3805 5.93298 23.6971 0.978516 17.6755 0.978516C7.92928 0.978516 0 14.1437 0 30.3265C0 46.5092 7.92928 59.6744 17.6755 59.6744C21.2666 59.6744 27.9539 59.6744 30.6059 52.112C31.6558 49.1198 30.3218 45.5767 28.777 41.4733C27.5417 38.193 26.1637 34.4979 26.037 30.8601C31.8385 31.7031 36.3127 36.695 36.3127 42.7273V69.4072C36.3127 70.1449 36.909 70.7412 37.6467 70.7412C38.3844 70.7412 38.9807 70.1449 38.9807 69.4072V42.7273C38.9807 36.799 43.3029 31.8739 48.959 30.9067C48.8216 34.5299 47.4516 38.2077 46.2217 41.4747C44.6769 45.5767 43.3429 49.1198 44.3928 52.1133C47.0461 59.6757 53.7321 59.6757 57.3232 59.6757C67.0694 59.6757 74.9987 46.5105 74.9987 30.3278C74.9987 14.1451 67.0694 0.978516 57.3245 0.978516ZM28.09 51.2289C26.2197 56.5608 21.9202 57.0064 17.6755 57.0064C9.40068 57.0064 2.66799 45.0378 2.66799 30.3265C2.66799 15.6151 9.40068 3.64651 17.6755 3.64651C22.4819 3.64651 27.7818 7.82059 28.0153 14.0343C28.086 15.918 27.0882 18.2191 26.0316 20.6536C25.9249 20.9004 25.8169 21.1526 25.7088 21.4047C23.8332 16.7877 19.475 13.3794 14.6753 13.3794C13.9376 13.3794 13.3413 13.9757 13.3413 14.7134C13.3413 15.4511 13.9376 16.0473 14.6753 16.0473C19.4737 16.0473 23.8425 20.7724 23.9986 26.0377C23.8052 26.7247 23.6491 27.4237 23.5371 28.1334H16.008C15.2703 28.1334 14.674 28.7297 14.674 29.4674C14.674 30.2051 15.2703 30.8014 16.008 30.8014H23.349C23.3103 35.9346 19.8365 41.3933 14.674 41.3933C13.9363 41.3933 13.34 41.9896 13.34 42.7273C13.34 43.465 13.9363 44.0613 14.674 44.0613C19.1229 44.0613 22.6046 41.0905 24.4815 37.2312C25.0151 39.0361 25.6621 40.7757 26.2798 42.4138C27.5857 45.8782 28.8183 49.1505 28.09 51.2289ZM57.3245 57.0064C53.0811 57.0064 48.783 56.5608 46.91 51.2289C46.1817 49.1505 47.4143 45.8782 48.7189 42.4138C49.3366 40.7743 49.9849 39.0335 50.5185 37.2272C52.6129 41.2266 56.6202 44.0613 60.997 44.0613C61.7347 44.0613 62.331 43.465 62.331 42.7273C62.331 41.9896 61.7347 41.3933 60.997 41.3933C56.1106 41.3933 51.659 36.4949 51.659 31.1162C51.659 31.0588 51.6337 31.0108 51.627 30.9548C51.6297 30.8774 51.635 30.8 51.6377 30.7213H59.6644C60.4021 30.7213 60.9984 30.125 60.9984 29.3873C60.9984 28.6496 60.4021 28.0533 59.6644 28.0533H51.4536C51.3029 27.1329 51.0814 26.2284 50.804 25.3453C51.4616 20.779 55.2528 16.0473 60.0299 16.0473C60.7676 16.0473 61.3639 15.4511 61.3639 14.7134C61.3639 13.9757 60.7676 13.3794 60.0299 13.3794C55.1408 13.3794 51.1428 16.9491 49.2352 21.274C49.1458 21.0672 49.0564 20.8564 48.9684 20.6536C47.9119 18.2191 46.914 15.918 46.9847 14.0343C47.2182 7.82059 52.5181 3.64651 57.3245 3.64651C65.5993 3.64651 72.332 15.6151 72.332 30.3265C72.332 45.0378 65.5993 57.0064 57.3245 57.0064Z" fill="white"/>
</svg>
