<svg width="22" height="22" viewBox="0 0 22 22" fill="none" xmlns="http://www.w3.org/2000/svg">
<path d="M10.6447 19.0237C6.22024 19.0237 2.62109 15.4245 2.62109 11.0001C2.62109 6.5757 6.22024 2.97656 10.6447 2.97656C11.0137 2.97656 11.3133 3.2761 11.3133 3.64515C11.3133 3.86631 11.0137 3.94595 10.6447 3.94595C6.95783 3.94595 3.82194 6.78138 3.72354 10.8568C3.72354 14.5437 6.65932 17.9889 10.3461 17.9889C15.4405 17.9889 17.6987 14.5437 17.6987 10.8568C17.6987 10.4878 17.9758 10.3635 17.9876 10.3474C18.4971 10.3474 18.6681 10.6309 18.6681 10.9999C18.6681 15.4244 15.0691 19.0237 10.6447 19.0237ZM16.8228 8.43917C16.6824 8.09822 16.8422 7.70364 17.1839 7.56328C17.5249 7.42292 17.9195 7.58332 18.0598 7.9244C18.2002 8.26534 18.0398 8.65993 17.6987 8.80028C17.6117 8.83375 17.5249 8.85379 17.4446 8.85379C17.1772 8.85379 16.9292 8.69987 16.8228 8.43917ZM15.3712 6.27275C15.1104 6.01194 15.1104 5.58402 15.3712 5.32331C15.6327 5.0625 16.0539 5.0625 16.3139 5.32331C16.5754 5.58412 16.5754 6.01204 16.3139 6.27275C16.1876 6.3998 16.0137 6.46662 15.8466 6.46662C15.6728 6.46662 15.5057 6.3998 15.3712 6.27275ZM13.2055 4.82184C12.8639 4.68147 12.704 4.28689 12.8444 3.94595C12.9848 3.60501 13.3726 3.44448 13.7203 3.58483C14.0612 3.7252 14.2217 4.11978 14.0747 4.46072C13.9744 4.71481 13.7203 4.8686 13.4596 4.8686C13.3726 4.8686 13.2858 4.8553 13.2055 4.82184ZM13.3184 13.0058C13.2181 13.0058 13.1158 12.9831 13.0202 12.9356L10.3457 11.5983C10.1191 11.4847 9.97601 11.2533 9.97601 10.9999V6.3196C9.97601 5.95054 10.3461 5.76252 10.3461 5.76252C10.8556 5.76252 10.9007 6.3196 10.9007 6.3196V10.723L13.2055 11.8757C13.5358 12.0408 14.0819 12.3064 13.9168 12.6367C13.7999 12.8707 13.5638 13.0058 13.3184 13.0058Z" fill="#363636"/>
</svg>
