<svg width="34" height="34" viewBox="0 0 34 34" fill="none" xmlns="http://www.w3.org/2000/svg">
<path d="M2.13549 16.9335C2.13509 14.1557 2.91407 11.4339 4.38321 9.07976C5.85236 6.72566 7.95228 4.83444 10.4425 3.62267C12.9328 2.4109 15.7126 1.92756 18.4638 2.22801C21.215 2.52845 23.8263 3.60053 25.9987 5.32148H23.757C23.5628 5.32337 23.3772 5.40213 23.2406 5.54063C23.1039 5.67912 23.0273 5.86617 23.0273 6.0611C23.0273 6.25602 23.1039 6.44307 23.2406 6.58157C23.3772 6.72007 23.5628 6.79882 23.757 6.80071H27.9252C28.1206 6.80071 28.3081 6.72278 28.4463 6.58407C28.5844 6.44536 28.6621 6.25723 28.6621 6.06106V1.87704C28.663 1.77931 28.6447 1.68236 28.608 1.59179C28.5714 1.50123 28.5173 1.41885 28.4488 1.3494C28.3803 1.27996 28.2987 1.22484 28.2089 1.18722C28.119 1.1496 28.0226 1.13023 27.9252 1.13023C27.8279 1.13023 27.7315 1.1496 27.6416 1.18722C27.5517 1.22484 27.4702 1.27996 27.4017 1.3494C27.3332 1.41885 27.279 1.50123 27.2424 1.59179C27.2058 1.68236 27.1875 1.77931 27.1884 1.87704V4.38158C23.9754 1.72111 19.8655 0.404111 15.711 0.703734C11.5566 1.00336 7.67642 2.89661 4.87534 5.99082C2.07427 9.08504 0.567209 13.1428 0.666744 17.3224C0.766278 21.502 2.46477 25.4829 5.40993 28.4392C5.47806 28.5092 5.55934 28.5649 5.64907 28.6031C5.73879 28.6413 5.83519 28.6613 5.93266 28.6619C6.03013 28.6624 6.12674 28.6436 6.2169 28.6064C6.30706 28.5692 6.38898 28.5144 6.4579 28.4453C6.52683 28.3761 6.58139 28.2938 6.61843 28.2033C6.65547 28.1128 6.67426 28.0159 6.67369 27.918C6.67313 27.8202 6.65324 27.7234 6.61516 27.6334C6.57708 27.5433 6.52158 27.4617 6.45186 27.3933C5.07912 26.0229 3.99081 24.3928 3.2499 22.5974C2.50899 20.802 2.13022 18.8769 2.13549 16.9335Z" fill="#006184" stroke="#006184" stroke-width="0.4"/>
<path d="M10.362 30.3776C10.0596 30.1911 9.76036 29.9834 9.47268 29.7609C9.35205 29.6675 9.2071 29.6387 9.06973 29.6808C8.93235 29.723 8.8138 29.8327 8.74016 29.9857C8.66652 30.1388 8.64382 30.3227 8.67705 30.497C8.71028 30.6713 8.79672 30.8217 8.91735 30.9151C9.23406 31.1604 9.56346 31.3886 9.89631 31.5939C9.95926 31.6327 10.0276 31.6554 10.0975 31.6607C10.1673 31.666 10.2373 31.6537 10.3035 31.6247C10.3696 31.5957 10.4306 31.5504 10.4829 31.4915C10.5353 31.4325 10.5779 31.3611 10.6085 31.2812C10.6391 31.2014 10.657 31.1147 10.6612 31.026C10.6653 30.9374 10.6557 30.8486 10.6328 30.7647C10.6099 30.6808 10.5743 30.6034 10.5278 30.537C10.4814 30.4706 10.4251 30.4164 10.3621 30.3776H10.362Z" fill="#006184" stroke="#006184" stroke-width="0.4"/>
<path d="M30.3764 10.3613C30.4152 10.4243 30.4693 10.4806 30.5357 10.5271C30.6021 10.5737 30.6794 10.6094 30.7634 10.6324C30.8473 10.6553 30.9362 10.665 31.0249 10.661C31.1136 10.6569 31.2004 10.6391 31.2804 10.6086C31.3604 10.5781 31.4319 10.5355 31.491 10.4832C31.5501 10.4309 31.5955 10.37 31.6246 10.3039C31.6538 10.2378 31.6661 10.1678 31.661 10.098C31.6558 10.0281 31.6332 9.95977 31.5944 9.8968C31.3905 9.56509 31.1626 9.23578 30.9171 8.9178C30.8709 8.85802 30.8102 8.80598 30.7385 8.76466C30.6668 8.72335 30.5854 8.69356 30.499 8.677C30.3246 8.64356 30.1405 8.66603 29.9872 8.73948C29.8338 8.81293 29.7238 8.93134 29.6813 9.06865C29.6389 9.20597 29.6674 9.35094 29.7607 9.47169C29.9839 9.76074 30.1911 10.0601 30.3764 10.3613Z" fill="#006184" stroke="#006184" stroke-width="0.4"/>
<path d="M18.82 31.6685C18.3438 31.7386 17.8619 31.7803 17.3876 31.7945C17.1911 31.8038 17.0054 31.9077 16.8699 32.084C16.7344 32.2604 16.6599 32.4953 16.6622 32.7387C16.6644 32.9822 16.7434 33.2148 16.8821 33.3873C17.0209 33.5597 17.2085 33.6582 17.4051 33.6619C17.411 33.6619 17.4173 33.6619 17.4231 33.6614C17.9447 33.6464 18.474 33.6001 18.997 33.5237C19.1955 33.4944 19.3765 33.3687 19.5003 33.1742C19.624 32.9798 19.6803 32.7325 19.6569 32.4866C19.6335 32.2407 19.5322 32.0164 19.3753 31.863C19.2184 31.7095 19.0188 31.6394 18.8202 31.6682L18.82 31.6685Z" fill="#006184" stroke="#006184" stroke-width="0.4"/>
<path d="M15.0281 32.0226C14.556 31.9368 14.0812 31.8251 13.6173 31.6899C13.4228 31.6333 13.2156 31.6631 13.0413 31.7727C12.867 31.8823 12.7398 32.0627 12.6879 32.2743C12.6359 32.4858 12.6633 32.7112 12.7641 32.9007C12.8648 33.0903 13.0307 33.2285 13.2252 33.2851C13.7359 33.4334 14.2584 33.5563 14.7783 33.6506C14.8766 33.6684 14.9772 33.6651 15.0743 33.6406C15.1714 33.6162 15.2631 33.5712 15.3442 33.5082C15.4253 33.4452 15.4942 33.3655 15.547 33.2735C15.5998 33.1816 15.6354 33.0792 15.6518 32.9723C15.6682 32.8654 15.665 32.756 15.6426 32.6504C15.6201 32.5448 15.5787 32.4451 15.5208 32.3568C15.4629 32.2686 15.3896 32.1937 15.305 32.1363C15.2205 32.0789 15.1264 32.0402 15.0281 32.0224V32.0226Z" fill="#006184" stroke="#006184" stroke-width="0.4"/>
<path d="M32.7525 16.6621C32.5051 16.6572 32.2655 16.7317 32.0863 16.8691C31.9071 17.0064 31.8029 17.1955 31.7967 17.3947C31.7817 17.8698 31.7389 18.3496 31.6687 18.8214C31.6394 19.0193 31.7089 19.2184 31.8619 19.375C32.0149 19.5317 32.2389 19.633 32.4846 19.6567C32.5218 19.6601 32.5592 19.6618 32.5966 19.6619C32.8247 19.6616 33.0447 19.5941 33.2151 19.4721C33.3856 19.3501 33.4947 19.1821 33.5219 18.9997C33.5984 18.4814 33.6458 17.9541 33.6618 17.4321C33.6649 17.3335 33.6439 17.2353 33.5999 17.1432C33.5558 17.0511 33.4897 16.9669 33.4053 16.8954C33.3208 16.8239 33.2197 16.7665 33.1077 16.7264C32.9957 16.6864 32.875 16.6645 32.7525 16.6621Z" fill="#006184" stroke="#006184" stroke-width="0.4"/>
<path d="M30.3891 25.7575C30.2523 25.675 30.0843 25.6441 29.922 25.6717C29.7596 25.6993 29.6162 25.783 29.5231 25.9045C29.3015 26.1945 29.0619 26.4785 28.8105 26.7484C28.7571 26.8044 28.7166 26.8692 28.6916 26.9391C28.6665 27.0091 28.6573 27.0827 28.6645 27.1559C28.6717 27.229 28.6951 27.3001 28.7335 27.3651C28.7718 27.4301 28.8243 27.4877 28.8879 27.5345C28.9515 27.5813 29.0249 27.6164 29.1038 27.6378C29.1828 27.6592 29.2657 27.6664 29.3478 27.6591C29.4299 27.6517 29.5096 27.6299 29.5822 27.595C29.6547 27.56 29.7188 27.5126 29.7706 27.4554C30.047 27.1587 30.3109 26.8465 30.5544 26.5275C30.6004 26.4673 30.6326 26.3997 30.6492 26.3284C30.6658 26.2571 30.6664 26.1836 30.6511 26.1121C30.6357 26.0406 30.6047 25.9725 30.5598 25.9116C30.5148 25.8508 30.4568 25.7984 30.3891 25.7575Z" fill="#006184" stroke="#006184" stroke-width="0.4"/>
<path d="M31.6898 13.6161C31.8237 14.0782 31.9351 14.5528 32.021 15.0271C32.053 15.2043 32.1524 15.3653 32.3015 15.4815C32.4505 15.5977 32.6396 15.6616 32.8352 15.6619C32.8807 15.6618 32.9262 15.6583 32.9711 15.6515C33.0782 15.6352 33.1807 15.5997 33.2728 15.547C33.3649 15.4942 33.4448 15.4254 33.5079 15.3443C33.5711 15.2632 33.6162 15.1715 33.6407 15.0744C33.6653 14.9774 33.6687 14.8768 33.6509 14.7784C33.5569 14.2567 33.434 13.734 33.2868 13.2255C33.2304 13.031 33.0922 12.865 32.9026 12.7641C32.713 12.6632 32.4875 12.6356 32.2758 12.6874C32.064 12.7392 31.8833 12.8662 31.7734 13.0403C31.6636 13.2145 31.6335 13.4216 31.6899 13.6161H31.6898Z" fill="#006184" stroke="#006184" stroke-width="0.4"/>
<path d="M26.752 28.8052C26.4803 29.0581 26.1956 29.2983 25.906 29.5191C25.8456 29.5652 25.7939 29.6242 25.7537 29.6927C25.7136 29.7613 25.6858 29.8381 25.6721 29.9187C25.6583 29.9994 25.6588 30.0823 25.6735 30.1627C25.6882 30.2431 25.7169 30.3195 25.7578 30.3875C25.7988 30.4554 25.8513 30.5136 25.9122 30.5588C25.9732 30.604 26.0414 30.6352 26.1131 30.6507C26.1848 30.6661 26.2584 30.6656 26.3299 30.649C26.4014 30.6325 26.4693 30.6002 26.5297 30.5542C26.8484 30.3114 27.1613 30.0473 27.4603 29.7695C27.574 29.6638 27.6457 29.5116 27.6596 29.3465C27.6736 29.1814 27.6286 29.0167 27.5347 28.8889C27.4408 28.761 27.3055 28.6804 27.1587 28.6647C27.0119 28.649 26.8656 28.6995 26.752 28.8052Z" fill="#006184" stroke="#006184" stroke-width="0.4"/>
<path d="M32.1475 21.6981C31.9607 21.6362 31.758 21.6541 31.5839 21.748C31.4098 21.8419 31.2784 22.004 31.2187 22.1988C31.0772 22.6618 30.9118 23.1241 30.7273 23.5736C30.687 23.667 30.6649 23.7679 30.6624 23.8704C30.6598 23.9728 30.6768 24.0748 30.7125 24.1703C30.7481 24.2658 30.8016 24.3529 30.8698 24.4266C30.9381 24.5003 31.0197 24.559 31.11 24.5994C31.2002 24.6398 31.2973 24.661 31.3955 24.6618C31.4937 24.6627 31.5911 24.643 31.6819 24.6041C31.7728 24.5653 31.8553 24.5079 31.9246 24.4353C31.994 24.3628 32.0488 24.2765 32.0859 24.1816C32.2895 23.6869 32.4715 23.1772 32.627 22.6675C32.6566 22.571 32.6676 22.4693 32.6595 22.3684C32.6514 22.2674 32.6243 22.1691 32.5798 22.0791C32.5353 21.9891 32.4742 21.9091 32.4 21.8437C32.3258 21.7783 32.24 21.7288 32.1475 21.6981Z" fill="#006184" stroke="#006184" stroke-width="0.4"/>
<path d="M23.5824 30.7218C23.1356 30.905 22.671 31.0705 22.2015 31.2139C22.1046 31.2434 22.0147 31.291 21.937 31.3538C21.8592 31.4167 21.7952 31.4935 21.7485 31.58C21.7018 31.6666 21.6734 31.761 21.6648 31.8581C21.6563 31.9551 21.6678 32.0528 21.6987 32.1456C21.7296 32.2384 21.7793 32.3244 21.8449 32.3988C21.9106 32.4732 21.9909 32.5345 22.0813 32.5792C22.1717 32.6239 22.2704 32.6511 22.3718 32.6592C22.4731 32.6674 22.5752 32.6564 22.6721 32.6268C23.1885 32.4693 23.7 32.2872 24.1922 32.0855C24.3812 32.0081 24.5302 31.8619 24.6066 31.6793C24.683 31.4967 24.6804 31.2925 24.5995 31.1116C24.5186 30.9308 24.366 30.7881 24.1752 30.715C23.9843 30.6419 23.771 30.6443 23.5821 30.7218H23.5824Z" fill="#006184" stroke="#006184" stroke-width="0.4"/>
<path d="M22.7545 16.0201C22.7545 14.9136 22.0269 14.0271 20.9009 13.7612C20.2823 13.6147 19.6323 13.6822 19.0571 13.9527C18.4818 14.2232 18.0151 14.6807 17.7334 15.2505C17.6545 15.4106 17.6421 15.5953 17.699 15.7644C17.7559 15.9335 17.8774 16.0732 18.037 16.153C18.1966 16.2328 18.3812 16.2462 18.5507 16.1903C18.7201 16.1343 18.8605 16.0136 18.9412 15.8545C19.0853 15.5553 19.3278 15.3147 19.628 15.1729C19.9282 15.0311 20.2681 14.9967 20.5907 15.0753C20.7816 15.1203 21.4042 15.3217 21.4042 16.0201C21.4042 16.7242 20.591 17.2673 19.73 17.8424C18.7605 18.4895 17.6621 19.2229 17.6621 20.4373C17.6621 20.6164 17.7332 20.7881 17.8599 20.9147C17.9865 21.0413 18.1582 21.1125 18.3372 21.1125H22.0793C22.1686 21.1133 22.257 21.0965 22.3397 21.063C22.4224 21.0294 22.4976 20.9798 22.561 20.9171C22.6243 20.8543 22.6747 20.7796 22.709 20.6972C22.7433 20.6149 22.761 20.5266 22.761 20.4374C22.761 20.3482 22.7433 20.2598 22.709 20.1775C22.6747 20.0952 22.6243 20.0204 22.561 19.9577C22.4976 19.8949 22.4224 19.8453 22.3397 19.8118C22.257 19.7782 22.1686 19.7614 22.0793 19.7623H19.4046C19.6875 19.4943 20.0873 19.2273 20.4796 18.9652C21.5461 18.2531 22.7545 17.4462 22.7545 16.0201Z" fill="#006184"/>
<path d="M28.6535 18.2433C28.6535 18.0643 28.5824 17.8926 28.4558 17.766C28.3292 17.6394 28.1575 17.5683 27.9784 17.5683H27.4299V13.9817C27.4298 13.8419 27.3864 13.7055 27.3056 13.5915C27.2247 13.4774 27.1105 13.3912 26.9786 13.3448C26.8466 13.2985 26.7036 13.2942 26.5692 13.3326C26.4347 13.371 26.3155 13.4502 26.228 13.5593L22.8103 17.8211C22.7308 17.9204 22.6809 18.0401 22.6665 18.1665C22.652 18.2929 22.6736 18.4208 22.7286 18.5354C22.7837 18.6501 22.87 18.7469 22.9776 18.8146C23.0853 18.8824 23.2099 18.9184 23.3371 18.9185H26.0797V20.8172C26.0788 20.9064 26.0956 20.9949 26.1292 21.0776C26.1627 21.1602 26.2123 21.2354 26.2751 21.2988C26.3379 21.3622 26.4126 21.4125 26.4949 21.4468C26.5772 21.4812 26.6656 21.4989 26.7548 21.4989C26.844 21.4989 26.9323 21.4812 27.0146 21.4468C27.097 21.4125 27.1717 21.3622 27.2345 21.2988C27.2972 21.2354 27.3468 21.1602 27.3804 21.0776C27.4139 20.9949 27.4307 20.9064 27.4299 20.8172V18.9185H27.9784C28.1575 18.9185 28.3292 18.8473 28.4558 18.7207C28.5824 18.5941 28.6535 18.4224 28.6535 18.2433ZM26.0797 17.5683H24.7442L26.0797 15.9025V17.5683Z" fill="#006184"/>
<path d="M15.9887 12.9399C15.9017 12.9223 15.8122 12.9221 15.7251 12.9392C15.6381 12.9563 15.5553 12.9905 15.4815 13.0397C15.4077 13.0889 15.3443 13.1521 15.295 13.2259C15.2457 13.2997 15.2115 13.3824 15.1942 13.4694L13.6752 21.0644C13.6401 21.24 13.6761 21.4223 13.7754 21.5713C13.8747 21.7203 14.0291 21.8237 14.2047 21.8588C14.2484 21.8676 14.293 21.872 14.3376 21.872C14.4935 21.8718 14.6446 21.8177 14.7651 21.7188C14.8857 21.6199 14.9682 21.4823 14.9989 21.3294L16.5179 13.7344C16.5353 13.6475 16.5355 13.558 16.5183 13.471C16.5012 13.384 16.467 13.3013 16.4179 13.2275C16.3688 13.1537 16.3056 13.0903 16.2319 13.041C16.1583 12.9916 16.0756 12.9573 15.9887 12.9399Z" fill="#006184"/>
<path d="M9.5524 21.483C9.68572 21.4829 9.81604 21.4434 9.92696 21.3694C10.0379 21.2954 10.1244 21.1903 10.1758 21.0673L12.7074 14.9913C12.7502 14.8887 12.767 14.7771 12.7564 14.6665C12.7457 14.5558 12.7078 14.4495 12.6462 14.357C12.5845 14.2645 12.501 14.1887 12.403 14.1362C12.305 14.0838 12.1955 14.0564 12.0844 14.0564H8.66664C8.48873 14.0581 8.31868 14.13 8.19348 14.2564C8.06828 14.3828 7.99805 14.5536 7.99805 14.7315C7.99805 14.9094 8.06828 15.0801 8.19348 15.2066C8.31868 15.333 8.48873 15.4049 8.66664 15.4066H11.0717L8.92968 20.548C8.88708 20.6506 8.87041 20.7621 8.88116 20.8727C8.89191 20.9832 8.92975 21.0894 8.99131 21.1819C9.05288 21.2744 9.13628 21.3502 9.23415 21.4028C9.33201 21.4553 9.44132 21.4827 9.5524 21.483Z" fill="#006184"/>
</svg>
